<svg width="88" height="16" viewBox="0 0 88 16" fill="none" xmlns="http://www.w3.org/2000/svg">
<rect width="16" height="16" rx="1.61006" fill="#9D7DF4"/>
<g clip-path="url(#clip0_697_10793)">
<rect x="1.60938" y="6.03906" width="3.45996" height="8.3522" rx="0.402516" fill="white"/>
<rect x="6.26953" y="4.39258" width="3.45996" height="10" rx="0.402516" fill="white"/>
<rect x="10.9297" y="8.35352" width="3.45996" height="6.03774" rx="0.402516" fill="white"/>
</g>
<path d="M20.4364 13.166C20.889 14.834 22.5701 16 24.5584 16C27.0639 16 28.8581 14.4615 28.8581 11.8057V3.7247H27.1124V4.84211C26.4334 3.96761 25.4151 3.4332 24.1381 3.4332C21.7458 3.4332 20 5.27935 20 7.83806C20 10.332 21.7458 12.1134 24.1381 12.1134C25.3666 12.1134 26.4011 11.6113 27.0962 10.7368V11.7895C27.0962 13.5385 26.0132 14.5101 24.4937 14.5101C23.3945 14.5101 22.4085 13.8138 22.0367 12.8259L20.4364 13.166ZM24.4614 10.6235C22.8934 10.6235 21.7458 9.45749 21.7458 7.83806C21.7458 6.17004 22.8934 4.95547 24.4614 4.95547C26.0293 4.95547 27.1608 6.17004 27.1608 7.83806C27.1608 9.45749 26.0293 10.6235 24.4614 10.6235Z" fill="#9D7DF4"/>
<path d="M35.1132 3.4332C34.1757 3.4332 33.3836 3.93522 32.8826 4.77733V3.7247H31.1853V11.9514H32.9472V7.44939C32.9472 5.9919 33.7069 4.93927 34.8869 4.93927C35.2102 4.93927 35.7113 5.02024 36.1478 5.21458V3.64373C35.8083 3.51417 35.4365 3.4332 35.1132 3.4332Z" fill="#9D7DF4"/>
<path d="M44.0676 4.95547C43.3725 3.98381 42.2895 3.40081 41.0125 3.40081C38.604 3.40081 36.8906 5.26316 36.8906 7.83806C36.8906 10.413 38.604 12.2753 41.0125 12.2753C42.2895 12.2753 43.3725 11.6923 44.0676 10.7206V11.9514H45.8295V3.7247H44.0676V4.95547ZM41.352 10.7206C39.784 10.7206 38.6363 9.48988 38.6363 7.83806C38.6363 6.17004 39.784 4.95547 41.352 4.95547C42.9199 4.95547 44.0514 6.17004 44.0514 7.83806C44.0514 9.50607 42.9199 10.7206 41.352 10.7206Z" fill="#9D7DF4"/>
<path d="M54.863 4.84211C54.168 3.93522 53.1334 3.40081 51.8888 3.40081C49.4964 3.40081 47.7668 5.26316 47.7668 7.83806C47.7668 10.413 49.5126 12.2753 51.8888 12.2753C53.1496 12.2753 54.2164 11.7247 54.9115 10.8016V11.9514H56.625V0H54.863V4.84211ZM49.5126 7.83806C49.5126 6.21862 50.6603 5.05263 52.2282 5.05263C53.7962 5.05263 54.9277 6.21862 54.9277 7.83806C54.9277 9.45749 53.7962 10.6235 52.2282 10.6235C50.6764 10.6235 49.5126 9.47368 49.5126 7.83806Z" fill="#9D7DF4"/>
<path d="M62.9771 10.8016C61.6193 10.8016 60.5847 9.82996 60.3746 8.37247H67.293C67.3091 8.19433 67.3253 7.95142 67.3253 7.75709C67.3253 5.21458 65.5149 3.40081 62.9609 3.40081C60.4069 3.40081 58.5642 5.21458 58.5642 7.74089C58.5642 10.3806 60.4231 12.2753 63.0094 12.2753C64.7875 12.2753 66.4201 11.3036 66.905 9.95951L65.3856 9.45749C65.0138 10.2186 64.0278 10.8016 62.9771 10.8016ZM60.3746 7.07692C60.6171 5.76518 61.5869 4.87449 62.9124 4.87449C64.2702 4.87449 65.3048 5.78138 65.4987 7.07692H60.3746Z" fill="#9D7DF4"/>
<path d="M72.4283 12.2753C73.479 12.2753 74.5136 11.7571 75.0793 10.8988V11.9514H76.8089V3.7247H75.0632V8.45344C75.0632 9.76518 74.0286 10.7206 72.8163 10.7206C71.5716 10.7206 70.8604 9.82996 70.8604 8.61539V3.7247H69.0985V8.74494C69.0985 10.7854 70.4078 12.2753 72.4283 12.2753Z" fill="#9D7DF4"/>
<path d="M80.9038 10.834C81.5989 11.7409 82.6496 12.2753 83.8781 12.2753C86.2704 12.2753 88 10.413 88 7.83806C88 5.26316 86.2542 3.40081 83.8781 3.40081C82.6172 3.40081 81.5504 3.95142 80.8553 4.87449V3.7247H79.1419V16H80.9038V10.834ZM86.2542 7.83806C86.2542 9.45749 85.1066 10.6235 83.5386 10.6235C81.9707 10.6235 80.8392 9.45749 80.8392 7.83806C80.8392 6.21862 81.9707 5.05263 83.5386 5.05263C85.0904 5.05263 86.2542 6.20243 86.2542 7.83806Z" fill="#9D7DF4"/>
<defs>
<clipPath id="clip0_697_10793">
<rect x="1.60938" y="2.31641" width="12.7799" height="12.0755" rx="0.805031" fill="white"/>
</clipPath>
</defs>
</svg>
