<svg width="68" height="16" viewBox="0 0 68 16" fill="none" xmlns="http://www.w3.org/2000/svg">
<path d="M0.43644 13.166C0.889044 14.834 2.57015 16 4.55837 16C7.06386 16 8.85811 14.4615 8.85811 11.8057V3.7247H7.11235V4.84211C6.43345 3.96761 5.41509 3.4332 4.1381 3.4332C1.74576 3.4332 0 5.27935 0 7.83806C0 10.332 1.74576 12.1134 4.1381 12.1134C5.36659 12.1134 6.40112 11.6113 7.09619 10.7368V11.7895C7.09619 13.5385 6.01317 14.5101 4.49371 14.5101C3.39453 14.5101 2.4085 13.8138 2.03672 12.8259L0.43644 13.166ZM4.46138 10.6235C2.89343 10.6235 1.74576 9.45749 1.74576 7.83806C1.74576 6.17004 2.89343 4.95547 4.46138 4.95547C6.02934 4.95547 7.16085 6.17004 7.16085 7.83806C7.16085 9.45749 6.02934 10.6235 4.46138 10.6235Z" fill="#9D7DF4"/>
<path d="M15.1132 3.4332C14.1757 3.4332 13.3836 3.93522 12.8826 4.77733V3.7247H11.1853V11.9514H12.9472V7.44939C12.9472 5.9919 13.7069 4.93927 14.8869 4.93927C15.2102 4.93927 15.7113 5.02024 16.1478 5.21458V3.64373C15.8083 3.51417 15.4365 3.4332 15.1132 3.4332Z" fill="#9D7DF4"/>
<path d="M24.0676 4.95547C23.3725 3.98381 22.2895 3.40081 21.0125 3.40081C18.604 3.40081 16.8906 5.26316 16.8906 7.83806C16.8906 10.413 18.604 12.2753 21.0125 12.2753C22.2895 12.2753 23.3725 11.6923 24.0676 10.7206V11.9514H25.8295V3.7247H24.0676V4.95547ZM21.352 10.7206C19.784 10.7206 18.6363 9.48988 18.6363 7.83806C18.6363 6.17004 19.784 4.95547 21.352 4.95547C22.9199 4.95547 24.0514 6.17004 24.0514 7.83806C24.0514 9.50607 22.9199 10.7206 21.352 10.7206Z" fill="#9D7DF4"/>
<path d="M34.863 4.84211C34.168 3.93522 33.1334 3.40081 31.8888 3.40081C29.4964 3.40081 27.7668 5.26316 27.7668 7.83806C27.7668 10.413 29.5126 12.2753 31.8888 12.2753C33.1496 12.2753 34.2164 11.7247 34.9115 10.8016V11.9514H36.625V0H34.863V4.84211ZM29.5126 7.83806C29.5126 6.21862 30.6603 5.05263 32.2282 5.05263C33.7962 5.05263 34.9277 6.21862 34.9277 7.83806C34.9277 9.45749 33.7962 10.6235 32.2282 10.6235C30.6764 10.6235 29.5126 9.47368 29.5126 7.83806Z" fill="#9D7DF4"/>
<path d="M42.9771 10.8016C41.6193 10.8016 40.5847 9.82996 40.3746 8.37247H47.293C47.3091 8.19433 47.3253 7.95142 47.3253 7.75709C47.3253 5.21458 45.5149 3.40081 42.9609 3.40081C40.4069 3.40081 38.5642 5.21458 38.5642 7.74089C38.5642 10.3806 40.4231 12.2753 43.0094 12.2753C44.7875 12.2753 46.4201 11.3036 46.905 9.95951L45.3856 9.45749C45.0138 10.2186 44.0278 10.8016 42.9771 10.8016ZM40.3746 7.07692C40.6171 5.76518 41.5869 4.87449 42.9124 4.87449C44.2702 4.87449 45.3048 5.78138 45.4987 7.07692H40.3746Z" fill="#9D7DF4"/>
<path d="M52.4283 12.2753C53.479 12.2753 54.5136 11.7571 55.0793 10.8988V11.9514H56.8089V3.7247H55.0632V8.45344C55.0632 9.76518 54.0286 10.7206 52.8163 10.7206C51.5716 10.7206 50.8604 9.82996 50.8604 8.61539V3.7247H49.0985V8.74494C49.0985 10.7854 50.4078 12.2753 52.4283 12.2753Z" fill="#9D7DF4"/>
<path d="M60.9038 10.834C61.5989 11.7409 62.6496 12.2753 63.8781 12.2753C66.2704 12.2753 68 10.413 68 7.83806C68 5.26316 66.2542 3.40081 63.8781 3.40081C62.6172 3.40081 61.5504 3.95142 60.8553 4.87449V3.7247H59.1419V16H60.9038V10.834ZM66.2542 7.83806C66.2542 9.45749 65.1066 10.6235 63.5386 10.6235C61.9707 10.6235 60.8392 9.45749 60.8392 7.83806C60.8392 6.21862 61.9707 5.05263 63.5386 5.05263C65.0904 5.05263 66.2542 6.20243 66.2542 7.83806Z" fill="#9D7DF4"/>
</svg>
