<svg width="102" height="24" viewBox="0 0 102 24" fill="none" xmlns="http://www.w3.org/2000/svg">
<path d="M0.65466 19.749C1.33357 22.251 3.85522 24 6.83756 24C10.5958 24 13.2872 21.6923 13.2872 17.7085V5.58704H10.6685V7.26316C9.65017 5.95142 8.12263 5.1498 6.20714 5.1498C2.61864 5.1498 0 7.91903 0 11.7571C0 15.498 2.61864 18.17 6.20714 18.17C8.04989 18.17 9.60168 17.417 10.6443 16.1053V17.6842C10.6443 20.3077 9.01976 21.7652 6.74057 21.7652C5.0918 21.7652 3.61275 20.7206 3.05508 19.2389L0.65466 19.749ZM6.69208 15.9352C4.34015 15.9352 2.61864 14.1862 2.61864 11.7571C2.61864 9.25506 4.34015 7.4332 6.69208 7.4332C9.044 7.4332 10.7413 9.25506 10.7413 11.7571C10.7413 14.1862 9.044 15.9352 6.69208 15.9352Z" fill="#9D7DF4"/>
<path d="M22.6699 5.1498C21.2636 5.1498 20.0755 5.90283 19.3238 7.16599V5.58704H16.7779V17.9271H19.4208V11.1741C19.4208 8.98785 20.5604 7.40891 22.3304 7.40891C22.8153 7.40891 23.567 7.53036 24.2217 7.82186V5.46559C23.7125 5.27126 23.1548 5.1498 22.6699 5.1498Z" fill="#9D7DF4"/>
<path d="M36.1014 7.4332C35.0588 5.97571 33.4342 5.10122 31.5188 5.10122C27.906 5.10122 25.3359 7.89474 25.3359 11.7571C25.3359 15.6194 27.906 18.413 31.5188 18.413C33.4342 18.413 35.0588 17.5385 36.1014 16.081V17.9271H38.7443V5.58704H36.1014V7.4332ZM32.0279 16.081C29.676 16.081 27.9545 14.2348 27.9545 11.7571C27.9545 9.25506 29.676 7.4332 32.0279 7.4332C34.3799 7.4332 36.0771 9.25506 36.0771 11.7571C36.0771 14.2591 34.3799 16.081 32.0279 16.081Z" fill="#9D7DF4"/>
<path d="M52.2945 7.26316C51.2519 5.90283 49.7002 5.10122 47.8332 5.10122C44.2447 5.10122 41.6503 7.89474 41.6503 11.7571C41.6503 15.6194 44.2689 18.413 47.8332 18.413C49.7244 18.413 51.3247 17.587 52.3673 16.2024V17.9271H54.9374V0H52.2945V7.26316ZM44.2689 11.7571C44.2689 9.32794 45.9904 7.57895 48.3423 7.57895C50.6943 7.57895 52.3915 9.32794 52.3915 11.7571C52.3915 14.1862 50.6943 15.9352 48.3423 15.9352C46.0147 15.9352 44.2689 14.2105 44.2689 11.7571Z" fill="#9D7DF4"/>
<path d="M64.4656 16.2024C62.4289 16.2024 60.8771 14.7449 60.5619 12.5587H70.9395C70.9637 12.2915 70.988 11.9271 70.988 11.6356C70.988 7.82186 68.2723 5.10122 64.4414 5.10122C60.6104 5.10122 57.8463 7.82186 57.8463 11.6113C57.8463 15.5709 60.6346 18.413 64.5141 18.413C67.1812 18.413 69.6302 16.9555 70.3576 14.9393L68.0784 14.1862C67.5207 15.3279 66.0416 16.2024 64.4656 16.2024ZM60.5619 10.6154C60.9256 8.64777 62.3804 7.31174 64.3686 7.31174C66.4053 7.31174 67.9571 8.67207 68.2481 10.6154H60.5619Z" fill="#9D7DF4"/>
<path d="M78.6425 18.413C80.2185 18.413 81.7703 17.6356 82.619 16.3482V17.9271H85.2134V5.58704H82.5947V12.6802C82.5947 14.6478 81.0429 16.081 79.2244 16.081C77.3574 16.081 76.2906 14.7449 76.2906 12.9231V5.58704H73.6477V13.1174C73.6477 16.1781 75.6117 18.413 78.6425 18.413Z" fill="#9D7DF4"/>
<path d="M91.3557 16.251C92.3983 17.6113 93.9744 18.413 95.8171 18.413C99.4056 18.413 102 15.6194 102 11.7571C102 7.89474 99.3814 5.10122 95.8171 5.10122C93.9259 5.10122 92.3256 5.92713 91.283 7.31174V5.58704H88.7128V24H91.3557V16.251ZM99.3814 11.7571C99.3814 14.1862 97.6599 15.9352 95.3079 15.9352C92.956 15.9352 91.2587 14.1862 91.2587 11.7571C91.2587 9.32794 92.956 7.57895 95.3079 7.57895C97.6356 7.57895 99.3814 9.30364 99.3814 11.7571Z" fill="#9D7DF4"/>
</svg>
