<svg width="132" height="24" viewBox="0 0 132 24" fill="none" xmlns="http://www.w3.org/2000/svg">
<rect width="24" height="24" rx="2.41509" fill="#9D7DF4"/>
<g clip-path="url(#clip0_245_3875)">
<rect x="2.41406" y="9.0625" width="5.18994" height="12.5283" rx="0.603774" fill="white"/>
<rect x="9.40234" y="6.58984" width="5.18994" height="15" rx="0.603774" fill="white"/>
<rect x="16.3945" y="12.5312" width="5.18994" height="9.0566" rx="0.603774" fill="white"/>
</g>
<path d="M30.6547 19.749C31.3336 22.251 33.8552 24 36.8376 24C40.5958 24 43.2872 21.6923 43.2872 17.7085V5.58704H40.6685V7.26316C39.6502 5.95142 38.1226 5.1498 36.2071 5.1498C32.6186 5.1498 30 7.91903 30 11.7571C30 15.498 32.6186 18.17 36.2071 18.17C38.0499 18.17 39.6017 17.417 40.6443 16.1053V17.6842C40.6443 20.3077 39.0198 21.7652 36.7406 21.7652C35.0918 21.7652 33.6128 20.7206 33.0551 19.2389L30.6547 19.749ZM36.6921 15.9352C34.3402 15.9352 32.6186 14.1862 32.6186 11.7571C32.6186 9.25506 34.3402 7.4332 36.6921 7.4332C39.044 7.4332 40.7413 9.25506 40.7413 11.7571C40.7413 14.1862 39.044 15.9352 36.6921 15.9352Z" fill="#9D7DF4"/>
<path d="M52.6699 5.1498C51.2636 5.1498 50.0755 5.90283 49.3238 7.16599V5.58704H46.7779V17.9271H49.4208V11.1741C49.4208 8.98785 50.5604 7.40891 52.3304 7.40891C52.8153 7.40891 53.567 7.53036 54.2217 7.82186V5.46559C53.7125 5.27126 53.1548 5.1498 52.6699 5.1498Z" fill="#9D7DF4"/>
<path d="M66.1014 7.4332C65.0588 5.97571 63.4342 5.10122 61.5188 5.10122C57.906 5.10122 55.3359 7.89474 55.3359 11.7571C55.3359 15.6194 57.906 18.413 61.5188 18.413C63.4342 18.413 65.0588 17.5385 66.1014 16.081V17.9271H68.7443V5.58704H66.1014V7.4332ZM62.0279 16.081C59.676 16.081 57.9545 14.2348 57.9545 11.7571C57.9545 9.25506 59.676 7.4332 62.0279 7.4332C64.3799 7.4332 66.0771 9.25506 66.0771 11.7571C66.0771 14.2591 64.3799 16.081 62.0279 16.081Z" fill="#9D7DF4"/>
<path d="M82.2945 7.26316C81.2519 5.90283 79.7002 5.10122 77.8332 5.10122C74.2447 5.10122 71.6503 7.89474 71.6503 11.7571C71.6503 15.6194 74.2689 18.413 77.8332 18.413C79.7244 18.413 81.3247 17.587 82.3673 16.2024V17.9271H84.9374V0H82.2945V7.26316ZM74.2689 11.7571C74.2689 9.32794 75.9904 7.57895 78.3423 7.57895C80.6943 7.57895 82.3915 9.32794 82.3915 11.7571C82.3915 14.1862 80.6943 15.9352 78.3423 15.9352C76.0147 15.9352 74.2689 14.2105 74.2689 11.7571Z" fill="#9D7DF4"/>
<path d="M94.4656 16.2024C92.4289 16.2024 90.8771 14.7449 90.5619 12.5587H100.939C100.964 12.2915 100.988 11.9271 100.988 11.6356C100.988 7.82186 98.2723 5.10122 94.4414 5.10122C90.6104 5.10122 87.8463 7.82186 87.8463 11.6113C87.8463 15.5709 90.6346 18.413 94.5141 18.413C97.1812 18.413 99.6301 16.9555 100.358 14.9393L98.0784 14.1862C97.5207 15.3279 96.0416 16.2024 94.4656 16.2024ZM90.5619 10.6154C90.9256 8.64777 92.3804 7.31174 94.3686 7.31174C96.4053 7.31174 97.9571 8.67207 98.2481 10.6154H90.5619Z" fill="#9D7DF4"/>
<path d="M108.643 18.413C110.219 18.413 111.77 17.6356 112.619 16.3482V17.9271H115.213V5.58704H112.595V12.6802C112.595 14.6478 111.043 16.081 109.224 16.081C107.357 16.081 106.291 14.7449 106.291 12.9231V5.58704H103.648V13.1174C103.648 16.1781 105.612 18.413 108.643 18.413Z" fill="#9D7DF4"/>
<path d="M121.356 16.251C122.398 17.6113 123.974 18.413 125.817 18.413C129.406 18.413 132 15.6194 132 11.7571C132 7.89474 129.381 5.10122 125.817 5.10122C123.926 5.10122 122.326 5.92713 121.283 7.31174V5.58704H118.713V24H121.356V16.251ZM129.381 11.7571C129.381 14.1862 127.66 15.9352 125.308 15.9352C122.956 15.9352 121.259 14.1862 121.259 11.7571C121.259 9.32794 122.956 7.57895 125.308 7.57895C127.636 7.57895 129.381 9.30364 129.381 11.7571Z" fill="#9D7DF4"/>
<defs>
<clipPath id="clip0_245_3875">
<rect x="2.41406" y="3.47656" width="19.1698" height="18.1132" rx="1.20755" fill="white"/>
</clipPath>
</defs>
</svg>
