<svg width="150" height="35" viewBox="0 0 150 35" fill="none" xmlns="http://www.w3.org/2000/svg">
<path d="M1.40393 28.8006C2.394 32.4494 6.07141 35 10.4207 35C15.9014 35 19.8263 31.6346 19.8263 25.8249L19.8263 8.14777L16.0075 8.14777V10.5921C14.5224 8.67915 12.2947 7.51012 9.50131 7.51012C4.26807 7.51012 0.449219 11.5486 0.449219 17.1458C0.449219 22.6012 4.26807 26.498 9.50131 26.498C12.1886 26.498 14.4517 25.3998 15.9721 23.4868V25.7895C15.9721 29.6154 13.603 31.7409 10.2792 31.7409C7.87476 31.7409 5.71782 30.2176 4.90454 28.0567L1.40393 28.8006ZM10.2085 23.2389C6.77861 23.2389 4.26807 20.6883 4.26807 17.1458C4.26807 13.497 6.77861 10.8401 10.2085 10.8401C13.6384 10.8401 16.1136 13.497 16.1136 17.1458C16.1136 20.6883 13.6384 23.2389 10.2085 23.2389Z" fill="#9D7DF4"/>
<path d="M33.5094 7.51012C31.4586 7.51012 29.726 8.6083 28.6298 10.4504V8.14777L24.917 8.14777L24.917 26.1437H28.7712V16.2955C28.7712 13.1073 30.4332 10.8047 33.0144 10.8047C33.7216 10.8047 34.8178 10.9818 35.7725 11.4069V7.97065C35.0299 7.68725 34.2166 7.51012 33.5094 7.51012Z" fill="#9D7DF4"/>
<path d="M53.0971 10.8401C51.5766 8.71458 49.2075 7.43927 46.4141 7.43927C41.1455 7.43927 37.3974 11.5132 37.3974 17.1458C37.3974 22.7783 41.1455 26.8522 46.4141 26.8522C49.2075 26.8522 51.5766 25.5769 53.0971 23.4514V26.1437L56.9513 26.1437L56.9513 8.14777H53.0971V10.8401ZM47.1566 23.4514C43.7268 23.4514 41.2162 20.7591 41.2162 17.1458C41.2162 13.497 43.7268 10.8401 47.1566 10.8401C50.5865 10.8401 53.0617 13.497 53.0617 17.1458C53.0617 20.7945 50.5865 23.4514 47.1566 23.4514Z" fill="#9D7DF4"/>
<path d="M76.7121 10.5921C75.1917 8.6083 72.9286 7.43927 70.2059 7.43927C64.9727 7.43927 61.1892 11.5132 61.1892 17.1458C61.1892 22.7783 65.008 26.8522 70.2059 26.8522C72.964 26.8522 75.2977 25.6478 76.8182 23.6285V26.1437L80.5663 26.1437V0L76.7121 0V10.5921ZM65.008 17.1458C65.008 13.6032 67.5186 11.0526 70.9485 11.0526C74.3784 11.0526 76.8536 13.6032 76.8536 17.1458C76.8536 20.6883 74.3784 23.2389 70.9485 23.2389C67.554 23.2389 65.008 20.7237 65.008 17.1458Z" fill="#9D7DF4"/>
<path d="M94.4616 23.6285C91.4914 23.6285 89.2283 21.503 88.7687 18.3148L103.903 18.3148C103.938 17.9251 103.973 17.3937 103.973 16.9686C103.973 11.4069 100.013 7.43927 94.4262 7.43927C88.8394 7.43927 84.8084 11.4069 84.8084 16.9332C84.8084 22.7075 88.8748 26.8522 94.5323 26.8522C98.4219 26.8522 101.993 24.7267 103.054 21.7864L99.7302 20.6883C98.9169 22.3532 96.76 23.6285 94.4616 23.6285ZM88.7687 15.4808C89.2991 12.6113 91.4207 10.663 94.3202 10.663C97.2904 10.663 99.5534 12.6468 99.9777 15.4808L88.7687 15.4808Z" fill="#9D7DF4"/>
<path d="M115.136 26.8522C117.435 26.8522 119.698 25.7186 120.935 23.8411V26.1437L124.719 26.1437V8.14777H120.9V18.4919C120.9 21.3613 118.637 23.4514 115.985 23.4514C113.262 23.4514 111.706 21.503 111.706 18.8462V8.14777H107.852V19.1296C107.852 23.5931 110.716 26.8522 115.136 26.8522Z" fill="#9D7DF4"/>
<path d="M133.676 23.6994C135.197 25.6832 137.495 26.8522 140.183 26.8522C145.416 26.8522 149.199 22.7783 149.199 17.1458C149.199 11.5132 145.38 7.43927 140.183 7.43927C137.424 7.43927 135.091 8.64373 133.57 10.663V8.14777H129.822V35H133.676V23.6994ZM145.38 17.1458C145.38 20.6883 142.87 23.2389 139.44 23.2389C136.01 23.2389 133.535 20.6883 133.535 17.1458C133.535 13.6032 136.01 11.0526 139.44 11.0526C142.835 11.0526 145.38 13.5678 145.38 17.1458Z" fill="#9D7DF4"/>
</svg>
