<svg width="968" height="250" viewBox="0 0 968 250" fill="none" xmlns="http://www.w3.org/2000/svg">
<path fill-rule="evenodd" clip-rule="evenodd" d="M125.327 248.383C162.195 256.026 198.279 232.335 205.922 195.467C213.565 158.599 189.873 122.515 153.005 114.872C142.671 112.73 132.398 113.05 122.796 115.431C103.944 120.107 79.7505 117.825 60.7315 113.882V113.882C33.408 108.218 6.66597 125.776 1.00159 153.1C-4.6628 180.423 12.8954 207.165 40.219 212.83V212.83C59.3027 216.786 82.521 224.281 98.0642 236.039C105.878 241.95 115.095 246.262 125.327 248.383Z" fill="#F2F2F2"/>
<path d="M59.3544 160.669L59.6399 159.292L69.2536 161.285L68.9682 162.662L64.9374 161.826L62.5655 173.268L61.0133 172.946L63.3852 161.505L59.3544 160.669ZM71.2615 175.279C70.3936 175.099 69.6749 174.735 69.1055 174.186C68.5402 173.638 68.1509 172.955 67.9377 172.136C67.7286 171.318 67.727 170.412 67.9329 169.419C68.1405 168.418 68.5033 167.581 69.0211 166.91C69.5432 166.239 70.1725 165.764 70.909 165.486C71.6498 165.209 72.4541 165.16 73.322 165.34C74.1899 165.52 74.9065 165.884 75.4718 166.432C76.0413 166.981 76.4301 167.666 76.6383 168.489C76.8506 169.312 76.853 170.224 76.6454 171.225C76.4395 172.218 76.076 173.048 75.5548 173.715C75.0378 174.382 74.409 174.855 73.6682 175.132C72.9317 175.41 72.1294 175.459 71.2615 175.279ZM71.5366 173.952C72.1959 174.089 72.7733 174.033 73.269 173.783C73.7647 173.533 74.1719 173.154 74.4905 172.646C74.8091 172.137 75.0351 171.562 75.1683 170.919C75.3015 170.277 75.3234 169.657 75.234 169.059C75.1446 168.462 74.9225 167.948 74.5679 167.518C74.2132 167.087 73.7062 166.804 73.0469 166.667C72.3876 166.53 71.8097 166.589 71.3132 166.843C70.8167 167.097 70.4086 167.48 70.0891 167.993C69.7696 168.505 69.5433 169.083 69.41 169.725C69.2768 170.368 69.2554 170.986 69.3456 171.579C69.4359 172.172 69.6588 172.682 70.0144 173.108C70.3699 173.534 70.8773 173.816 71.5366 173.952ZM87.3177 168.372L85.3247 177.986L83.8476 177.68L85.8406 168.066L87.3177 168.372ZM85.7921 172.834L85.5066 174.211C85.1469 174.267 84.7922 174.309 84.4427 174.337C84.094 174.36 83.7325 174.361 83.3583 174.34C82.9849 174.315 82.5812 174.258 82.1472 174.168C81.0582 173.942 80.245 173.466 79.7077 172.741C79.1745 172.017 79.0299 171.067 79.2739 169.89L79.9123 166.811L81.3894 167.117L80.751 170.196C80.6489 170.689 80.6589 171.113 80.7809 171.469C80.903 171.825 81.1086 172.114 81.3979 172.335C81.6872 172.556 82.0321 172.708 82.4327 172.791C83.0586 172.92 83.6357 172.981 84.1639 172.973C84.6972 172.962 85.2399 172.916 85.7921 172.834ZM88.0348 178.548L90.0278 168.934L91.5049 169.24L90.6382 173.421L91.6146 173.624L95.9363 170.159L97.839 170.553L92.9983 174.38L95.8961 180.177L93.9934 179.783L91.6796 175.073L90.3527 174.798L89.5119 178.854L88.0348 178.548ZM99.4302 178.638L105.603 172.163L107.306 172.516L105.313 182.13L103.836 181.823L105.377 174.388L99.229 180.868L97.5015 180.51L99.4945 170.896L100.972 171.203L99.4302 178.638ZM112.228 187.323L114.968 174.104L116.395 174.4L116.079 175.927L116.254 175.964C116.397 175.819 116.591 175.638 116.837 175.419C117.088 175.196 117.416 175.021 117.821 174.891C118.231 174.759 118.75 174.758 119.375 174.887C120.185 175.055 120.857 175.405 121.39 175.938C121.924 176.471 122.287 177.145 122.479 177.959C122.672 178.774 122.663 179.686 122.454 180.696C122.243 181.714 121.887 182.56 121.385 183.235C120.885 183.906 120.286 184.383 119.588 184.665C118.89 184.942 118.141 184.998 117.34 184.832C116.722 184.704 116.249 184.499 115.92 184.218C115.592 183.932 115.355 183.637 115.209 183.333C115.064 183.024 114.956 182.771 114.884 182.573L114.759 182.547L113.705 187.629L112.228 187.323ZM115.424 179.212C115.273 179.938 115.247 180.601 115.345 181.2C115.443 181.795 115.665 182.291 116.009 182.689C116.354 183.082 116.822 183.341 117.415 183.463C118.032 183.591 118.581 183.535 119.062 183.296C119.548 183.053 119.952 182.675 120.276 182.163C120.605 181.648 120.84 181.049 120.982 180.364C121.122 179.688 121.144 179.058 121.048 178.472C120.957 177.883 120.735 177.387 120.384 176.983C120.037 176.576 119.551 176.308 118.925 176.178C118.324 176.053 117.788 176.101 117.316 176.321C116.845 176.536 116.448 176.894 116.127 177.393C115.807 177.888 115.573 178.494 115.424 179.212ZM127.58 186.955C126.712 186.775 125.993 186.41 125.424 185.861C124.858 185.313 124.469 184.63 124.256 183.811C124.047 182.993 124.045 182.087 124.251 181.094C124.459 180.093 124.821 179.256 125.339 178.585C125.861 177.914 126.491 177.439 127.227 177.161C127.968 176.884 128.772 176.835 129.64 177.015C130.508 177.195 131.225 177.559 131.79 178.107C132.359 178.656 132.748 179.342 132.956 180.164C133.169 180.987 133.171 181.899 132.964 182.901C132.758 183.894 132.394 184.723 131.873 185.39C131.356 186.058 130.727 186.53 129.986 186.807C129.25 187.085 128.448 187.134 127.58 186.955ZM127.855 185.628C128.514 185.764 129.092 185.708 129.587 185.458C130.083 185.208 130.49 184.829 130.809 184.321C131.127 183.812 131.353 183.237 131.486 182.594C131.62 181.952 131.642 181.332 131.552 180.734C131.463 180.137 131.241 179.623 130.886 179.193C130.531 178.762 130.024 178.479 129.365 178.342C128.706 178.206 128.128 178.264 127.631 178.518C127.135 178.772 126.727 179.155 126.407 179.668C126.088 180.18 125.861 180.758 125.728 181.401C125.595 182.043 125.574 182.661 125.664 183.254C125.754 183.847 125.977 184.357 126.333 184.783C126.688 185.21 127.195 185.491 127.855 185.628ZM138.096 189.135C137.195 188.948 136.463 188.574 135.9 188.014C135.338 187.453 134.958 186.763 134.763 185.943C134.567 185.124 134.569 184.234 134.768 183.275C134.97 182.298 135.328 181.474 135.842 180.801C136.361 180.125 136.987 179.644 137.721 179.356C138.46 179.066 139.264 179.01 140.132 179.19C140.808 179.33 141.391 179.582 141.882 179.945C142.372 180.308 142.744 180.75 142.997 181.273C143.25 181.795 143.356 182.365 143.314 182.983L141.837 182.677C141.815 182.216 141.646 181.776 141.328 181.357C141.015 180.936 140.533 180.657 139.882 180.522C139.306 180.403 138.77 180.449 138.274 180.659C137.782 180.866 137.36 181.216 137.005 181.708C136.656 182.197 136.406 182.805 136.255 183.531C136.101 184.273 136.084 184.944 136.203 185.544C136.327 186.144 136.572 186.641 136.939 187.034C137.31 187.429 137.787 187.687 138.371 187.808C138.755 187.887 139.118 187.893 139.458 187.824C139.799 187.756 140.104 187.619 140.372 187.413C140.641 187.208 140.858 186.939 141.022 186.608L142.5 186.914C142.298 187.464 141.986 187.933 141.562 188.319C141.143 188.702 140.637 188.972 140.043 189.127C139.455 189.279 138.806 189.282 138.096 189.135ZM145.028 181.772L145.313 180.395L153.124 182.014L152.839 183.391L149.684 182.737L147.977 190.974L146.5 190.668L148.207 182.431L145.028 181.772ZM155.569 192.783C154.96 192.657 154.431 192.427 153.982 192.095C153.534 191.758 153.209 191.341 153.008 190.842C152.808 190.339 152.772 189.775 152.902 189.149C153.016 188.598 153.217 188.174 153.505 187.877C153.794 187.576 154.14 187.365 154.544 187.244C154.948 187.123 155.378 187.06 155.836 187.055C156.299 187.046 156.76 187.059 157.219 187.093C157.819 187.139 158.304 187.181 158.675 187.219C159.051 187.253 159.332 187.24 159.519 187.178C159.71 187.118 159.83 186.969 159.879 186.731L159.889 186.681C160.017 186.063 159.948 185.548 159.681 185.136C159.418 184.725 158.947 184.449 158.266 184.308C157.561 184.161 156.976 184.201 156.512 184.427C156.047 184.653 155.697 184.924 155.462 185.241L154.164 184.449C154.535 183.917 154.963 183.531 155.448 183.292C155.938 183.05 156.444 182.916 156.968 182.889C157.496 182.86 158.002 182.895 158.486 182.995C158.795 183.059 159.142 183.17 159.527 183.329C159.917 183.483 160.276 183.712 160.605 184.016C160.938 184.32 161.183 184.725 161.339 185.232C161.495 185.738 161.494 186.374 161.335 187.137L160.022 193.471L158.545 193.165L158.815 191.863L158.74 191.848C158.597 192.035 158.383 192.224 158.1 192.414C157.817 192.603 157.465 192.741 157.042 192.827C156.619 192.914 156.128 192.899 155.569 192.783ZM156.07 191.503C156.654 191.624 157.17 191.611 157.618 191.465C158.07 191.319 158.437 191.086 158.716 190.766C159 190.446 159.184 190.086 159.267 189.685L159.547 188.333C159.469 188.395 159.317 188.436 159.091 188.454C158.87 188.469 158.617 188.471 158.333 188.46C158.053 188.445 157.78 188.428 157.514 188.408C157.254 188.384 157.042 188.367 156.879 188.355C156.485 188.325 156.109 188.332 155.752 188.375C155.4 188.416 155.099 188.525 154.848 188.704C154.603 188.879 154.441 189.155 154.364 189.53C154.257 190.044 154.367 190.471 154.692 190.813C155.022 191.151 155.481 191.381 156.07 191.503Z" fill="#201C28"/>
<rect width="286.112" height="84.5307" rx="42.2653" transform="matrix(0.765741 0.643149 -0.64314 0.765749 182.363 18)" fill="#F2F2F2"/>
<path d="M205.155 101.952L205.574 94.4566L204.34 93.4205L200.476 98.0214L199.262 97.0019L207.681 86.9778L208.895 87.9974L205.245 92.3437L205.773 92.7877L213.438 91.8125L214.886 93.0294L207.134 94.0305L206.604 103.169L205.155 101.952ZM207.35 103.796L208.255 102.719L208.529 102.949C208.754 103.138 208.978 103.252 209.203 103.29C209.429 103.324 209.683 103.267 209.964 103.119C210.25 102.97 210.588 102.714 210.976 102.35C211.371 101.986 211.845 101.499 212.396 100.888L215.329 97.6753L220.341 101.885L214.026 109.403L212.871 108.433L218.281 101.992L215.521 99.673L213.151 102.257C212.606 102.851 212.095 103.348 211.615 103.747C211.142 104.145 210.687 104.431 210.252 104.605C209.819 104.782 209.397 104.833 208.986 104.76C208.574 104.687 208.159 104.475 207.742 104.124L207.35 103.796ZM223.3 109.98L222.396 111.057L218.421 107.719L219.326 106.642L223.3 109.98ZM223.067 104.175L216.753 111.693L215.597 110.723L221.912 103.205L223.067 104.175ZM221.927 116.306C221.248 115.736 220.788 115.074 220.547 114.321C220.31 113.57 220.291 112.784 220.492 111.962C220.696 111.143 221.124 110.345 221.776 109.568C222.434 108.785 223.15 108.221 223.925 107.875C224.702 107.532 225.481 107.413 226.262 107.518C227.045 107.625 227.777 107.963 228.455 108.534C229.134 109.104 229.592 109.764 229.83 110.515C230.071 111.268 230.088 112.056 229.881 112.878C229.678 113.704 229.247 114.508 228.589 115.291C227.937 116.068 227.223 116.626 226.448 116.965C225.677 117.308 224.899 117.425 224.115 117.318C223.335 117.214 222.605 116.876 221.927 116.306ZM222.798 115.268C223.314 115.702 223.849 115.926 224.404 115.941C224.959 115.956 225.497 115.816 226.019 115.519C226.54 115.223 227.012 114.823 227.434 114.321C227.856 113.818 228.17 113.283 228.374 112.715C228.579 112.146 228.627 111.589 228.519 111.041C228.411 110.494 228.099 110.004 227.584 109.571C227.068 109.138 226.532 108.916 225.974 108.904C225.416 108.892 224.875 109.036 224.351 109.335C223.827 109.635 223.353 110.036 222.931 110.539C222.509 111.041 222.197 111.575 221.995 112.14C221.793 112.705 221.748 113.259 221.859 113.803C221.97 114.347 222.283 114.835 222.798 115.268ZM239.454 117.939L233.14 125.457L231.984 124.487L238.299 116.969L239.454 117.939ZM235.995 121.144L235.09 122.22C234.747 122.099 234.415 121.968 234.094 121.826C233.776 121.682 233.457 121.511 233.138 121.315C232.821 121.116 232.493 120.874 232.154 120.589C231.302 119.873 230.811 119.069 230.682 118.176C230.557 117.286 230.88 116.38 231.653 115.46L233.676 113.052L234.831 114.022L232.808 116.43C232.485 116.815 232.292 117.193 232.231 117.565C232.169 117.936 232.213 118.288 232.363 118.619C232.513 118.951 232.745 119.249 233.058 119.512C233.547 119.923 234.027 120.25 234.495 120.494C234.97 120.737 235.47 120.953 235.995 121.144ZM238.279 130.041C237.555 129.433 237.065 128.748 236.808 127.987C236.557 127.226 236.532 126.437 236.733 125.621C236.941 124.804 237.368 124.011 238.015 123.241C238.661 122.471 239.372 121.91 240.146 121.558C240.926 121.206 241.707 121.078 242.49 121.173C243.278 121.268 244.012 121.6 244.691 122.17C245.082 122.499 245.414 122.889 245.686 123.34C245.958 123.792 246.128 124.296 246.194 124.852C246.264 125.406 246.19 126.001 245.973 126.636C245.756 127.272 245.353 127.941 244.764 128.643L244.352 129.132L238.557 124.264L239.396 123.266L244.016 127.147C244.373 126.723 244.606 126.273 244.716 125.798C244.829 125.325 244.811 124.862 244.663 124.409C244.518 123.959 244.237 123.559 243.819 123.208C243.359 122.821 242.865 122.601 242.337 122.547C241.815 122.493 241.312 122.571 240.828 122.783C240.345 122.994 239.929 123.307 239.581 123.722L239.022 124.387C238.545 124.955 238.238 125.519 238.103 126.078C237.973 126.637 237.998 127.167 238.177 127.668C238.36 128.167 238.684 128.612 239.151 129.004C239.455 129.259 239.764 129.447 240.08 129.567C240.402 129.687 240.726 129.736 241.05 129.714C241.378 129.689 241.7 129.587 242.017 129.408L242.87 130.658C242.435 130.938 241.958 131.105 241.439 131.159C240.923 131.21 240.394 131.144 239.852 130.962C239.313 130.776 238.789 130.469 238.279 130.041ZM243.281 133.975L249.596 126.457L252.67 129.039C253.479 129.719 253.968 130.442 254.138 131.207C254.307 131.973 254.14 132.656 253.635 133.256C253.252 133.713 252.819 133.953 252.337 133.977C251.858 133.998 251.369 133.874 250.871 133.606C251.115 133.878 251.302 134.202 251.432 134.578C251.565 134.956 251.602 135.355 251.545 135.775C251.491 136.191 251.298 136.596 250.966 136.991C250.642 137.376 250.255 137.638 249.805 137.777C249.354 137.916 248.872 137.92 248.359 137.789C247.845 137.659 247.334 137.379 246.825 136.952L243.281 133.975ZM245.266 133.839L247.713 135.895C248.111 136.229 248.502 136.396 248.886 136.396C249.27 136.396 249.599 136.233 249.873 135.906C250.2 135.518 250.343 135.118 250.304 134.707C250.268 134.293 250.051 133.919 249.653 133.584L247.206 131.529L245.266 133.839ZM248.045 130.53L250.022 132.191C250.332 132.452 250.634 132.633 250.927 132.734C251.223 132.832 251.496 132.851 251.748 132.79C252.006 132.728 252.228 132.586 252.414 132.364C252.68 132.048 252.756 131.689 252.643 131.287C252.532 130.883 252.245 130.486 251.782 130.096L249.804 128.436L248.045 130.53ZM256.048 136.518L258.202 138.327C259.083 139.067 259.569 139.857 259.66 140.696C259.751 141.534 259.509 142.297 258.933 142.982C258.555 143.432 258.107 143.754 257.588 143.947C257.072 144.137 256.52 144.172 255.932 144.05C255.347 143.926 254.76 143.617 254.173 143.124L251.021 140.476L257.335 132.958L258.491 133.928L253.08 140.37L255.077 142.047C255.534 142.431 256.011 142.625 256.507 142.63C257.004 142.636 257.411 142.449 257.729 142.07C258.063 141.672 258.189 141.224 258.106 140.726C258.024 140.228 257.754 139.788 257.297 139.404L255.144 137.595L256.048 136.518ZM258.088 146.413L264.403 138.895L265.558 139.865L259.244 147.383L258.088 146.413ZM264.379 151.963C263.654 151.355 263.164 150.67 262.907 149.909C262.656 149.147 262.631 148.359 262.833 147.543C263.04 146.726 263.467 145.933 264.114 145.163C264.76 144.393 265.471 143.832 266.245 143.48C267.025 143.128 267.806 142.999 268.589 143.095C269.377 143.189 270.111 143.522 270.79 144.092C271.181 144.421 271.513 144.811 271.785 145.262C272.057 145.713 272.227 146.217 272.293 146.774C272.363 147.327 272.289 147.922 272.072 148.558C271.855 149.194 271.452 149.863 270.863 150.564L270.452 151.054L264.656 146.186L265.495 145.188L270.115 149.069C270.472 148.644 270.705 148.195 270.815 147.719C270.928 147.247 270.91 146.784 270.762 146.331C270.617 145.881 270.336 145.48 269.918 145.13C269.458 144.743 268.964 144.523 268.436 144.469C267.914 144.415 267.411 144.493 266.927 144.705C266.444 144.916 266.028 145.229 265.68 145.643L265.121 146.309C264.644 146.877 264.337 147.44 264.202 148C264.072 148.558 264.097 149.089 264.276 149.59C264.459 150.088 264.783 150.534 265.25 150.925C265.554 151.18 265.863 151.368 266.179 151.489C266.501 151.609 266.825 151.658 267.149 151.636C267.477 151.61 267.799 151.508 268.116 151.329L268.969 152.58C268.534 152.86 268.057 153.027 267.538 153.081C267.022 153.132 266.493 153.066 265.951 152.883C265.412 152.697 264.888 152.391 264.379 151.963ZM281.89 159.092L280.985 160.169L276.835 156.682L277.739 155.605L281.89 159.092ZM280.727 152.605L274.412 160.123L273.257 159.153L279.571 151.635L280.727 152.605ZM285.484 156.601L279.169 164.119L278.014 163.149L284.329 155.631L285.484 156.601ZM283.343 167.926C282.867 167.526 282.51 167.073 282.272 166.567C282.037 166.058 281.95 165.536 282.009 165.002C282.071 164.464 282.308 163.951 282.719 163.461C283.081 163.03 283.459 162.753 283.853 162.628C284.25 162.499 284.655 162.478 285.068 162.563C285.481 162.648 285.89 162.797 286.296 163.009C286.707 163.222 287.107 163.452 287.494 163.699C288 164.024 288.408 164.291 288.716 164.5C289.031 164.709 289.285 164.83 289.479 164.865C289.675 164.902 289.852 164.828 290.008 164.642L290.041 164.603C290.447 164.12 290.63 163.634 290.59 163.144C290.554 162.657 290.27 162.19 289.738 161.744C289.186 161.28 288.653 161.038 288.137 161.016C287.621 160.995 287.184 161.067 286.826 161.235L286.059 159.922C286.638 159.63 287.198 159.493 287.738 159.513C288.284 159.532 288.794 159.654 289.267 159.879C289.746 160.104 290.175 160.375 290.554 160.693C290.795 160.895 291.048 161.158 291.312 161.48C291.582 161.801 291.79 162.173 291.935 162.596C292.084 163.022 292.107 163.494 292.004 164.015C291.901 164.535 291.599 165.093 291.097 165.69L286.937 170.644L285.782 169.674L286.637 168.655L286.578 168.606C286.363 168.703 286.086 168.768 285.747 168.801C285.408 168.833 285.032 168.788 284.619 168.663C284.206 168.539 283.78 168.293 283.343 167.926ZM284.391 167.036C284.848 167.42 285.308 167.653 285.772 167.737C286.239 167.823 286.672 167.792 287.071 167.642C287.472 167.495 287.805 167.265 288.068 166.952L288.956 165.895C288.857 165.913 288.704 165.876 288.497 165.785C288.295 165.694 288.072 165.576 287.826 165.431C287.587 165.285 287.355 165.14 287.131 164.997C286.913 164.852 286.735 164.736 286.597 164.648C286.264 164.435 285.93 164.263 285.595 164.132C285.266 164 284.949 163.954 284.643 163.992C284.344 164.031 284.071 164.197 283.825 164.49C283.488 164.892 283.381 165.32 283.505 165.775C283.636 166.229 283.931 166.65 284.391 167.036ZM289.045 172.415L295.36 164.897L298.434 167.478C299.243 168.158 299.732 168.881 299.902 169.646C300.071 170.412 299.904 171.095 299.4 171.695C299.016 172.152 298.583 172.392 298.101 172.416C297.622 172.437 297.133 172.313 296.635 172.045C296.88 172.317 297.067 172.641 297.196 173.017C297.329 173.395 297.367 173.794 297.309 174.214C297.255 174.63 297.062 175.035 296.73 175.43C296.407 175.815 296.02 176.077 295.569 176.216C295.118 176.355 294.636 176.359 294.123 176.229C293.609 176.098 293.098 175.819 292.589 175.391L289.045 172.415ZM291.03 172.278L293.477 174.334C293.875 174.668 294.266 174.835 294.65 174.835C295.034 174.835 295.364 174.672 295.638 174.346C295.964 173.957 296.107 173.558 296.069 173.147C296.033 172.732 295.816 172.358 295.417 172.024L292.97 169.968L291.03 172.278ZM293.809 168.97L295.786 170.63C296.096 170.891 296.398 171.072 296.691 171.173C296.987 171.272 297.261 171.29 297.512 171.229C297.77 171.167 297.992 171.025 298.179 170.803C298.445 170.487 298.521 170.128 298.407 169.726C298.296 169.322 298.009 168.925 297.546 168.536L295.568 166.875L293.809 168.97ZM301.812 174.957L303.966 176.766C304.847 177.506 305.333 178.296 305.424 179.135C305.515 179.974 305.273 180.736 304.697 181.421C304.319 181.871 303.871 182.193 303.352 182.386C302.837 182.576 302.284 182.611 301.696 182.49C301.111 182.365 300.524 182.056 299.937 181.563L296.785 178.915L303.1 171.397L304.255 172.368L298.844 178.809L300.841 180.486C301.298 180.87 301.775 181.064 302.271 181.069C302.768 181.075 303.175 180.888 303.493 180.51C303.827 180.111 303.953 179.663 303.871 179.165C303.788 178.668 303.518 178.227 303.061 177.843L300.908 176.034L301.812 174.957ZM303.853 184.852L310.167 177.334L311.322 178.304L305.008 185.822L303.853 184.852ZM307.122 187.598L313.437 180.08L314.592 181.05L311.846 184.32L312.609 184.961L318.057 183.961L319.545 185.211L313.468 186.284L313.27 192.762L311.782 191.512L311.979 186.268L310.941 185.397L308.277 188.568L307.122 187.598ZM317.111 193.083L325.617 190.311L326.948 191.429L320.634 198.947L319.479 197.977L324.363 192.162L315.876 194.951L314.525 193.816L320.84 186.298L321.995 187.268L317.111 193.083Z" fill="#201C28"/>
<path d="M711.694 112.312C719.791 104.839 732.861 107.758 737.008 117.967C739.913 125.116 747.562 129.115 755.09 127.42L765.447 125.087C773.865 123.191 781.069 131.318 778.177 139.448C775.888 145.884 779.981 152.822 786.721 153.931L797.893 155.77C806.027 157.108 808.156 167.814 801.152 172.163C795.443 175.708 795.55 184.051 801.347 187.449L802.316 188.017C810.376 192.741 807.632 205.025 798.328 205.869L797.21 205.971C790.517 206.578 786.87 214.083 790.528 219.721C795.015 226.636 788.532 235.419 780.602 233.168L769.71 230.078C763.139 228.213 756.482 232.75 755.815 239.548C754.972 248.135 744.994 252.424 738.183 247.126L729.804 240.607C723.713 235.869 715.089 236.233 709.418 241.466C701.321 248.939 688.251 246.02 684.103 235.811C681.199 228.662 673.55 224.663 666.022 226.358L655.665 228.691C647.247 230.587 640.042 222.46 642.934 214.33C645.224 207.894 641.13 200.956 634.391 199.847L623.219 198.008C615.085 196.67 612.956 185.964 619.96 181.615C625.669 178.07 625.562 169.727 619.764 166.329L618.796 165.761C610.736 161.037 613.48 148.753 622.784 147.909L623.902 147.807C630.595 147.2 634.242 139.695 630.584 134.057C626.097 127.142 632.58 118.359 640.51 120.61L651.402 123.7C657.973 125.565 664.63 121.028 665.297 114.23C666.14 105.643 676.118 101.354 682.928 106.652L691.308 113.171C697.399 117.909 706.023 117.545 711.694 112.312Z" fill="#F2F2F2"/>
<path d="M659.658 152.107L656.804 164.883L655.257 164.537L657.804 153.134L651.366 151.696L648.819 163.099L647.272 162.753L650.126 149.978L659.658 152.107ZM663.573 166.605C662.708 166.412 661.995 166.036 661.434 165.479C660.877 164.922 660.498 164.233 660.298 163.411C660.101 162.589 660.114 161.684 660.335 160.694C660.558 159.696 660.933 158.865 661.462 158.202C661.994 157.539 662.63 157.074 663.371 156.807C664.116 156.542 664.921 156.505 665.786 156.698C666.651 156.892 667.362 157.267 667.919 157.823C668.48 158.381 668.858 159.072 669.054 159.898C669.253 160.724 669.242 161.636 669.019 162.634C668.797 163.624 668.421 164.448 667.89 165.107C667.363 165.766 666.727 166.229 665.982 166.495C665.241 166.761 664.438 166.798 663.573 166.605ZM663.868 165.282C664.525 165.429 665.104 165.381 665.603 165.139C666.103 164.897 666.516 164.525 666.842 164.021C667.168 163.518 667.403 162.946 667.546 162.305C667.689 161.665 667.721 161.045 667.641 160.447C667.56 159.848 667.346 159.331 666.998 158.895C666.65 158.459 666.148 158.168 665.491 158.021C664.834 157.874 664.255 157.924 663.754 158.17C663.254 158.416 662.84 158.793 662.513 159.301C662.185 159.809 661.95 160.383 661.807 161.023C661.664 161.664 661.633 162.281 661.714 162.875C661.795 163.47 662.01 163.983 662.359 164.415C662.708 164.846 663.211 165.136 663.868 165.282ZM668.57 170.394L669.49 166.276L670.289 166.455C670.53 166.295 670.747 166.112 670.942 165.906C671.136 165.701 671.322 165.448 671.498 165.146C671.679 164.842 671.86 164.463 672.04 164.01C672.221 163.553 672.415 162.996 672.623 162.339L673.795 158.619L679.883 159.979L678.049 168.188L679.521 168.517L678.602 172.635L677.129 172.306L677.743 169.561L670.656 167.978L670.043 170.722L668.57 170.394ZM671.961 166.828L676.577 167.859L678.104 161.022L674.86 160.298L674.07 162.662C673.742 163.641 673.418 164.488 673.097 165.202C672.776 165.916 672.397 166.458 671.961 166.828ZM691.224 158.74L691.772 159.805C691.418 160.023 691.037 160.145 690.629 160.172C690.221 160.199 689.773 160.171 689.285 160.088C688.797 160.005 688.255 159.91 687.659 159.803C686.988 159.68 686.401 159.719 685.897 159.921C685.394 160.123 684.96 160.48 684.597 160.993C684.233 161.505 683.926 162.166 683.676 162.974L683.801 163.002C684.259 162.476 684.806 162.135 685.444 161.981C686.081 161.826 686.728 161.822 687.385 161.969C688.133 162.136 688.768 162.462 689.289 162.945C689.81 163.428 690.168 164.051 690.364 164.816C690.56 165.58 690.546 166.465 690.321 167.472C690.097 168.474 689.725 169.299 689.205 169.947C688.689 170.596 688.066 171.046 687.338 171.298C686.614 171.547 685.824 171.576 684.967 171.384C684.11 171.193 683.405 170.824 682.85 170.276C682.297 169.725 681.93 169.01 681.751 168.131C681.573 167.249 681.615 166.217 681.879 165.036L682.108 164.013C682.584 161.879 683.308 160.342 684.278 159.402C685.252 158.462 686.473 158.137 687.941 158.425C688.46 158.524 688.921 158.623 689.322 158.721C689.724 158.819 690.079 158.879 690.389 158.9C690.699 158.922 690.977 158.868 691.224 158.74ZM685.263 170.062C685.841 170.191 686.37 170.156 686.851 169.958C687.336 169.761 687.75 169.423 688.093 168.945C688.436 168.463 688.688 167.862 688.849 167.143C689.005 166.444 689.023 165.824 688.904 165.282C688.789 164.741 688.551 164.295 688.188 163.943C687.826 163.591 687.351 163.35 686.765 163.219C686.337 163.123 685.936 163.11 685.562 163.18C685.189 163.249 684.85 163.398 684.545 163.627C684.241 163.856 683.977 164.159 683.752 164.537C683.532 164.916 683.36 165.366 683.234 165.889C682.995 166.962 683.054 167.877 683.414 168.634C683.773 169.391 684.389 169.867 685.263 170.062ZM695.379 173.71C694.514 173.517 693.801 173.142 693.24 172.584C692.683 172.027 692.304 171.338 692.104 170.516C691.907 169.695 691.92 168.789 692.141 167.8C692.364 166.802 692.739 165.971 693.267 165.307C693.8 164.644 694.436 164.18 695.177 163.913C695.922 163.647 696.727 163.611 697.592 163.804C698.457 163.997 699.168 164.372 699.725 164.929C700.286 165.486 700.664 166.178 700.859 167.003C701.059 167.829 701.047 168.742 700.824 169.74C700.603 170.729 700.227 171.554 699.696 172.212C699.168 172.872 698.532 173.334 697.787 173.6C697.047 173.867 696.244 173.904 695.379 173.71ZM695.674 172.388C696.331 172.535 696.91 172.487 697.409 172.245C697.908 172.003 698.321 171.63 698.648 171.127C698.974 170.623 699.209 170.051 699.352 169.411C699.495 168.77 699.527 168.151 699.446 167.552C699.366 166.953 699.152 166.436 698.804 166C698.456 165.565 697.954 165.273 697.296 165.127C696.639 164.98 696.061 165.029 695.56 165.276C695.06 165.522 694.646 165.899 694.319 166.406C693.991 166.914 693.756 167.488 693.613 168.129C693.47 168.769 693.439 169.387 693.52 169.981C693.601 170.576 693.816 171.089 694.165 171.52C694.514 171.952 695.017 172.241 695.674 172.388ZM701.21 178.576L704.153 165.401L705.575 165.719L705.235 167.241L705.41 167.28C705.555 167.138 705.753 166.959 706.001 166.744C706.255 166.525 706.586 166.355 706.993 166.232C707.406 166.106 707.924 166.112 708.548 166.252C709.355 166.432 710.021 166.792 710.546 167.333C711.072 167.874 711.424 168.553 711.604 169.371C711.784 170.188 711.761 171.1 711.536 172.107C711.31 173.121 710.941 173.962 710.429 174.63C709.919 175.293 709.312 175.76 708.61 176.031C707.908 176.298 707.158 176.342 706.36 176.164C705.744 176.026 705.274 175.814 704.949 175.528C704.626 175.237 704.393 174.938 704.252 174.632C704.112 174.321 704.008 174.066 703.938 173.867L703.814 173.839L702.682 178.905L701.21 178.576ZM704.53 170.515C704.368 171.239 704.332 171.901 704.42 172.501C704.51 173.098 704.724 173.597 705.061 174C705.4 174.399 705.865 174.664 706.455 174.796C707.071 174.934 707.621 174.886 708.105 174.654C708.594 174.418 709.005 174.047 709.336 173.541C709.673 173.031 709.917 172.435 710.07 171.753C710.22 171.079 710.252 170.449 710.165 169.861C710.083 169.271 709.869 168.771 709.524 168.362C709.184 167.95 708.702 167.674 708.078 167.535C707.479 167.401 706.942 167.441 706.466 167.653C705.992 167.862 705.59 168.213 705.262 168.707C704.934 169.197 704.69 169.8 704.53 170.515ZM717.658 178.478L719.799 168.896L721.271 169.225L720.34 173.392L721.313 173.61L725.688 170.212L727.584 170.635L722.685 174.388L725.493 180.228L723.597 179.805L721.356 175.06L720.033 174.765L719.13 178.807L717.658 178.478ZM727.239 184.391C726.989 184.335 726.772 184.265 726.585 184.18C726.398 184.098 726.271 184.031 726.205 183.977L726.869 182.763C727.206 182.934 727.515 183.038 727.795 183.074C728.075 183.111 728.346 183.042 728.607 182.869C728.872 182.701 729.148 182.394 729.435 181.947L729.877 181.26L728.486 170.837L730.083 171.194L731.022 179.42L731.122 179.442L735.472 172.398L737.069 172.754L730.549 182.825C730.256 183.279 729.937 183.638 729.595 183.902C729.251 184.17 728.883 184.343 728.49 184.422C728.101 184.501 727.684 184.49 727.239 184.391ZM736.069 186.364L739.013 173.189L740.435 173.506L740.095 175.028L740.27 175.067C740.415 174.925 740.612 174.747 740.861 174.531C741.115 174.313 741.446 174.142 741.853 174.02C742.265 173.893 742.783 173.9 743.407 174.039C744.214 174.22 744.88 174.58 745.406 175.121C745.931 175.662 746.284 176.341 746.463 177.159C746.643 177.976 746.621 178.888 746.396 179.894C746.169 180.909 745.8 181.75 745.289 182.417C744.778 183.081 744.171 183.548 743.469 183.819C742.768 184.085 742.018 184.13 741.219 183.951C740.604 183.814 740.134 183.602 739.809 183.315C739.485 183.025 739.253 182.726 739.112 182.419C738.972 182.109 738.867 181.854 738.798 181.655L738.673 181.627L737.541 186.693L736.069 186.364ZM739.39 178.303C739.228 179.026 739.191 179.689 739.28 180.289C739.369 180.885 739.583 181.385 739.921 181.788C740.26 182.187 740.724 182.452 741.315 182.584C741.93 182.722 742.48 182.674 742.964 182.442C743.454 182.206 743.864 181.835 744.196 181.328C744.532 180.818 744.777 180.222 744.929 179.54C745.08 178.867 745.111 178.236 745.024 177.649C744.942 177.059 744.728 176.559 744.383 176.15C744.043 175.738 743.561 175.462 742.937 175.323C742.338 175.189 741.801 175.228 741.326 175.441C740.851 175.649 740.45 176.001 740.121 176.495C739.793 176.985 739.549 177.588 739.39 178.303ZM751.425 186.231C750.527 186.031 749.8 185.646 749.246 185.077C748.692 184.507 748.324 183.812 748.141 182.989C747.958 182.167 747.973 181.277 748.187 180.321C748.404 179.347 748.775 178.529 749.299 177.864C749.828 177.196 750.462 176.724 751.2 176.448C751.944 176.169 752.748 176.126 753.613 176.319C754.287 176.47 754.866 176.73 755.351 177.101C755.836 177.471 756.201 177.919 756.446 178.445C756.69 178.972 756.788 179.544 756.737 180.161L755.265 179.832C755.25 179.37 755.087 178.928 754.775 178.505C754.469 178.078 753.991 177.792 753.343 177.647C752.769 177.519 752.232 177.556 751.733 177.759C751.238 177.959 750.81 178.302 750.448 178.789C750.091 179.272 749.832 179.876 749.67 180.6C749.505 181.34 749.477 182.01 749.588 182.611C749.702 183.213 749.939 183.714 750.3 184.113C750.665 184.514 751.138 184.779 751.72 184.909C752.103 184.994 752.465 185.005 752.807 184.942C753.148 184.878 753.455 184.746 753.727 184.545C753.999 184.344 754.22 184.079 754.39 183.75L755.862 184.079C755.652 184.626 755.333 185.089 754.903 185.469C754.478 185.846 753.968 186.107 753.372 186.254C752.781 186.397 752.132 186.389 751.425 186.231ZM761.238 188.423C760.373 188.23 759.66 187.855 759.099 187.297C758.542 186.741 758.163 186.051 757.963 185.229C757.766 184.408 757.779 183.503 758 182.513C758.223 181.515 758.598 180.684 759.126 180.02C759.659 179.358 760.295 178.893 761.036 178.626C761.781 178.36 762.586 178.324 763.451 178.517C764.316 178.71 765.027 179.085 765.584 179.642C766.145 180.2 766.523 180.891 766.718 181.716C766.918 182.542 766.906 183.455 766.683 184.453C766.462 185.443 766.086 186.267 765.555 186.925C765.027 187.585 764.391 188.047 763.646 188.313C762.906 188.58 762.103 188.617 761.238 188.423ZM761.533 187.101C762.19 187.248 762.769 187.2 763.268 186.958C763.767 186.716 764.18 186.343 764.507 185.84C764.833 185.336 765.068 184.764 765.211 184.124C765.354 183.483 765.386 182.864 765.305 182.265C765.225 181.667 765.011 181.149 764.663 180.714C764.315 180.278 763.812 179.986 763.155 179.84C762.498 179.693 761.92 179.743 761.419 179.989C760.919 180.235 760.505 180.612 760.178 181.12C759.85 181.627 759.615 182.201 759.472 182.842C759.329 183.482 759.298 184.1 759.379 184.694C759.46 185.289 759.675 185.802 760.024 186.233C760.373 186.665 760.876 186.954 761.533 187.101ZM767.871 189.696L770.012 180.114L773.93 180.989C774.961 181.22 775.728 181.635 776.232 182.237C776.735 182.838 776.901 183.522 776.73 184.287C776.6 184.869 776.326 185.282 775.91 185.525C775.494 185.764 775.003 185.879 774.437 185.871C774.78 186 775.095 186.201 775.383 186.475C775.675 186.75 775.893 187.087 776.035 187.485C776.178 187.88 776.194 188.328 776.081 188.832C775.972 189.322 775.749 189.733 775.413 190.064C775.077 190.395 774.651 190.621 774.135 190.742C773.619 190.862 773.037 190.85 772.388 190.705L767.871 189.696ZM769.57 188.661L772.689 189.357C773.196 189.471 773.62 189.439 773.961 189.262C774.302 189.085 774.519 188.788 774.612 188.372C774.723 187.877 774.666 187.457 774.442 187.11C774.219 186.759 773.854 186.526 773.347 186.413L770.228 185.716L769.57 188.661ZM770.512 184.444L773.032 185.007C773.427 185.095 773.778 185.117 774.085 185.072C774.393 185.022 774.645 184.913 774.84 184.742C775.04 184.569 775.172 184.341 775.235 184.058C775.325 183.654 775.228 183.301 774.942 182.997C774.657 182.689 774.219 182.469 773.629 182.337L771.108 181.774L770.512 184.444ZM665.42 187.071L671.692 180.691L673.389 181.07L671.248 190.652L669.776 190.323L671.432 182.912L665.185 189.298L663.463 188.913L665.604 179.331L667.076 179.66L665.42 187.071ZM684.572 191.533L689.61 184.694L691.007 185.006L684.725 193.663L683.527 193.395L681.6 182.905L682.972 183.211L684.572 191.533ZM682.498 183.105L680.358 192.687L678.886 192.358L681.026 182.776L682.498 183.105ZM687.894 194.371L690.034 184.789L691.506 185.118L689.366 194.7L687.894 194.371ZM696.034 196.399C695.11 196.193 694.359 195.811 693.781 195.254C693.207 194.693 692.822 194.005 692.625 193.188C692.432 192.368 692.446 191.467 692.665 190.485C692.884 189.504 693.257 188.679 693.781 188.01C694.311 187.338 694.946 186.864 695.684 186.588C696.428 186.309 697.232 186.266 698.097 186.459C698.596 186.571 699.07 186.764 699.52 187.039C699.969 187.314 700.352 187.683 700.667 188.147C700.984 188.606 701.192 189.168 701.293 189.832C701.393 190.497 701.344 191.276 701.144 192.17L701.005 192.794L693.618 191.144L693.903 189.871L699.792 191.187C699.912 190.646 699.912 190.139 699.791 189.667C699.673 189.195 699.444 188.793 699.104 188.459C698.768 188.126 698.334 187.901 697.802 187.782C697.215 187.651 696.675 187.683 696.182 187.878C695.694 188.07 695.283 188.372 694.952 188.782C694.62 189.193 694.395 189.662 694.277 190.19L694.087 191.039C693.926 191.762 693.913 192.404 694.05 192.963C694.193 193.518 694.459 193.978 694.85 194.34C695.241 194.698 695.734 194.944 696.329 195.076C696.716 195.163 697.077 195.187 697.413 195.148C697.754 195.107 698.064 195.001 698.342 194.832C698.621 194.658 698.86 194.419 699.059 194.114L700.392 194.831C700.135 195.28 699.788 195.648 699.353 195.935C698.919 196.218 698.419 196.404 697.853 196.491C697.289 196.575 696.682 196.544 696.034 196.399ZM709.919 193.554L709.612 194.926L704.322 193.745L704.629 192.372L709.919 193.554ZM705.898 188.333L703.757 197.915L702.285 197.586L704.426 188.004L705.898 188.333ZM711.962 189.688L709.821 199.27L708.349 198.941L710.489 189.359L711.962 189.688ZM713.04 191.369L713.347 189.997L721.132 191.736L720.825 193.109L717.681 192.406L715.847 200.616L714.375 200.287L716.209 192.077L713.04 191.369ZM724.489 202.756C723.624 202.563 722.911 202.187 722.35 201.63C721.794 201.073 721.415 200.384 721.214 199.562C721.018 198.741 721.03 197.835 721.251 196.845C721.474 195.847 721.85 195.016 722.378 194.353C722.91 193.69 723.547 193.225 724.288 192.959C725.033 192.693 725.838 192.656 726.703 192.85C727.568 193.043 728.279 193.418 728.835 193.975C729.396 194.532 729.775 195.224 729.97 196.049C730.17 196.875 730.158 197.787 729.935 198.785C729.714 199.775 729.338 200.599 728.806 201.258C728.279 201.917 727.643 202.38 726.898 202.646C726.157 202.913 725.354 202.949 724.489 202.756ZM724.785 201.434C725.442 201.58 726.02 201.533 726.52 201.291C727.019 201.049 727.432 200.676 727.759 200.172C728.085 199.669 728.32 199.097 728.463 198.456C728.606 197.816 728.637 197.196 728.557 196.598C728.477 195.999 728.263 195.482 727.915 195.046C727.567 194.61 727.064 194.319 726.407 194.172C725.75 194.025 725.171 194.075 724.671 194.321C724.17 194.568 723.757 194.945 723.429 195.452C723.102 195.96 722.867 196.534 722.724 197.174C722.581 197.815 722.55 198.432 722.631 199.027C722.712 199.621 722.927 200.134 723.276 200.566C723.625 200.998 724.128 201.287 724.785 201.434ZM730.32 207.622L733.264 194.447L734.686 194.764L734.346 196.286L734.521 196.325C734.666 196.183 734.863 196.005 735.112 195.79C735.366 195.571 735.697 195.401 736.104 195.278C736.517 195.151 737.035 195.158 737.659 195.297C738.465 195.478 739.131 195.838 739.657 196.379C740.182 196.92 740.535 197.599 740.715 198.417C740.894 199.234 740.872 200.146 740.647 201.152C740.42 202.167 740.051 203.008 739.54 203.675C739.029 204.339 738.423 204.806 737.72 205.077C737.019 205.343 736.269 205.388 735.47 205.209C734.855 205.072 734.385 204.86 734.06 204.573C733.736 204.283 733.504 203.984 733.363 203.677C733.223 203.367 733.118 203.112 733.049 202.913L732.924 202.885L731.793 207.951L730.32 207.622ZM733.641 199.561C733.479 200.285 733.443 200.947 733.531 201.547C733.621 202.143 733.834 202.643 734.172 203.046C734.511 203.445 734.976 203.71 735.566 203.842C736.182 203.98 736.732 203.932 737.216 203.7C737.705 203.464 738.115 203.093 738.447 202.586C738.784 202.076 739.028 201.48 739.18 200.798C739.331 200.125 739.363 199.494 739.275 198.907C739.193 198.317 738.98 197.817 738.634 197.408C738.294 196.996 737.812 196.72 737.188 196.581C736.59 196.447 736.052 196.486 735.577 196.699C735.103 196.907 734.701 197.259 734.372 197.753C734.044 198.243 733.801 198.846 733.641 199.561ZM744.598 207.275C743.99 207.139 743.465 206.901 743.021 206.562C742.578 206.219 742.26 205.796 742.066 205.294C741.874 204.788 741.847 204.224 741.987 203.6C742.109 203.051 742.317 202.63 742.609 202.337C742.903 202.04 743.252 201.835 743.657 201.72C744.063 201.605 744.495 201.549 744.953 201.551C745.416 201.55 745.876 201.57 746.334 201.611C746.933 201.666 747.418 201.715 747.788 201.759C748.163 201.799 748.445 201.79 748.633 201.731C748.825 201.674 748.947 201.526 749 201.289L749.011 201.239C749.149 200.624 749.087 200.108 748.826 199.692C748.57 199.276 748.103 198.993 747.425 198.841C746.722 198.684 746.136 198.715 745.668 198.934C745.2 199.152 744.846 199.418 744.606 199.731L743.32 198.92C743.7 198.394 744.134 198.015 744.622 197.783C745.116 197.548 745.624 197.422 746.148 197.403C746.677 197.382 747.182 197.425 747.665 197.533C747.972 197.602 748.318 197.718 748.7 197.882C749.088 198.043 749.444 198.277 749.768 198.585C750.096 198.895 750.334 199.304 750.483 199.813C750.631 200.322 750.62 200.957 750.45 201.718L749.04 208.031L747.567 207.702L747.857 206.405L747.782 206.388C747.636 206.574 747.42 206.759 747.134 206.944C746.848 207.129 746.493 207.261 746.069 207.341C745.645 207.421 745.155 207.399 744.598 207.275ZM745.118 206.002C745.7 206.132 746.216 206.128 746.667 205.988C747.121 205.849 747.491 205.622 747.775 205.306C748.064 204.99 748.253 204.633 748.342 204.234L748.643 202.886C748.564 202.947 748.411 202.985 748.185 203C747.965 203.012 747.712 203.01 747.427 202.994C747.147 202.976 746.875 202.954 746.61 202.93C746.349 202.902 746.138 202.881 745.975 202.867C745.582 202.831 745.206 202.832 744.848 202.87C744.495 202.905 744.192 203.01 743.939 203.185C743.691 203.356 743.526 203.629 743.442 204.004C743.328 204.515 743.431 204.944 743.751 205.291C744.076 205.634 744.531 205.871 745.118 206.002Z" fill="#201C28"/>
<path d="M958.789 1.15895C964.81 -0.100934 969.941 5.62309 968.033 11.4712L893.165 240.892C891.254 246.75 883.716 248.339 879.603 243.75L718.258 63.7542C714.145 59.1659 716.545 51.8459 722.576 50.584L958.789 1.15895Z" fill="#F2F2F2"/>
<path d="M810.998 88.6008L808.251 75.8012L809.801 75.4687L811.024 81.1685L817.849 79.7042L816.626 74.0043L818.176 73.6718L820.922 86.4714L819.372 86.8039L818.144 81.0791L811.319 82.5434L812.547 88.2683L810.998 88.6008ZM826.698 85.4674C826.09 85.5979 825.513 85.6018 824.968 85.479C824.423 85.3521 823.957 85.1011 823.571 84.7262C823.185 84.3471 822.925 83.8451 822.791 83.2201C822.673 82.6702 822.685 82.2011 822.829 81.813C822.971 81.4206 823.203 81.0877 823.523 80.8141C823.844 80.5405 824.212 80.3088 824.629 80.1191C825.049 79.9244 825.476 79.75 825.909 79.596C826.477 79.3959 826.937 79.2381 827.292 79.1229C827.65 79.0025 827.902 78.8766 828.048 78.745C828.198 78.6125 828.248 78.4275 828.197 78.19L828.186 78.14C828.054 77.5234 827.782 77.0804 827.371 76.8112C826.965 76.5411 826.422 76.4788 825.743 76.6246C825.038 76.7756 824.519 77.0483 824.186 77.4424C823.852 77.8365 823.641 78.226 823.554 78.6109L822.046 78.4113C822.171 77.7743 822.407 77.2487 822.754 76.8343C823.104 76.4148 823.513 76.0873 823.982 75.8518C824.453 75.6112 824.93 75.439 825.414 75.3353C825.722 75.2692 826.084 75.2307 826.5 75.2199C826.92 75.204 827.341 75.2683 827.764 75.4128C828.192 75.5565 828.579 75.8286 828.926 76.2291C829.274 76.6296 829.529 77.2111 829.693 77.9736L831.05 84.2984L829.575 84.6148L829.296 83.3149L829.221 83.331C829.166 83.5607 829.047 83.8194 828.865 84.107C828.682 84.3945 828.415 84.6632 828.064 84.913C827.712 85.1628 827.257 85.3476 826.698 85.4674ZM826.639 84.0942C827.222 83.969 827.69 83.7489 828.04 83.4339C828.395 83.1181 828.636 82.757 828.762 82.3507C828.893 81.9435 828.915 81.5399 828.83 81.1399L828.54 79.79C828.493 79.8784 828.371 79.9766 828.172 80.0847C827.976 80.1878 827.745 80.2917 827.48 80.3965C827.218 80.4963 826.962 80.5906 826.711 80.6793C826.463 80.763 826.262 80.8323 826.108 80.8871C825.735 81.0193 825.394 81.1774 825.085 81.3615C824.779 81.5404 824.548 81.7622 824.391 82.0268C824.238 82.2864 824.201 82.6037 824.282 82.9787C824.392 83.4912 824.664 83.838 825.1 84.0191C825.539 84.1952 826.052 84.2202 826.639 84.0942ZM842.635 82.0219C841.768 82.2079 840.963 82.1648 840.221 81.8927C839.482 81.6196 838.85 81.1516 838.324 80.4887C837.803 79.8248 837.436 78.997 837.223 78.0054C837.008 77.0054 837.002 76.0937 837.205 75.2701C837.411 74.4456 837.795 73.7574 838.357 73.2054C838.923 72.6526 839.639 72.2832 840.505 72.0973C841.372 71.9113 842.175 71.9548 842.913 72.2279C843.656 72.5 844.288 72.9701 844.811 73.6381C845.337 74.3053 845.708 75.1388 845.923 76.1388C846.135 77.1304 846.138 78.0364 845.93 78.8567C845.727 79.6761 845.343 80.3623 844.777 80.9151C844.215 81.4671 843.501 81.836 842.635 82.0219ZM842.35 80.697C843.009 80.5557 843.514 80.2708 843.867 79.8421C844.219 79.4134 844.439 78.9022 844.525 78.3084C844.611 77.7146 844.585 77.0969 844.448 76.4553C844.31 75.8136 844.08 75.2376 843.757 74.7273C843.434 74.2169 843.023 73.8365 842.525 73.586C842.026 73.3356 841.448 73.281 840.79 73.4222C840.131 73.5635 839.626 73.8505 839.275 74.2833C838.923 74.7162 838.704 75.2316 838.619 75.8295C838.534 76.4275 838.56 77.0473 838.698 77.6889C838.836 78.3306 839.065 78.9045 839.388 79.4107C839.71 79.9169 840.12 80.2931 840.617 80.5394C841.114 80.7857 841.692 80.8382 842.35 80.697ZM853.136 79.7688C852.236 79.9619 851.415 79.9157 850.674 79.6302C849.933 79.3446 849.308 78.8665 848.798 78.1958C848.288 77.5251 847.93 76.7106 847.724 75.7523C847.515 74.7773 847.509 73.8785 847.708 73.0558C847.909 72.228 848.288 71.5345 848.843 70.9751C849.402 70.4106 850.115 70.0354 850.982 69.8495C851.657 69.7047 852.292 69.6991 852.887 69.8329C853.482 69.9667 854.001 70.2215 854.443 70.5972C854.886 70.973 855.213 71.452 855.425 72.0341L853.95 72.3505C853.744 71.9372 853.411 71.6033 852.951 71.349C852.494 71.0896 851.941 71.0296 851.291 71.1691C850.716 71.2924 850.244 71.5506 849.875 71.9436C849.509 72.3315 849.264 72.8222 849.138 73.4157C849.016 74.0041 849.033 74.6608 849.188 75.3858C849.347 76.1274 849.603 76.7482 849.954 77.2481C850.31 77.7472 850.734 78.1027 851.229 78.3148C851.727 78.526 852.268 78.569 852.852 78.4438C853.235 78.3616 853.569 78.2203 853.853 78.0199C854.136 77.8195 854.36 77.5711 854.523 77.2746C854.686 76.9782 854.776 76.6451 854.792 76.2754L856.267 75.959C856.305 76.5435 856.209 77.0981 855.977 77.6229C855.749 78.1426 855.394 78.5935 854.914 78.9755C854.437 79.3524 853.844 79.6168 853.136 79.7688ZM864.274 71.4429L864.569 72.8179L859.269 73.955L858.974 72.58L864.274 71.4429ZM858.439 68.3801L860.499 77.9798L859.024 78.2962L856.964 68.6965L858.439 68.3801ZM864.514 67.0767L866.574 76.6764L865.099 76.9928L863.039 67.3931L864.514 67.0767ZM873.21 75.4617C872.344 75.6476 871.539 75.6045 870.796 75.3324C870.058 75.0593 869.426 74.5913 868.9 73.9284C868.378 73.2645 868.011 72.4368 867.798 71.4451C867.584 70.4451 867.578 69.5334 867.78 68.7098C867.987 67.8853 868.371 67.1971 868.933 66.6451C869.498 66.0923 870.214 65.7229 871.081 65.537C871.948 65.351 872.75 65.3946 873.489 65.6676C874.231 65.9397 874.864 66.4098 875.386 67.0778C875.913 67.745 876.284 68.5785 876.498 69.5785C876.711 70.5701 876.714 71.4761 876.506 72.2964C876.303 73.1158 875.918 73.802 875.353 74.3548C874.791 74.9068 874.077 75.2757 873.21 75.4617ZM872.926 74.1367C873.584 73.9955 874.09 73.7105 874.442 73.2818C874.795 72.8531 875.014 72.3419 875.101 71.7481C875.187 71.1543 875.161 70.5366 875.023 69.895C874.886 69.2533 874.655 68.6773 874.332 68.167C874.009 67.6566 873.598 67.2762 873.1 67.0258C872.602 66.7753 872.024 66.7207 871.365 66.8619C870.707 67.0032 870.202 67.2902 869.85 67.7231C869.499 68.1559 869.28 68.6713 869.195 69.2692C869.11 69.8672 869.136 70.487 869.273 71.1286C869.411 71.7703 869.641 72.3442 869.963 72.8504C870.285 73.3566 870.695 73.7328 871.193 73.9791C871.69 74.2254 872.268 74.2779 872.926 74.1367ZM879.769 73.8453L877.709 64.2456L881.634 63.4035C882.667 63.1818 883.538 63.239 884.247 63.5751C884.955 63.9112 885.392 64.4626 885.556 65.2293C885.681 65.8126 885.605 66.3017 885.328 66.6968C885.05 67.0876 884.653 67.3974 884.135 67.6261C884.5 67.6001 884.871 67.6514 885.247 67.7799C885.627 67.9074 885.965 68.1225 886.261 68.4251C886.556 68.7236 886.758 69.1249 886.866 69.629C886.972 70.1207 886.941 70.5871 886.774 71.0282C886.607 71.4693 886.315 71.8524 885.896 72.1776C885.478 72.5027 884.944 72.735 884.294 72.8744L879.769 73.8453ZM880.879 72.1949L884.004 71.5245C884.512 71.4154 884.884 71.2092 885.12 70.9059C885.356 70.6025 885.429 70.2425 885.339 69.8259C885.233 69.33 885.006 68.9713 884.657 68.7497C884.308 68.5239 883.879 68.4655 883.371 68.5746L880.246 69.245L880.879 72.1949ZM879.973 67.9701L882.498 67.4283C882.893 67.3434 883.221 67.2164 883.481 67.0473C883.741 66.874 883.923 66.6692 884.03 66.4328C884.139 66.1914 884.163 65.929 884.103 65.6457C884.016 65.2416 883.779 64.9611 883.392 64.8044C883.005 64.6435 882.515 64.6265 881.924 64.7534L879.399 65.2952L879.973 67.9701ZM893.719 71.0613C892.794 71.2598 891.952 71.2268 891.194 70.9624C890.439 70.693 889.801 70.2284 889.28 69.5687C888.763 68.9039 888.399 68.0799 888.188 67.0966C887.977 66.1133 887.97 65.2082 888.167 64.3813C888.368 63.5494 888.746 62.8538 889.302 62.2944C889.86 61.7299 890.573 61.3547 891.44 61.1688C891.94 61.0615 892.451 61.0389 892.975 61.101C893.498 61.1631 894 61.3387 894.48 61.6278C894.96 61.9128 895.384 62.3361 895.753 62.8976C896.122 63.4592 896.402 64.1878 896.594 65.0836L896.729 65.7086L889.329 67.2963L889.055 66.0213L894.955 64.7555C894.839 64.2138 894.627 63.7537 894.319 63.3752C894.015 62.9959 893.639 62.7257 893.191 62.5648C892.746 62.403 892.257 62.3793 891.724 62.4938C891.137 62.6198 890.659 62.8747 890.293 63.2584C889.93 63.6371 889.683 64.0823 889.553 64.5939C889.423 65.1056 889.415 65.626 889.528 66.1551L889.711 67.0051C889.866 67.7301 890.123 68.3178 890.481 68.7684C890.843 69.2138 891.277 69.5195 891.783 69.6854C892.288 69.8472 892.839 69.8642 893.435 69.7364C893.822 69.6532 894.161 69.524 894.45 69.3486C894.742 69.1681 894.98 68.9429 895.161 68.6729C895.342 68.3988 895.459 68.0816 895.513 67.7215L897.024 67.8157C896.977 68.3312 896.817 68.8103 896.541 69.2529C896.265 69.6914 895.888 70.0686 895.411 70.3845C894.933 70.6963 894.369 70.9219 893.719 71.0613ZM832.751 97.8306L832.456 96.4557L840.256 94.7822L840.551 96.1571L837.401 96.833L839.166 105.058L837.691 105.374L835.926 97.1494L832.751 97.8306ZM844.467 103.92L842.408 94.3205L846.333 93.4784C847.366 93.2567 848.237 93.3139 848.945 93.6501C849.654 93.9862 850.09 94.5376 850.255 95.3042C850.38 95.8875 850.304 96.3767 850.027 96.7717C849.749 97.1626 849.351 97.4724 848.834 97.7011C849.199 97.6751 849.569 97.7263 849.945 97.8548C850.326 97.9824 850.664 98.1975 850.96 98.5001C851.255 98.7985 851.457 99.1998 851.565 99.704C851.67 100.196 851.639 100.662 851.473 101.103C851.306 101.544 851.013 101.927 850.595 102.253C850.176 102.578 849.642 102.81 848.992 102.949L844.467 103.92ZM845.578 102.27L848.703 101.599C849.211 101.49 849.583 101.284 849.819 100.981C850.054 100.677 850.127 100.317 850.038 99.9008C849.932 99.405 849.704 99.0463 849.356 98.8246C849.007 98.5988 848.578 98.5405 848.07 98.6495L844.945 99.32L845.578 102.27ZM844.671 98.045L847.196 97.5033C847.592 97.4184 847.92 97.2913 848.18 97.1222C848.439 96.9489 848.622 96.7441 848.728 96.5078C848.838 96.2664 848.862 96.004 848.801 95.7207C848.714 95.3165 848.478 95.0361 848.091 94.8793C847.703 94.7184 847.214 94.7014 846.622 94.8284L844.097 95.3701L844.671 98.045ZM858.293 101.163C857.426 101.349 856.621 101.306 855.879 101.034C855.14 100.761 854.508 100.293 853.982 99.6298C853.461 98.9659 853.094 98.1382 852.881 97.1465C852.666 96.1466 852.66 95.2348 852.863 94.4112C853.069 93.5867 853.453 92.8985 854.015 92.3466C854.58 91.7937 855.297 91.4243 856.163 91.2384C857.03 91.0525 857.832 91.096 858.571 91.369C859.314 91.6412 859.946 92.1112 860.469 92.7793C860.995 93.4464 861.366 94.28 861.581 95.2799C861.793 96.2716 861.796 97.1776 861.588 97.9979C861.385 98.8173 861 99.5034 860.435 100.056C859.873 100.608 859.159 100.977 858.293 101.163ZM858.008 99.8381C858.667 99.6969 859.172 99.4119 859.525 98.9833C859.877 98.5546 860.097 98.0433 860.183 97.4496C860.269 96.8558 860.243 96.2381 860.106 95.5964C859.968 94.9548 859.738 94.3788 859.414 93.8684C859.091 93.3581 858.681 92.9777 858.182 92.7272C857.684 92.4767 857.106 92.4221 856.448 92.5634C855.789 92.7046 855.284 92.9916 854.933 93.4245C854.581 93.8573 854.362 94.3727 854.277 94.9707C854.192 95.5686 854.218 96.1884 854.356 96.8301C854.493 97.4717 854.723 98.0456 855.045 98.5518C855.368 99.058 855.777 99.4342 856.275 99.6805C856.772 99.9269 857.35 99.9794 858.008 99.8381ZM865.859 97.0553L868.891 88.6382L870.591 88.2735L872.651 97.8732L871.176 98.1897L869.583 90.7649L866.576 99.1766L864.851 99.5467L862.791 89.947L864.266 89.6305L865.859 97.0553ZM874.393 87.4579L877.535 90.8893L878.992 86.4709L880.692 86.1062L878.622 91.5711L882.752 95.7059L881.052 96.0706L877.953 92.8392L876.452 97.0576L874.752 97.4223L876.772 91.9681L872.693 87.8226L874.393 87.4579ZM827.426 133.843L824.594 120.643L826.019 120.338L826.346 121.863L826.521 121.825C826.594 121.635 826.698 121.39 826.834 121.091C826.974 120.786 827.203 120.493 827.522 120.211C827.844 119.924 828.317 119.714 828.942 119.58C829.75 119.406 830.506 119.455 831.21 119.727C831.913 119.999 832.517 120.469 833.022 121.136C833.527 121.804 833.888 122.642 834.104 123.65C834.322 124.666 834.338 125.585 834.152 126.405C833.966 127.221 833.61 127.898 833.085 128.438C832.559 128.974 831.896 129.327 831.096 129.499C830.48 129.631 829.964 129.635 829.55 129.511C829.134 129.382 828.798 129.208 828.542 128.988C828.285 128.764 828.083 128.577 827.937 128.425L827.812 128.452L828.901 133.526L827.426 133.843ZM827.074 125.132C827.229 125.857 827.473 126.474 827.804 126.982C828.135 127.487 828.538 127.851 829.013 128.076C829.487 128.297 830.021 128.344 830.612 128.217C831.229 128.085 831.709 127.812 832.051 127.398C832.397 126.98 832.615 126.471 832.704 125.872C832.797 125.268 832.77 124.625 832.624 123.941C832.479 123.266 832.244 122.68 831.92 122.183C831.598 121.681 831.195 121.317 830.711 121.09C830.229 120.857 829.676 120.808 829.051 120.942C828.451 121.071 827.98 121.331 827.637 121.723C827.293 122.111 827.075 122.597 826.983 123.184C826.89 123.766 826.92 124.415 827.074 125.132ZM841.446 127.278C840.521 127.477 839.679 127.444 838.921 127.179C838.166 126.91 837.528 126.445 837.007 125.786C836.49 125.121 836.126 124.297 835.915 123.314C835.704 122.33 835.697 121.425 835.894 120.598C836.095 119.766 836.473 119.071 837.029 118.511C837.587 117.947 838.3 117.572 839.167 117.386C839.667 117.279 840.178 117.256 840.702 117.318C841.225 117.38 841.727 117.556 842.207 117.845C842.687 118.13 843.111 118.553 843.48 119.115C843.849 119.676 844.129 120.405 844.321 121.301L844.456 121.926L837.056 123.513L836.782 122.238L842.682 120.973C842.566 120.431 842.354 119.971 842.046 119.592C841.742 119.213 841.366 118.943 840.918 118.782C840.473 118.62 839.984 118.596 839.451 118.711C838.863 118.837 838.386 119.092 838.02 119.476C837.657 119.854 837.41 120.299 837.28 120.811C837.15 121.323 837.142 121.843 837.255 122.372L837.438 123.222C837.593 123.947 837.85 124.535 838.208 124.985C838.57 125.431 839.004 125.737 839.51 125.903C840.015 126.064 840.566 126.081 841.162 125.953C841.549 125.87 841.888 125.741 842.177 125.566C842.469 125.385 842.707 125.16 842.888 124.89C843.069 124.616 843.186 124.299 843.24 123.939L844.751 124.033C844.704 124.548 844.544 125.027 844.268 125.47C843.992 125.908 843.615 126.286 843.138 126.602C842.66 126.913 842.096 127.139 841.446 127.278ZM846.496 123.423L848.071 123.085C848.197 123.511 848.464 123.798 848.87 123.946C849.281 124.094 849.776 124.105 850.355 123.981C850.947 123.854 851.427 123.624 851.796 123.293C852.164 122.956 852.29 122.515 852.173 121.97C852.104 121.649 851.965 121.387 851.755 121.183C851.545 120.975 851.282 120.836 850.966 120.764C850.65 120.692 850.296 120.699 849.904 120.783L848.254 121.137L847.97 119.812L849.62 119.458C850.208 119.332 850.612 119.105 850.834 118.779C851.06 118.451 851.131 118.088 851.045 117.688C850.953 117.259 850.727 116.947 850.367 116.754C850.007 116.557 849.547 116.518 848.989 116.638C848.427 116.759 847.985 116.987 847.665 117.321C847.343 117.652 847.215 118.017 847.279 118.417L845.729 118.75C845.635 118.23 845.695 117.739 845.91 117.279C846.124 116.815 846.466 116.415 846.934 116.079C847.401 115.739 847.968 115.497 848.635 115.354C849.31 115.209 849.921 115.203 850.468 115.334C851.018 115.46 851.472 115.696 851.829 116.042C852.19 116.383 852.425 116.808 852.534 117.316C852.65 117.858 852.592 118.328 852.359 118.726C852.127 119.125 851.796 119.444 851.368 119.684L851.39 119.784C851.758 119.731 852.097 119.78 852.409 119.932C852.723 120.078 852.991 120.301 853.213 120.602C853.434 120.899 853.587 121.248 853.673 121.648C853.798 122.231 853.751 122.773 853.531 123.273C853.311 123.77 852.953 124.195 852.458 124.55C851.962 124.9 851.365 125.15 850.665 125.3C849.985 125.446 849.353 125.466 848.769 125.361C848.183 125.251 847.689 125.032 847.288 124.704C846.889 124.372 846.625 123.944 846.496 123.423ZM858.041 127.274C857.791 127.328 857.563 127.355 857.359 127.355C857.155 127.36 857.011 127.351 856.928 127.33L857.024 125.949C857.402 125.964 857.726 125.93 857.996 125.846C858.265 125.762 858.483 125.586 858.648 125.32C858.818 125.057 858.94 124.662 859.015 124.136L859.129 123.327L853.509 114.439L855.109 114.096L859.4 121.177L859.5 121.156L860.508 112.938L862.108 112.594L860.394 124.468C860.317 125.003 860.178 125.462 859.977 125.846C859.776 126.233 859.514 126.544 859.19 126.779C858.87 127.014 858.487 127.179 858.041 127.274ZM864.457 122.132L864.162 120.757L864.512 120.682C864.8 120.62 865.027 120.513 865.195 120.359C865.361 120.201 865.472 119.966 865.527 119.653C865.585 119.336 865.59 118.912 865.542 118.382C865.497 117.847 865.403 117.174 865.259 116.364L864.522 112.076L870.922 110.703L872.982 120.303L871.507 120.619L869.742 112.395L866.217 113.151L866.802 116.608C866.938 117.403 867.016 118.112 867.036 118.735C867.06 119.353 867.007 119.887 866.877 120.338C866.751 120.788 866.533 121.153 866.223 121.433C865.912 121.713 865.49 121.91 864.957 122.025L864.457 122.132ZM875.649 113.324L878.399 112.734C879.524 112.492 880.445 112.593 881.164 113.036C881.882 113.479 882.335 114.138 882.523 115.013C882.646 115.588 882.625 116.14 882.459 116.668C882.293 117.192 881.981 117.649 881.524 118.039C881.067 118.424 880.463 118.698 879.713 118.859L875.688 119.722L873.628 110.123L875.103 109.806L876.868 118.031L879.418 117.484C880.001 117.359 880.447 117.102 880.756 116.713C881.065 116.324 881.168 115.888 881.064 115.405C880.955 114.896 880.678 114.522 880.235 114.282C879.791 114.041 879.277 113.984 878.694 114.109L875.944 114.699L875.649 113.324ZM882.122 109.738L881.827 108.364L889.626 106.69L889.921 108.065L886.771 108.741L888.536 116.966L887.061 117.282L885.296 109.057L882.122 109.738ZM896.212 115.554C895.604 115.684 895.027 115.688 894.482 115.566C893.936 115.439 893.471 115.188 893.085 114.813C892.699 114.434 892.439 113.932 892.304 113.307C892.186 112.757 892.199 112.288 892.342 111.899C892.485 111.507 892.716 111.174 893.037 110.901C893.357 110.627 893.726 110.395 894.143 110.206C894.563 110.011 894.99 109.837 895.423 109.683C895.99 109.482 896.451 109.325 896.806 109.209C897.163 109.089 897.415 108.963 897.561 108.832C897.712 108.699 897.761 108.514 897.71 108.277L897.7 108.227C897.567 107.61 897.296 107.167 896.885 106.898C896.478 106.628 895.936 106.565 895.256 106.711C894.552 106.862 894.033 107.135 893.699 107.529C893.366 107.923 893.155 108.313 893.068 108.697L891.56 108.498C891.685 107.861 891.921 107.335 892.268 106.921C892.618 106.501 893.027 106.174 893.495 105.938C893.967 105.698 894.444 105.526 894.927 105.422C895.236 105.356 895.598 105.317 896.014 105.306C896.433 105.291 896.855 105.355 897.278 105.499C897.705 105.643 898.093 105.915 898.44 106.316C898.788 106.716 899.043 107.298 899.207 108.06L900.564 114.385L899.089 114.701L898.81 113.401L898.735 113.417C898.68 113.647 898.561 113.906 898.379 114.194C898.196 114.481 897.929 114.75 897.577 115C897.226 115.249 896.771 115.434 896.212 115.554ZM896.153 114.181C896.736 114.056 897.203 113.835 897.554 113.52C897.909 113.205 898.15 112.844 898.276 112.437C898.407 112.03 898.429 111.626 898.343 111.226L898.054 109.877C898.007 109.965 897.885 110.063 897.685 110.171C897.49 110.274 897.259 110.378 896.994 110.483C896.732 110.583 896.476 110.677 896.224 110.766C895.977 110.85 895.776 110.919 895.622 110.974C895.249 111.106 894.908 111.264 894.599 111.448C894.293 111.627 894.062 111.849 893.905 112.113C893.752 112.373 893.715 112.69 893.796 113.065C893.905 113.578 894.178 113.925 894.614 114.106C895.052 114.282 895.566 114.307 896.153 114.181ZM852.234 138.652L851.939 137.277L859.739 135.603L860.034 136.978L856.884 137.654L858.649 145.879L857.174 146.195L855.409 137.971L852.234 138.652ZM867.394 144.212C866.528 144.398 865.723 144.354 864.98 144.082C864.242 143.809 863.61 143.341 863.084 142.678C862.562 142.014 862.195 141.187 861.982 140.195C861.768 139.195 861.762 138.283 861.964 137.46C862.171 136.635 862.555 135.947 863.116 135.395C863.682 134.842 864.398 134.473 865.265 134.287C866.132 134.101 866.934 134.145 867.673 134.418C868.415 134.69 869.048 135.16 869.57 135.828C870.097 136.495 870.468 137.329 870.682 138.328C870.895 139.32 870.898 140.226 870.69 141.046C870.487 141.866 870.102 142.552 869.536 143.105C868.975 143.657 868.261 144.026 867.394 144.212ZM867.11 142.887C867.768 142.745 868.274 142.46 868.626 142.032C868.979 141.603 869.198 141.092 869.284 140.498C869.371 139.904 869.345 139.287 869.207 138.645C869.07 138.003 868.839 137.427 868.516 136.917C868.193 136.407 867.782 136.026 867.284 135.776C866.786 135.525 866.207 135.471 865.549 135.612C864.891 135.753 864.386 136.04 864.034 136.473C863.682 136.906 863.464 137.421 863.379 138.019C863.293 138.617 863.32 139.237 863.457 139.879C863.595 140.52 863.825 141.094 864.147 141.6C864.469 142.107 864.879 142.483 865.376 142.729C865.874 142.975 866.452 143.028 867.11 142.887ZM873.953 142.595L871.893 132.996L875.818 132.153C876.851 131.932 877.722 131.989 878.431 132.325C879.139 132.661 879.575 133.213 879.74 133.979C879.865 134.563 879.789 135.052 879.512 135.447C879.234 135.838 878.837 136.147 878.319 136.376C878.684 136.35 879.055 136.401 879.431 136.53C879.811 136.657 880.149 136.873 880.445 137.175C880.74 137.474 880.942 137.875 881.05 138.379C881.156 138.871 881.125 139.337 880.958 139.778C880.791 140.219 880.499 140.602 880.08 140.928C879.662 141.253 879.128 141.485 878.478 141.624L873.953 142.595ZM875.063 140.945L878.188 140.274C878.696 140.165 879.068 139.959 879.304 139.656C879.54 139.352 879.613 138.993 879.523 138.576C879.417 138.08 879.19 137.721 878.841 137.5C878.492 137.274 878.063 137.215 877.555 137.325L874.43 137.995L875.063 140.945ZM874.157 136.72L876.682 136.178C877.077 136.093 877.405 135.966 877.665 135.797C877.925 135.624 878.107 135.419 878.213 135.183C878.323 134.941 878.347 134.679 878.286 134.396C878.2 133.992 877.963 133.711 877.576 133.554C877.189 133.393 876.699 133.376 876.108 133.503L873.583 134.045L874.157 136.72Z" fill="#201C28"/>
</svg>
