<svg width="968" height="345" viewBox="0 0 968 345" fill="none" xmlns="http://www.w3.org/2000/svg">
<path d="M226.051 199.631C226.051 200.184 226.498 200.631 227.051 200.631C227.603 200.631 228.051 200.184 228.051 199.631H226.051ZM228.051 203.331C228.051 202.779 227.603 202.331 227.051 202.331C226.498 202.331 226.051 202.779 226.051 203.331H228.051ZM226.051 207.031C226.051 207.584 226.498 208.031 227.051 208.031C227.603 208.031 228.051 207.584 228.051 207.031H226.051ZM228.051 210.731C228.051 210.179 227.603 209.731 227.051 209.731C226.498 209.731 226.051 210.179 226.051 210.731H228.051ZM226.051 214.431C226.051 214.984 226.498 215.431 227.051 215.431C227.603 215.431 228.051 214.984 228.051 214.431H226.051ZM228.051 218.131C228.051 217.579 227.603 217.131 227.051 217.131C226.498 217.131 226.051 217.579 226.051 218.131H228.051ZM226.051 221.831C226.051 222.384 226.498 222.831 227.051 222.831C227.603 222.831 228.051 222.384 228.051 221.831H226.051ZM228.051 225.531C228.051 224.979 227.603 224.531 227.051 224.531C226.498 224.531 226.051 224.979 226.051 225.531H228.051ZM226.051 229.231C226.051 229.784 226.498 230.231 227.051 230.231C227.603 230.231 228.051 229.784 228.051 229.231H226.051ZM228.051 232.931C228.051 232.379 227.603 231.931 227.051 231.931C226.498 231.931 226.051 232.379 226.051 232.931H228.051ZM226.051 197.781V199.631H228.051V197.781H226.051ZM226.051 203.331V207.031H228.051V203.331H226.051ZM226.051 210.731V214.431H228.051V210.731H226.051ZM226.051 218.131V221.831H228.051V218.131H226.051ZM226.051 225.531V229.231H228.051V225.531H226.051ZM226.051 232.931V234.781H228.051V232.931H226.051Z" fill="#F4F0FF"/>
<rect x="148.051" y="243.781" width="158" height="48" rx="24" fill="#F4F0FF"/>
<path d="M182.375 264.781V256.054H185.324C186.009 256.054 186.568 256.178 187.003 256.425C187.441 256.669 187.764 257 187.975 257.418C188.185 257.835 188.29 258.301 188.29 258.815C188.29 259.33 188.185 259.797 187.975 260.217C187.767 260.638 187.446 260.973 187.012 261.223C186.577 261.47 186.02 261.594 185.341 261.594H183.227V260.656H185.307C185.776 260.656 186.152 260.575 186.436 260.413C186.72 260.251 186.926 260.033 187.054 259.757C187.185 259.479 187.25 259.165 187.25 258.815C187.25 258.466 187.185 258.153 187.054 257.878C186.926 257.602 186.719 257.386 186.432 257.23C186.145 257.071 185.764 256.991 185.29 256.991H183.432V264.781H182.375ZM191.782 264.935C191.367 264.935 190.991 264.857 190.653 264.7C190.315 264.541 190.046 264.312 189.847 264.014C189.649 263.713 189.549 263.349 189.549 262.923C189.549 262.548 189.623 262.244 189.771 262.011C189.919 261.776 190.116 261.591 190.363 261.457C190.61 261.324 190.883 261.224 191.181 261.159C191.482 261.091 191.785 261.037 192.089 260.997C192.487 260.946 192.809 260.908 193.056 260.882C193.306 260.854 193.488 260.807 193.602 260.741C193.718 260.676 193.776 260.562 193.776 260.401V260.366C193.776 259.946 193.661 259.619 193.431 259.386C193.204 259.153 192.859 259.037 192.396 259.037C191.916 259.037 191.539 259.142 191.267 259.352C190.994 259.562 190.802 259.787 190.691 260.026L189.737 259.685C189.907 259.287 190.134 258.977 190.419 258.756C190.705 258.531 191.018 258.375 191.356 258.287C191.697 258.196 192.032 258.151 192.362 258.151C192.572 258.151 192.813 258.176 193.086 258.227C193.362 258.276 193.627 258.376 193.883 258.53C194.142 258.683 194.356 258.915 194.526 259.224C194.697 259.534 194.782 259.949 194.782 260.469V264.781H193.776V263.895H193.725C193.657 264.037 193.544 264.189 193.384 264.351C193.225 264.513 193.014 264.651 192.749 264.764C192.485 264.878 192.163 264.935 191.782 264.935ZM191.936 264.031C192.333 264.031 192.669 263.953 192.941 263.797C193.217 263.641 193.424 263.439 193.563 263.192C193.705 262.945 193.776 262.685 193.776 262.412V261.491C193.734 261.543 193.64 261.589 193.495 261.632C193.353 261.672 193.188 261.707 193.001 261.739C192.816 261.767 192.636 261.793 192.46 261.815C192.286 261.835 192.146 261.852 192.038 261.866C191.776 261.901 191.532 261.956 191.305 262.033C191.08 262.107 190.899 262.219 190.759 262.369C190.623 262.517 190.555 262.719 190.555 262.974C190.555 263.324 190.684 263.588 190.943 263.767C191.204 263.943 191.535 264.031 191.936 264.031ZM199.277 264.918C198.663 264.918 198.135 264.773 197.692 264.483C197.248 264.193 196.907 263.794 196.669 263.286C196.43 262.777 196.311 262.196 196.311 261.543C196.311 260.878 196.433 260.291 196.677 259.783C196.925 259.271 197.268 258.872 197.709 258.585C198.152 258.295 198.669 258.151 199.26 258.151C199.72 258.151 200.135 258.236 200.504 258.406C200.873 258.577 201.176 258.815 201.412 259.122C201.648 259.429 201.794 259.787 201.851 260.196H200.845C200.768 259.898 200.598 259.634 200.334 259.403C200.072 259.17 199.72 259.054 199.277 259.054C198.885 259.054 198.541 259.156 198.246 259.361C197.953 259.562 197.724 259.848 197.559 260.217C197.398 260.584 197.317 261.014 197.317 261.509C197.317 262.014 197.396 262.455 197.555 262.83C197.717 263.205 197.944 263.496 198.237 263.703C198.532 263.911 198.879 264.014 199.277 264.014C199.538 264.014 199.775 263.969 199.988 263.878C200.202 263.787 200.382 263.656 200.53 263.486C200.677 263.315 200.782 263.111 200.845 262.872H201.851C201.794 263.259 201.653 263.607 201.429 263.916C201.207 264.223 200.913 264.467 200.547 264.649C200.183 264.828 199.76 264.918 199.277 264.918ZM205.98 264.918C205.366 264.918 204.838 264.773 204.395 264.483C203.952 264.193 203.611 263.794 203.372 263.286C203.133 262.777 203.014 262.196 203.014 261.543C203.014 260.878 203.136 260.291 203.381 259.783C203.628 259.271 203.971 258.872 204.412 258.585C204.855 258.295 205.372 258.151 205.963 258.151C206.423 258.151 206.838 258.236 207.207 258.406C207.577 258.577 207.879 258.815 208.115 259.122C208.351 259.429 208.497 259.787 208.554 260.196H207.548C207.471 259.898 207.301 259.634 207.037 259.403C206.775 259.17 206.423 259.054 205.98 259.054C205.588 259.054 205.244 259.156 204.949 259.361C204.656 259.562 204.427 259.848 204.263 260.217C204.101 260.584 204.02 261.014 204.02 261.509C204.02 262.014 204.099 262.455 204.258 262.83C204.42 263.205 204.648 263.496 204.94 263.703C205.236 263.911 205.582 264.014 205.98 264.014C206.241 264.014 206.479 263.969 206.692 263.878C206.905 263.787 207.085 263.656 207.233 263.486C207.381 263.315 207.486 263.111 207.548 262.872H208.554C208.497 263.259 208.356 263.607 208.132 263.916C207.91 264.223 207.616 264.467 207.25 264.649C206.886 264.828 206.463 264.918 205.98 264.918ZM210.024 264.781V258.236H211.03V261.082H211.694L214.047 258.236H215.342L212.7 261.389L215.376 264.781H214.081L211.933 262.02H211.03V264.781H210.024ZM218.395 264.935C217.981 264.935 217.604 264.857 217.266 264.7C216.928 264.541 216.66 264.312 216.461 264.014C216.262 263.713 216.162 263.349 216.162 262.923C216.162 262.548 216.236 262.244 216.384 262.011C216.532 261.776 216.729 261.591 216.976 261.457C217.224 261.324 217.496 261.224 217.795 261.159C218.096 261.091 218.398 261.037 218.702 260.997C219.1 260.946 219.422 260.908 219.67 260.882C219.92 260.854 220.101 260.807 220.215 260.741C220.331 260.676 220.39 260.562 220.39 260.401V260.366C220.39 259.946 220.275 259.619 220.045 259.386C219.817 259.153 219.472 259.037 219.009 259.037C218.529 259.037 218.153 259.142 217.88 259.352C217.607 259.562 217.415 259.787 217.305 260.026L216.35 259.685C216.52 259.287 216.748 258.977 217.032 258.756C217.319 258.531 217.631 258.375 217.969 258.287C218.31 258.196 218.645 258.151 218.975 258.151C219.185 258.151 219.427 258.176 219.699 258.227C219.975 258.276 220.241 258.376 220.496 258.53C220.755 258.683 220.969 258.915 221.14 259.224C221.31 259.534 221.395 259.949 221.395 260.469V264.781H220.39V263.895H220.339C220.27 264.037 220.157 264.189 219.998 264.351C219.839 264.513 219.627 264.651 219.363 264.764C219.099 264.878 218.776 264.935 218.395 264.935ZM218.549 264.031C218.947 264.031 219.282 263.953 219.555 263.797C219.83 263.641 220.037 263.439 220.177 263.192C220.319 262.945 220.39 262.685 220.39 262.412V261.491C220.347 261.543 220.253 261.589 220.108 261.632C219.966 261.672 219.802 261.707 219.614 261.739C219.43 261.767 219.249 261.793 219.073 261.815C218.9 261.835 218.759 261.852 218.651 261.866C218.39 261.901 218.145 261.956 217.918 262.033C217.694 262.107 217.512 262.219 217.373 262.369C217.236 262.517 217.168 262.719 217.168 262.974C217.168 263.324 217.297 263.588 217.556 263.767C217.817 263.943 218.148 264.031 218.549 264.031ZM222.822 264.781L225.481 261.457L222.856 258.236H224.049L226.231 261.031H226.776V258.236H227.782V261.031H228.311L230.492 258.236H231.686L229.078 261.457L231.72 264.781H230.509L228.294 261.969H227.782V264.781H226.776V261.969H226.265L224.032 264.781H222.822ZM235.632 264.918C235.001 264.918 234.457 264.778 233.999 264.5C233.545 264.219 233.194 263.827 232.947 263.324C232.703 262.818 232.58 262.23 232.58 261.56C232.58 260.889 232.703 260.298 232.947 259.787C233.194 259.273 233.538 258.872 233.978 258.585C234.421 258.295 234.938 258.151 235.529 258.151C235.87 258.151 236.207 258.207 236.539 258.321C236.872 258.435 237.174 258.619 237.447 258.875C237.72 259.128 237.937 259.463 238.099 259.881C238.261 260.298 238.342 260.812 238.342 261.423V261.849H233.296V260.98H237.319C237.319 260.611 237.245 260.281 237.097 259.991C236.953 259.702 236.745 259.473 236.475 259.305C236.208 259.138 235.893 259.054 235.529 259.054C235.129 259.054 234.782 259.153 234.49 259.352C234.2 259.548 233.977 259.804 233.82 260.119C233.664 260.435 233.586 260.773 233.586 261.134V261.713C233.586 262.207 233.671 262.626 233.842 262.97C234.015 263.311 234.255 263.571 234.562 263.75C234.869 263.926 235.225 264.014 235.632 264.014C235.896 264.014 236.134 263.977 236.347 263.903C236.563 263.827 236.749 263.713 236.906 263.562C237.062 263.409 237.183 263.219 237.268 262.991L238.24 263.264C238.137 263.594 237.965 263.884 237.724 264.134C237.482 264.381 237.184 264.574 236.829 264.713C236.474 264.849 236.075 264.918 235.632 264.918ZM243.451 263.418L245.735 258.236H246.69L243.86 264.781H243.042L240.264 258.236H241.201L243.451 263.418ZM240.877 258.236V264.781H239.872V258.236H240.877ZM246.025 264.781V258.236H247.031V264.781H246.025ZM252.247 264.781V258.236H257.394V264.781H256.389V259.173H253.252V264.781H252.247ZM259.231 267.236V258.236H260.203V259.276H260.322C260.396 259.162 260.498 259.017 260.629 258.841C260.762 258.662 260.953 258.503 261.2 258.364C261.45 258.222 261.788 258.151 262.214 258.151C262.765 258.151 263.251 258.288 263.671 258.564C264.092 258.839 264.42 259.23 264.656 259.736C264.892 260.241 265.009 260.838 265.009 261.526C265.009 262.219 264.892 262.82 264.656 263.328C264.42 263.834 264.093 264.226 263.676 264.504C263.258 264.78 262.776 264.918 262.231 264.918C261.811 264.918 261.474 264.848 261.221 264.709C260.968 264.567 260.774 264.406 260.637 264.227C260.501 264.045 260.396 263.895 260.322 263.776H260.237V267.236H259.231ZM260.22 261.509C260.22 262.003 260.292 262.439 260.437 262.817C260.582 263.192 260.794 263.486 261.072 263.699C261.35 263.909 261.691 264.014 262.095 264.014C262.515 264.014 262.866 263.903 263.147 263.682C263.431 263.457 263.644 263.156 263.786 262.778C263.931 262.398 264.004 261.974 264.004 261.509C264.004 261.048 263.933 260.634 263.791 260.264C263.651 259.892 263.44 259.598 263.156 259.382C262.874 259.163 262.521 259.054 262.095 259.054C261.686 259.054 261.342 259.158 261.063 259.365C260.785 259.57 260.575 259.857 260.433 260.226C260.291 260.592 260.22 261.02 260.22 261.509ZM269.203 264.918C268.612 264.918 268.093 264.777 267.647 264.496C267.204 264.214 266.857 263.821 266.607 263.315C266.36 262.81 266.237 262.219 266.237 261.543C266.237 260.861 266.36 260.266 266.607 259.757C266.857 259.249 267.204 258.854 267.647 258.572C268.093 258.291 268.612 258.151 269.203 258.151C269.794 258.151 270.311 258.291 270.754 258.572C271.2 258.854 271.546 259.249 271.794 259.757C272.044 260.266 272.169 260.861 272.169 261.543C272.169 262.219 272.044 262.81 271.794 263.315C271.546 263.821 271.2 264.214 270.754 264.496C270.311 264.777 269.794 264.918 269.203 264.918ZM269.203 264.014C269.651 264.014 270.021 263.899 270.311 263.669C270.6 263.439 270.815 263.136 270.954 262.761C271.093 262.386 271.163 261.98 271.163 261.543C271.163 261.105 271.093 260.697 270.954 260.32C270.815 259.942 270.6 259.636 270.311 259.403C270.021 259.17 269.651 259.054 269.203 259.054C268.754 259.054 268.384 259.17 268.095 259.403C267.805 259.636 267.59 259.942 267.451 260.32C267.312 260.697 267.242 261.105 267.242 261.543C267.242 261.98 267.312 262.386 267.451 262.761C267.59 263.136 267.805 263.439 268.095 263.669C268.384 263.899 268.754 264.014 269.203 264.014ZM174.803 278.781V272.236H175.809V275.082H176.474L178.826 272.236H180.121L177.479 275.389L180.156 278.781H178.86L176.712 276.02H175.809V278.781H174.803ZM180.669 278.781V277.844H180.908C181.104 277.844 181.267 277.805 181.398 277.729C181.528 277.649 181.634 277.511 181.713 277.315C181.795 277.116 181.858 276.841 181.901 276.489C181.946 276.134 181.979 275.682 181.999 275.134L182.118 272.236H186.482V278.781H185.476V273.173H183.072L182.97 275.509C182.947 276.045 182.899 276.518 182.825 276.928C182.754 277.334 182.645 277.675 182.497 277.95C182.352 278.226 182.159 278.433 181.918 278.572C181.676 278.712 181.374 278.781 181.01 278.781H180.669ZM191.463 275.099V276.037H188.003V275.099H191.463ZM188.855 272.236V278.781H187.849V272.236H188.855ZM193.474 278.918C192.884 278.918 192.365 278.777 191.919 278.496C191.476 278.214 191.129 277.821 190.879 277.315C190.632 276.81 190.509 276.219 190.509 275.543C190.509 274.861 190.632 274.266 190.879 273.757C191.129 273.249 191.476 272.854 191.919 272.572C192.365 272.291 192.884 272.151 193.474 272.151C194.065 272.151 194.582 272.291 195.026 272.572C195.472 272.854 195.818 273.249 196.065 273.757C196.315 274.266 196.44 274.861 196.44 275.543C196.44 276.219 196.315 276.81 196.065 277.315C195.818 277.821 195.472 278.214 195.026 278.496C194.582 278.777 194.065 278.918 193.474 278.918ZM193.474 278.014C193.923 278.014 194.293 277.899 194.582 277.669C194.872 277.439 195.087 277.136 195.226 276.761C195.365 276.386 195.435 275.98 195.435 275.543C195.435 275.105 195.365 274.697 195.226 274.32C195.087 273.942 194.872 273.636 194.582 273.403C194.293 273.17 193.923 273.054 193.474 273.054C193.026 273.054 192.656 273.17 192.366 273.403C192.077 273.636 191.862 273.942 191.723 274.32C191.584 274.697 191.514 275.105 191.514 275.543C191.514 275.98 191.584 276.386 191.723 276.761C191.862 277.136 192.077 277.439 192.366 277.669C192.656 277.899 193.026 278.014 193.474 278.014ZM203.122 272.236V278.781H202.116V272.236H203.122ZM202.73 275.355V276.293C202.503 276.378 202.277 276.453 202.053 276.518C201.828 276.581 201.592 276.631 201.345 276.668C201.098 276.702 200.827 276.719 200.531 276.719C199.79 276.719 199.195 276.518 198.746 276.118C198.3 275.717 198.077 275.116 198.077 274.315V272.219H199.082V274.315C199.082 274.651 199.146 274.926 199.274 275.142C199.402 275.358 199.575 275.518 199.794 275.624C200.013 275.729 200.259 275.781 200.531 275.781C200.957 275.781 201.342 275.743 201.686 275.666C202.033 275.587 202.381 275.483 202.73 275.355ZM207.712 278.918C207.081 278.918 206.537 278.778 206.08 278.5C205.625 278.219 205.274 277.827 205.027 277.324C204.783 276.818 204.661 276.23 204.661 275.56C204.661 274.889 204.783 274.298 205.027 273.787C205.274 273.273 205.618 272.872 206.058 272.585C206.501 272.295 207.018 272.151 207.609 272.151C207.95 272.151 208.287 272.207 208.619 272.321C208.952 272.435 209.254 272.619 209.527 272.875C209.8 273.128 210.017 273.463 210.179 273.881C210.341 274.298 210.422 274.812 210.422 275.423V275.849H205.376V274.98H209.399C209.399 274.611 209.325 274.281 209.178 273.991C209.033 273.702 208.825 273.473 208.555 273.305C208.288 273.138 207.973 273.054 207.609 273.054C207.209 273.054 206.862 273.153 206.57 273.352C206.28 273.548 206.057 273.804 205.901 274.119C205.744 274.435 205.666 274.773 205.666 275.134V275.713C205.666 276.207 205.751 276.626 205.922 276.97C206.095 277.311 206.335 277.571 206.642 277.75C206.949 277.926 207.305 278.014 207.712 278.014C207.976 278.014 208.214 277.977 208.428 277.903C208.643 277.827 208.83 277.713 208.986 277.562C209.142 277.409 209.263 277.219 209.348 276.991L210.32 277.264C210.217 277.594 210.045 277.884 209.804 278.134C209.563 278.381 209.264 278.574 208.909 278.713C208.554 278.849 208.155 278.918 207.712 278.918ZM211.952 278.781V272.236H214.628C215.332 272.236 215.892 272.395 216.307 272.713C216.722 273.031 216.929 273.452 216.929 273.974C216.929 274.372 216.811 274.68 216.575 274.899C216.339 275.115 216.037 275.261 215.668 275.338C215.909 275.372 216.143 275.457 216.371 275.594C216.601 275.73 216.791 275.918 216.942 276.156C217.092 276.392 217.168 276.682 217.168 277.026C217.168 277.361 217.082 277.661 216.912 277.925C216.741 278.189 216.497 278.398 216.179 278.551C215.861 278.705 215.48 278.781 215.037 278.781H211.952ZM212.906 277.861H215.037C215.384 277.861 215.655 277.778 215.851 277.614C216.047 277.449 216.145 277.224 216.145 276.94C216.145 276.602 216.047 276.337 215.851 276.143C215.655 275.947 215.384 275.849 215.037 275.849H212.906V277.861ZM212.906 274.98H214.628C214.898 274.98 215.129 274.943 215.322 274.869C215.516 274.793 215.663 274.685 215.766 274.545C215.871 274.403 215.923 274.236 215.923 274.043C215.923 273.767 215.808 273.551 215.578 273.395C215.348 273.236 215.031 273.156 214.628 273.156H212.906V274.98ZM219.559 274.605H221.434C222.201 274.605 222.788 274.8 223.194 275.189C223.6 275.578 223.804 276.071 223.804 276.668C223.804 277.06 223.713 277.416 223.531 277.737C223.349 278.055 223.082 278.31 222.73 278.5C222.377 278.688 221.946 278.781 221.434 278.781H218.69V272.236H219.696V277.844H221.434C221.832 277.844 222.159 277.739 222.414 277.528C222.67 277.318 222.798 277.048 222.798 276.719C222.798 276.372 222.67 276.089 222.414 275.871C222.159 275.652 221.832 275.543 221.434 275.543H219.559V274.605ZM224.843 278.781V272.236H225.849V278.781H224.843ZM230.434 278.918C229.804 278.918 229.26 278.778 228.802 278.5C228.348 278.219 227.997 277.827 227.75 277.324C227.505 276.818 227.383 276.23 227.383 275.56C227.383 274.889 227.505 274.298 227.75 273.787C227.997 273.273 228.341 272.872 228.781 272.585C229.224 272.295 229.741 272.151 230.332 272.151C230.673 272.151 231.01 272.207 231.342 272.321C231.674 272.435 231.977 272.619 232.25 272.875C232.522 273.128 232.74 273.463 232.902 273.881C233.064 274.298 233.145 274.812 233.145 275.423V275.849H228.099V274.98H232.122C232.122 274.611 232.048 274.281 231.9 273.991C231.755 273.702 231.548 273.473 231.278 273.305C231.011 273.138 230.696 273.054 230.332 273.054C229.931 273.054 229.585 273.153 229.292 273.352C229.002 273.548 228.779 273.804 228.623 274.119C228.467 274.435 228.389 274.773 228.389 275.134V275.713C228.389 276.207 228.474 276.626 228.645 276.97C228.818 277.311 229.058 277.571 229.365 277.75C229.672 277.926 230.028 278.014 230.434 278.014C230.699 278.014 230.937 277.977 231.15 277.903C231.366 277.827 231.552 277.713 231.708 277.562C231.865 277.409 231.985 277.219 232.071 276.991L233.042 277.264C232.94 277.594 232.768 277.884 232.527 278.134C232.285 278.381 231.987 278.574 231.632 278.713C231.277 278.849 230.877 278.918 230.434 278.918ZM242.43 275.048V275.986H238.816V275.048H242.43ZM239.055 272.236V278.781H238.049V272.236H239.055ZM243.197 272.236V278.781H242.191V272.236H243.197ZM246.96 278.935C246.545 278.935 246.169 278.857 245.831 278.7C245.493 278.541 245.224 278.312 245.025 278.014C244.826 277.713 244.727 277.349 244.727 276.923C244.727 276.548 244.801 276.244 244.949 276.011C245.096 275.776 245.294 275.591 245.541 275.457C245.788 275.324 246.061 275.224 246.359 275.159C246.66 275.091 246.963 275.037 247.267 274.997C247.664 274.946 247.987 274.908 248.234 274.882C248.484 274.854 248.666 274.807 248.779 274.741C248.896 274.676 248.954 274.562 248.954 274.401V274.366C248.954 273.946 248.839 273.619 248.609 273.386C248.382 273.153 248.037 273.037 247.574 273.037C247.093 273.037 246.717 273.142 246.444 273.352C246.172 273.562 245.98 273.787 245.869 274.026L244.914 273.685C245.085 273.287 245.312 272.977 245.596 272.756C245.883 272.531 246.196 272.375 246.534 272.287C246.875 272.196 247.21 272.151 247.539 272.151C247.75 272.151 247.991 272.176 248.264 272.227C248.539 272.276 248.805 272.376 249.061 272.53C249.319 272.683 249.534 272.915 249.704 273.224C249.875 273.534 249.96 273.949 249.96 274.469V278.781H248.954V277.895H248.903C248.835 278.037 248.721 278.189 248.562 278.351C248.403 278.513 248.191 278.651 247.927 278.764C247.663 278.878 247.341 278.935 246.96 278.935ZM247.113 278.031C247.511 278.031 247.846 277.953 248.119 277.797C248.395 277.641 248.602 277.439 248.741 277.192C248.883 276.945 248.954 276.685 248.954 276.412V275.491C248.912 275.543 248.818 275.589 248.673 275.632C248.531 275.672 248.366 275.707 248.179 275.739C247.994 275.767 247.814 275.793 247.637 275.815C247.464 275.835 247.324 275.852 247.216 275.866C246.954 275.901 246.71 275.956 246.483 276.033C246.258 276.107 246.076 276.219 245.937 276.369C245.801 276.517 245.733 276.719 245.733 276.974C245.733 277.324 245.862 277.588 246.12 277.767C246.382 277.943 246.713 278.031 247.113 278.031ZM251.795 278.781V272.236H254.472C255.176 272.236 255.736 272.395 256.151 272.713C256.565 273.031 256.773 273.452 256.773 273.974C256.773 274.372 256.655 274.68 256.419 274.899C256.183 275.115 255.881 275.261 255.511 275.338C255.753 275.372 255.987 275.457 256.214 275.594C256.445 275.73 256.635 275.918 256.786 276.156C256.936 276.392 257.011 276.682 257.011 277.026C257.011 277.361 256.926 277.661 256.756 277.925C256.585 278.189 256.341 278.398 256.023 278.551C255.705 278.705 255.324 278.781 254.881 278.781H251.795ZM252.75 277.861H254.881C255.227 277.861 255.499 277.778 255.695 277.614C255.891 277.449 255.989 277.224 255.989 276.94C255.989 276.602 255.891 276.337 255.695 276.143C255.499 275.947 255.227 275.849 254.881 275.849H252.75V277.861ZM252.75 274.98H254.472C254.741 274.98 254.973 274.943 255.166 274.869C255.359 274.793 255.507 274.685 255.609 274.545C255.714 274.403 255.767 274.236 255.767 274.043C255.767 273.767 255.652 273.551 255.422 273.395C255.192 273.236 254.875 273.156 254.472 273.156H252.75V274.98ZM259.403 274.605H261.278C262.045 274.605 262.632 274.8 263.038 275.189C263.444 275.578 263.647 276.071 263.647 276.668C263.647 277.06 263.556 277.416 263.375 277.737C263.193 278.055 262.926 278.31 262.574 278.5C262.221 278.688 261.789 278.781 261.278 278.781H258.534V272.236H259.539V277.844H261.278C261.676 277.844 262.002 277.739 262.258 277.528C262.514 277.318 262.642 277.048 262.642 276.719C262.642 276.372 262.514 276.089 262.258 275.871C262.002 275.652 261.676 275.543 261.278 275.543H259.403V274.605ZM264.687 278.781V272.236H265.693V278.781H264.687ZM267.534 278.781V272.236H268.539V275.082H269.204L271.556 272.236H272.852L270.21 275.389L272.886 278.781H271.591L269.443 276.02H268.539V278.781H267.534ZM274.985 277.298L278.138 272.236H279.297V278.781H278.292V273.719L275.155 278.781H273.979V272.236H274.985V277.298Z" fill="#201C28"/>
<path d="M218.051 244.781C225.851 244.781 227.051 240.781 227.051 238.781C227.051 243.581 233.051 244.781 236.051 244.781H218.051Z" fill="#F4F0FF"/>
<rect x="224.051" y="154.781" width="189" height="26" rx="13" transform="rotate(180 224.051 154.781)" fill="#F4F0FF"/>
<path d="M61.5678 145.901V144.912H62.1133C62.3235 144.912 62.4996 144.871 62.6417 144.788C62.7866 144.706 62.9059 144.599 62.9996 144.469C63.0962 144.338 63.1758 144.202 63.2383 144.06L63.3746 143.736L60.3576 137.054H61.4996L63.9031 142.474L66.1019 137.054H67.2269L64.2099 144.366C64.0906 144.639 63.9542 144.892 63.8008 145.125C63.6502 145.358 63.4442 145.545 63.1829 145.688C62.9244 145.83 62.5735 145.901 62.1303 145.901H61.5678ZM67.979 145.781V139.236H68.9847V142.082H69.6495L72.0018 139.236H73.2972L70.6552 142.389L73.3313 145.781H72.0359L69.8881 143.02H68.9847V145.781H67.979ZM76.3505 145.935C75.9357 145.935 75.5593 145.857 75.2212 145.7C74.8832 145.541 74.6147 145.312 74.4158 145.014C74.217 144.713 74.1175 144.349 74.1175 143.923C74.1175 143.548 74.1914 143.244 74.3391 143.011C74.4869 142.776 74.6843 142.591 74.9315 142.457C75.1786 142.324 75.4513 142.224 75.7496 142.159C76.0508 142.091 76.3533 142.037 76.6573 141.997C77.055 141.946 77.3775 141.908 77.6246 141.882C77.8746 141.854 78.0565 141.807 78.1701 141.741C78.2866 141.676 78.3448 141.562 78.3448 141.401V141.366C78.3448 140.946 78.2298 140.619 77.9996 140.386C77.7724 140.153 77.4272 140.037 76.9641 140.037C76.484 140.037 76.1076 140.142 75.8349 140.352C75.5621 140.562 75.3704 140.787 75.2596 141.026L74.305 140.685C74.4755 140.287 74.7028 139.977 74.9869 139.756C75.2738 139.531 75.5863 139.375 75.9244 139.287C76.2653 139.196 76.6005 139.151 76.93 139.151C77.1403 139.151 77.3817 139.176 77.6545 139.227C77.93 139.276 78.1957 139.376 78.4513 139.53C78.7099 139.683 78.9244 139.915 79.0948 140.224C79.2653 140.534 79.3505 140.949 79.3505 141.469V145.781H78.3448V144.895H78.2937C78.2255 145.037 78.1119 145.189 77.9528 145.351C77.7937 145.513 77.582 145.651 77.3178 145.764C77.0536 145.878 76.7312 145.935 76.3505 145.935ZM76.5039 145.031C76.9016 145.031 77.2369 144.953 77.5096 144.797C77.7852 144.641 77.9925 144.439 78.1317 144.192C78.2738 143.945 78.3448 143.685 78.3448 143.412V142.491C78.3022 142.543 78.2085 142.589 78.0636 142.632C77.9215 142.672 77.7567 142.707 77.5692 142.739C77.3846 142.767 77.2042 142.793 77.0281 142.815C76.8548 142.835 76.7141 142.852 76.6062 142.866C76.3448 142.901 76.1005 142.956 75.8732 143.033C75.6488 143.107 75.467 143.219 75.3278 143.369C75.1914 143.517 75.1232 143.719 75.1232 143.974C75.1232 144.324 75.2525 144.588 75.511 144.767C75.7724 144.943 76.1033 145.031 76.5039 145.031ZM80.777 145.781L83.4361 142.457L80.8111 139.236H82.0043L84.1861 142.031H84.7315V139.236H85.7372V142.031H86.2656L88.4474 139.236H89.6406L87.0327 142.457L89.6747 145.781H88.4645L86.2486 142.969H85.7372V145.781H84.7315V142.969H84.2202L81.9872 145.781H80.777ZM93.5866 145.918C92.956 145.918 92.4119 145.778 91.9545 145.5C91.5 145.219 91.1491 144.827 90.902 144.324C90.6577 143.818 90.5355 143.23 90.5355 142.56C90.5355 141.889 90.6577 141.298 90.902 140.787C91.1491 140.273 91.4929 139.872 91.9332 139.585C92.3764 139.295 92.8935 139.151 93.4844 139.151C93.8253 139.151 94.1619 139.207 94.4943 139.321C94.8267 139.435 95.1293 139.619 95.402 139.875C95.6747 140.128 95.892 140.463 96.054 140.881C96.2159 141.298 96.2969 141.812 96.2969 142.423V142.849H91.2514V141.98H95.2741C95.2741 141.611 95.2003 141.281 95.0526 140.991C94.9077 140.702 94.7003 140.473 94.4304 140.305C94.1634 140.138 93.848 140.054 93.4844 140.054C93.0838 140.054 92.7372 140.153 92.4446 140.352C92.1548 140.548 91.9318 140.804 91.7756 141.119C91.6193 141.435 91.5412 141.773 91.5412 142.134V142.713C91.5412 143.207 91.6264 143.626 91.7969 143.97C91.9702 144.311 92.2102 144.571 92.517 144.75C92.8239 144.926 93.1804 145.014 93.5866 145.014C93.8509 145.014 94.0895 144.977 94.3026 144.903C94.5185 144.827 94.7045 144.713 94.8608 144.562C95.017 144.409 95.1378 144.219 95.223 143.991L96.1946 144.264C96.0923 144.594 95.9205 144.884 95.679 145.134C95.4375 145.381 95.1392 145.574 94.7841 145.713C94.429 145.849 94.0298 145.918 93.5866 145.918ZM101.406 144.418L103.69 139.236H104.645L101.815 145.781H100.997L98.2188 139.236H99.1562L101.406 144.418ZM98.8324 139.236V145.781H97.8267V139.236H98.8324ZM103.98 145.781V139.236H104.986V145.781H103.98ZM114.582 142.048V142.986H110.969V142.048H114.582ZM111.207 139.236V145.781H110.202V139.236H111.207ZM115.349 139.236V145.781H114.344V139.236H115.349ZM119.112 145.935C118.697 145.935 118.321 145.857 117.983 145.7C117.645 145.541 117.376 145.312 117.178 145.014C116.979 144.713 116.879 144.349 116.879 143.923C116.879 143.548 116.953 143.244 117.101 143.011C117.249 142.776 117.446 142.591 117.693 142.457C117.94 142.324 118.213 142.224 118.511 142.159C118.813 142.091 119.115 142.037 119.419 141.997C119.817 141.946 120.139 141.908 120.386 141.882C120.636 141.854 120.818 141.807 120.932 141.741C121.048 141.676 121.107 141.562 121.107 141.401V141.366C121.107 140.946 120.991 140.619 120.761 140.386C120.534 140.153 120.189 140.037 119.726 140.037C119.246 140.037 118.869 140.142 118.597 140.352C118.324 140.562 118.132 140.787 118.021 141.026L117.067 140.685C117.237 140.287 117.464 139.977 117.749 139.756C118.036 139.531 118.348 139.375 118.686 139.287C119.027 139.196 119.362 139.151 119.692 139.151C119.902 139.151 120.143 139.176 120.416 139.227C120.692 139.276 120.957 139.376 121.213 139.53C121.472 139.683 121.686 139.915 121.857 140.224C122.027 140.534 122.112 140.949 122.112 141.469V145.781H121.107V144.895H121.055C120.987 145.037 120.874 145.189 120.714 145.351C120.555 145.513 120.344 145.651 120.08 145.764C119.815 145.878 119.493 145.935 119.112 145.935ZM119.266 145.031C119.663 145.031 119.999 144.953 120.271 144.797C120.547 144.641 120.754 144.439 120.893 144.192C121.036 143.945 121.107 143.685 121.107 143.412V142.491C121.064 142.543 120.97 142.589 120.825 142.632C120.683 142.672 120.518 142.707 120.331 142.739C120.146 142.767 119.966 142.793 119.79 142.815C119.616 142.835 119.476 142.852 119.368 142.866C119.107 142.901 118.862 142.956 118.635 143.033C118.411 143.107 118.229 143.219 118.089 143.369C117.953 143.517 117.885 143.719 117.885 143.974C117.885 144.324 118.014 144.588 118.273 144.767C118.534 144.943 118.865 145.031 119.266 145.031ZM126.948 140.173V139.236H132.266V140.173H130.118V145.781H129.113V140.173H126.948ZM136.052 145.918C135.461 145.918 134.943 145.777 134.497 145.496C134.054 145.214 133.707 144.821 133.457 144.315C133.21 143.81 133.086 143.219 133.086 142.543C133.086 141.861 133.21 141.266 133.457 140.757C133.707 140.249 134.054 139.854 134.497 139.572C134.943 139.291 135.461 139.151 136.052 139.151C136.643 139.151 137.16 139.291 137.603 139.572C138.049 139.854 138.396 140.249 138.643 140.757C138.893 141.266 139.018 141.861 139.018 142.543C139.018 143.219 138.893 143.81 138.643 144.315C138.396 144.821 138.049 145.214 137.603 145.496C137.16 145.777 136.643 145.918 136.052 145.918ZM136.052 145.014C136.501 145.014 136.87 144.899 137.16 144.669C137.45 144.439 137.664 144.136 137.804 143.761C137.943 143.386 138.012 142.98 138.012 142.543C138.012 142.105 137.943 141.697 137.804 141.32C137.664 140.942 137.45 140.636 137.16 140.403C136.87 140.17 136.501 140.054 136.052 140.054C135.603 140.054 135.234 140.17 134.944 140.403C134.654 140.636 134.44 140.942 134.301 141.32C134.162 141.697 134.092 142.105 134.092 142.543C134.092 142.98 134.162 143.386 134.301 143.761C134.44 144.136 134.654 144.439 134.944 144.669C135.234 144.899 135.603 145.014 136.052 145.014ZM145.599 139.236V145.781H144.593V139.236H145.599ZM145.207 142.355V143.293C144.979 143.378 144.754 143.453 144.529 143.518C144.305 143.581 144.069 143.631 143.822 143.668C143.575 143.702 143.303 143.719 143.008 143.719C142.266 143.719 141.671 143.518 141.222 143.118C140.776 142.717 140.553 142.116 140.553 141.315V139.219H141.559V141.315C141.559 141.651 141.623 141.926 141.751 142.142C141.879 142.358 142.052 142.518 142.271 142.624C142.489 142.729 142.735 142.781 143.008 142.781C143.434 142.781 143.819 142.743 144.163 142.666C144.509 142.587 144.857 142.483 145.207 142.355ZM147.444 145.781V139.236H148.45V142.082H149.114L151.467 139.236H152.762L150.12 142.389L152.796 145.781H151.501L149.353 143.02H148.45V145.781H147.444ZM154.895 144.298L158.048 139.236H159.207V145.781H158.202V140.719L155.065 145.781H153.889V139.236H154.895V144.298ZM164.424 148.236V139.236H165.396V140.276H165.515C165.589 140.162 165.691 140.017 165.822 139.841C165.956 139.662 166.146 139.503 166.393 139.364C166.643 139.222 166.981 139.151 167.407 139.151C167.958 139.151 168.444 139.288 168.865 139.564C169.285 139.839 169.613 140.23 169.849 140.736C170.085 141.241 170.203 141.838 170.203 142.526C170.203 143.219 170.085 143.82 169.849 144.328C169.613 144.834 169.287 145.226 168.869 145.504C168.451 145.78 167.97 145.918 167.424 145.918C167.004 145.918 166.667 145.848 166.414 145.709C166.162 145.567 165.967 145.406 165.831 145.227C165.694 145.045 165.589 144.895 165.515 144.776H165.43V148.236H164.424ZM165.413 142.509C165.413 143.003 165.485 143.439 165.63 143.817C165.775 144.192 165.987 144.486 166.265 144.699C166.544 144.909 166.885 145.014 167.288 145.014C167.708 145.014 168.059 144.903 168.341 144.682C168.625 144.457 168.838 144.156 168.98 143.778C169.125 143.398 169.197 142.974 169.197 142.509C169.197 142.048 169.126 141.634 168.984 141.264C168.845 140.892 168.633 140.598 168.349 140.382C168.068 140.163 167.714 140.054 167.288 140.054C166.879 140.054 166.535 140.158 166.257 140.365C165.978 140.57 165.768 140.857 165.626 141.226C165.484 141.592 165.413 142.02 165.413 142.509ZM174.396 145.918C173.805 145.918 173.287 145.777 172.841 145.496C172.397 145.214 172.051 144.821 171.801 144.315C171.554 143.81 171.43 143.219 171.43 142.543C171.43 141.861 171.554 141.266 171.801 140.757C172.051 140.249 172.397 139.854 172.841 139.572C173.287 139.291 173.805 139.151 174.396 139.151C174.987 139.151 175.504 139.291 175.947 139.572C176.393 139.854 176.74 140.249 176.987 140.757C177.237 141.266 177.362 141.861 177.362 142.543C177.362 143.219 177.237 143.81 176.987 144.315C176.74 144.821 176.393 145.214 175.947 145.496C175.504 145.777 174.987 145.918 174.396 145.918ZM174.396 145.014C174.845 145.014 175.214 144.899 175.504 144.669C175.794 144.439 176.008 144.136 176.147 143.761C176.287 143.386 176.356 142.98 176.356 142.543C176.356 142.105 176.287 141.697 176.147 141.32C176.008 140.942 175.794 140.636 175.504 140.403C175.214 140.17 174.845 140.054 174.396 140.054C173.947 140.054 173.578 140.17 173.288 140.403C172.998 140.636 172.784 140.942 172.645 141.32C172.505 141.697 172.436 142.105 172.436 142.543C172.436 142.98 172.505 143.386 172.645 143.761C172.784 144.136 172.998 144.439 173.288 144.669C173.578 144.899 173.947 145.014 174.396 145.014ZM181.556 145.918C180.942 145.918 180.414 145.773 179.971 145.483C179.528 145.193 179.187 144.794 178.948 144.286C178.71 143.777 178.59 143.196 178.59 142.543C178.59 141.878 178.712 141.291 178.957 140.783C179.204 140.271 179.548 139.872 179.988 139.585C180.431 139.295 180.948 139.151 181.539 139.151C181.999 139.151 182.414 139.236 182.783 139.406C183.153 139.577 183.455 139.815 183.691 140.122C183.927 140.429 184.073 140.787 184.13 141.196H183.124C183.048 140.898 182.877 140.634 182.613 140.403C182.352 140.17 181.999 140.054 181.556 140.054C181.164 140.054 180.82 140.156 180.525 140.361C180.232 140.562 180.004 140.848 179.839 141.217C179.677 141.584 179.596 142.014 179.596 142.509C179.596 143.014 179.675 143.455 179.835 143.83C179.996 144.205 180.224 144.496 180.516 144.703C180.812 144.911 181.158 145.014 181.556 145.014C181.817 145.014 182.055 144.969 182.268 144.878C182.481 144.787 182.661 144.656 182.809 144.486C182.957 144.315 183.062 144.111 183.124 143.872H184.13C184.073 144.259 183.933 144.607 183.708 144.916C183.487 145.223 183.192 145.467 182.826 145.649C182.462 145.828 182.039 145.918 181.556 145.918ZM185.085 140.173V139.236H190.403V140.173H188.255V145.781H187.249V140.173H185.085ZM193.456 145.935C193.041 145.935 192.665 145.857 192.327 145.7C191.989 145.541 191.72 145.312 191.521 145.014C191.322 144.713 191.223 144.349 191.223 143.923C191.223 143.548 191.297 143.244 191.445 143.011C191.592 142.776 191.79 142.591 192.037 142.457C192.284 142.324 192.557 142.224 192.855 142.159C193.156 142.091 193.459 142.037 193.763 141.997C194.161 141.946 194.483 141.908 194.73 141.882C194.98 141.854 195.162 141.807 195.276 141.741C195.392 141.676 195.45 141.562 195.45 141.401V141.366C195.45 140.946 195.335 140.619 195.105 140.386C194.878 140.153 194.533 140.037 194.07 140.037C193.589 140.037 193.213 140.142 192.94 140.352C192.668 140.562 192.476 140.787 192.365 141.026L191.411 140.685C191.581 140.287 191.808 139.977 192.092 139.756C192.379 139.531 192.692 139.375 193.03 139.287C193.371 139.196 193.706 139.151 194.036 139.151C194.246 139.151 194.487 139.176 194.76 139.227C195.036 139.276 195.301 139.376 195.557 139.53C195.815 139.683 196.03 139.915 196.2 140.224C196.371 140.534 196.456 140.949 196.456 141.469V145.781H195.45V144.895H195.399C195.331 145.037 195.217 145.189 195.058 145.351C194.899 145.513 194.688 145.651 194.423 145.764C194.159 145.878 193.837 145.935 193.456 145.935ZM193.609 145.031C194.007 145.031 194.342 144.953 194.615 144.797C194.891 144.641 195.098 144.439 195.237 144.192C195.379 143.945 195.45 143.685 195.45 143.412V142.491C195.408 142.543 195.314 142.589 195.169 142.632C195.027 142.672 194.862 142.707 194.675 142.739C194.49 142.767 194.31 142.793 194.134 142.815C193.96 142.835 193.82 142.852 193.712 142.866C193.45 142.901 193.206 142.956 192.979 143.033C192.754 143.107 192.572 143.219 192.433 143.369C192.297 143.517 192.229 143.719 192.229 143.974C192.229 144.324 192.358 144.588 192.616 144.767C192.878 144.943 193.209 145.031 193.609 145.031Z" fill="#201C28"/>
<path d="M78.0508 154.781C70.2508 154.781 69.0508 158.781 69.0508 160.781C69.0508 155.981 63.0508 154.781 60.0508 154.781L78.0508 154.781Z" fill="#F4F0FF"/>
<path d="M68.0508 166.781C68.0508 167.334 68.4985 167.781 69.0508 167.781C69.6031 167.781 70.0508 167.334 70.0508 166.781H68.0508ZM70.0508 170.781C70.0508 170.229 69.6031 169.781 69.0508 169.781C68.4985 169.781 68.0508 170.229 68.0508 170.781H70.0508ZM68.0508 174.781C68.0508 175.334 68.4985 175.781 69.0508 175.781C69.6031 175.781 70.0508 175.334 70.0508 174.781H68.0508ZM70.0508 178.781C70.0508 178.229 69.6031 177.781 69.0508 177.781C68.4985 177.781 68.0508 178.229 68.0508 178.781H70.0508ZM68.0508 182.781C68.0508 183.334 68.4985 183.781 69.0508 183.781C69.6031 183.781 70.0508 183.334 70.0508 182.781H68.0508ZM70.0508 186.781C70.0508 186.229 69.6031 185.781 69.0508 185.781C68.4985 185.781 68.0508 186.229 68.0508 186.781H70.0508ZM68.0508 190.781C68.0508 191.334 68.4985 191.781 69.0508 191.781C69.6031 191.781 70.0508 191.334 70.0508 190.781H68.0508ZM70.0508 194.781C70.0508 194.229 69.6031 193.781 69.0508 193.781C68.4985 193.781 68.0508 194.229 68.0508 194.781H70.0508ZM68.0508 198.781C68.0508 199.334 68.4985 199.781 69.0508 199.781C69.6031 199.781 70.0508 199.334 70.0508 198.781H68.0508ZM70.0508 202.781C70.0508 202.229 69.6031 201.781 69.0508 201.781C68.4985 201.781 68.0508 202.229 68.0508 202.781H70.0508ZM68.0508 206.781C68.0508 207.334 68.4985 207.781 69.0508 207.781C69.6031 207.781 70.0508 207.334 70.0508 206.781H68.0508ZM70.0508 210.781C70.0508 210.229 69.6031 209.781 69.0508 209.781C68.4985 209.781 68.0508 210.229 68.0508 210.781H70.0508ZM68.0508 164.781V166.781H70.0508V164.781H68.0508ZM68.0508 170.781V174.781H70.0508V170.781H68.0508ZM68.0508 178.781V182.781H70.0508V178.781H68.0508ZM68.0508 186.781V190.781H70.0508V186.781H68.0508ZM68.0508 194.781V198.781H70.0508V194.781H68.0508ZM68.0508 202.781V206.781H70.0508V202.781H68.0508ZM68.0508 210.781V212.781H70.0508V210.781H68.0508Z" fill="#F4F0FF"/>
<path d="M708.051 151.762C708.051 152.314 708.498 152.762 709.051 152.762C709.603 152.762 710.051 152.314 710.051 151.762H708.051ZM710.051 155.724C710.051 155.171 709.603 154.724 709.051 154.724C708.498 154.724 708.051 155.171 708.051 155.724H710.051ZM708.051 159.685C708.051 160.237 708.498 160.685 709.051 160.685C709.603 160.685 710.051 160.237 710.051 159.685H708.051ZM710.051 163.647C710.051 163.094 709.603 162.647 709.051 162.647C708.498 162.647 708.051 163.094 708.051 163.647H710.051ZM708.051 167.608C708.051 168.16 708.498 168.608 709.051 168.608C709.603 168.608 710.051 168.16 710.051 167.608H708.051ZM710.051 171.57C710.051 171.017 709.603 170.57 709.051 170.57C708.498 170.57 708.051 171.017 708.051 171.57H710.051ZM708.051 175.531C708.051 176.084 708.498 176.531 709.051 176.531C709.603 176.531 710.051 176.084 710.051 175.531H708.051ZM710.051 179.493C710.051 178.941 709.603 178.493 709.051 178.493C708.498 178.493 708.051 178.941 708.051 179.493H710.051ZM708.051 183.454C708.051 184.007 708.498 184.454 709.051 184.454C709.603 184.454 710.051 184.007 710.051 183.454H708.051ZM710.051 187.416C710.051 186.864 709.603 186.416 709.051 186.416C708.498 186.416 708.051 186.864 708.051 187.416H710.051ZM708.051 191.377C708.051 191.93 708.498 192.377 709.051 192.377C709.603 192.377 710.051 191.93 710.051 191.377H708.051ZM710.051 195.339C710.051 194.787 709.603 194.339 709.051 194.339C708.498 194.339 708.051 194.787 708.051 195.339H710.051ZM708.051 199.3C708.051 199.853 708.498 200.3 709.051 200.3C709.603 200.3 710.051 199.853 710.051 199.3H708.051ZM710.051 203.262C710.051 202.71 709.603 202.262 709.051 202.262C708.498 202.262 708.051 202.71 708.051 203.262H710.051ZM708.051 207.224C708.051 207.776 708.498 208.224 709.051 208.224C709.603 208.224 710.051 207.776 710.051 207.224H708.051ZM710.051 211.185C710.051 210.633 709.603 210.185 709.051 210.185C708.498 210.185 708.051 210.633 708.051 211.185H710.051ZM708.051 215.147C708.051 215.699 708.498 216.147 709.051 216.147C709.603 216.147 710.051 215.699 710.051 215.147H708.051ZM710.051 219.108C710.051 218.556 709.603 218.108 709.051 218.108C708.498 218.108 708.051 218.556 708.051 219.108H710.051ZM708.051 223.07C708.051 223.622 708.498 224.07 709.051 224.07C709.603 224.07 710.051 223.622 710.051 223.07H708.051ZM710.051 227.031C710.051 226.479 709.603 226.031 709.051 226.031C708.498 226.031 708.051 226.479 708.051 227.031H710.051ZM708.051 230.993C708.051 231.545 708.498 231.993 709.051 231.993C709.603 231.993 710.051 231.545 710.051 230.993H708.051ZM710.051 234.954C710.051 234.402 709.603 233.954 709.051 233.954C708.498 233.954 708.051 234.402 708.051 234.954H710.051ZM708.051 238.916C708.051 239.468 708.498 239.916 709.051 239.916C709.603 239.916 710.051 239.468 710.051 238.916H708.051ZM710.051 242.877C710.051 242.325 709.603 241.877 709.051 241.877C708.498 241.877 708.051 242.325 708.051 242.877H710.051ZM708.051 246.839C708.051 247.391 708.498 247.839 709.051 247.839C709.603 247.839 710.051 247.391 710.051 246.839H708.051ZM710.051 250.801C710.051 250.248 709.603 249.801 709.051 249.801C708.498 249.801 708.051 250.248 708.051 250.801H710.051ZM708.051 149.781V151.762H710.051V149.781H708.051ZM708.051 155.724V159.685H710.051V155.724H708.051ZM708.051 163.647V167.608H710.051V163.647H708.051ZM708.051 171.57V175.531H710.051V171.57H708.051ZM708.051 179.493V183.454H710.051V179.493H708.051ZM708.051 187.416V191.377H710.051V187.416H708.051ZM708.051 195.339V199.3H710.051V195.339H708.051ZM708.051 203.262V207.224H710.051V203.262H708.051ZM708.051 211.185V215.147H710.051V211.185H708.051ZM708.051 219.108V223.07H710.051V219.108H708.051ZM708.051 227.031V230.993H710.051V227.031H708.051ZM708.051 234.954V238.916H710.051V234.954H708.051ZM708.051 242.877V246.839H710.051V242.877H708.051ZM708.051 250.801V252.781H710.051V250.801H708.051Z" fill="#F4F0FF"/>
<path d="M700.051 262.781C707.851 262.781 709.051 258.781 709.051 256.781C709.051 261.581 715.051 262.781 718.051 262.781H700.051Z" fill="#F4F0FF"/>
<rect x="658.051" y="262.781" width="150" height="48" rx="24" fill="#F4F0FF"/>
<path d="M690.544 275.054V283.781H689.487V275.991H685.09V283.781H684.033V275.054H690.544ZM695.199 283.918C694.608 283.918 694.089 283.777 693.643 283.496C693.2 283.214 692.854 282.821 692.604 282.315C692.356 281.81 692.233 281.219 692.233 280.543C692.233 279.861 692.356 279.266 692.604 278.757C692.854 278.249 693.2 277.854 693.643 277.572C694.089 277.291 694.608 277.151 695.199 277.151C695.79 277.151 696.307 277.291 696.75 277.572C697.196 277.854 697.542 278.249 697.79 278.757C698.04 279.266 698.165 279.861 698.165 280.543C698.165 281.219 698.04 281.81 697.79 282.315C697.542 282.821 697.196 283.214 696.75 283.496C696.307 283.777 695.79 283.918 695.199 283.918ZM695.199 283.014C695.648 283.014 696.017 282.899 696.307 282.669C696.596 282.439 696.811 282.136 696.95 281.761C697.089 281.386 697.159 280.98 697.159 280.543C697.159 280.105 697.089 279.697 696.95 279.32C696.811 278.942 696.596 278.636 696.307 278.403C696.017 278.17 695.648 278.054 695.199 278.054C694.75 278.054 694.381 278.17 694.091 278.403C693.801 278.636 693.586 278.942 693.447 279.32C693.308 279.697 693.238 280.105 693.238 280.543C693.238 280.98 693.308 281.386 693.447 281.761C693.586 282.136 693.801 282.439 694.091 282.669C694.381 282.899 694.75 283.014 695.199 283.014ZM699.001 285.656V282.844H699.546C699.68 282.705 699.795 282.554 699.892 282.392C699.988 282.23 700.072 282.038 700.143 281.817C700.217 281.592 700.279 281.32 700.33 280.999C700.382 280.675 700.427 280.284 700.467 279.827L700.688 277.236H704.847V282.844H705.853V285.656H704.847V283.781H700.007V285.656H699.001ZM700.688 282.844H703.842V278.173H701.626L701.455 279.827C701.384 280.511 701.296 281.109 701.191 281.621C701.086 282.132 700.919 282.54 700.688 282.844ZM712.046 274.781L712.557 275.395C712.358 275.588 712.128 275.723 711.867 275.8C711.606 275.876 711.31 275.923 710.981 275.94C710.651 275.957 710.285 275.974 709.881 275.991C709.427 276.009 709.05 276.119 708.752 276.324C708.454 276.528 708.224 276.824 708.062 277.21C707.9 277.597 707.796 278.071 707.751 278.634H707.836C708.057 278.224 708.364 277.923 708.756 277.73C709.148 277.537 709.569 277.44 710.018 277.44C710.529 277.44 710.989 277.56 711.398 277.798C711.807 278.037 712.131 278.391 712.37 278.859C712.608 279.328 712.728 279.906 712.728 280.594C712.728 281.278 712.606 281.869 712.361 282.366C712.12 282.864 711.78 283.247 711.343 283.517C710.908 283.784 710.398 283.918 709.813 283.918C709.228 283.918 708.715 283.78 708.275 283.504C707.834 283.226 707.492 282.814 707.248 282.268C707.003 281.72 706.881 281.043 706.881 280.236V279.537C706.881 278.08 707.128 276.974 707.623 276.222C708.12 275.469 708.867 275.08 709.864 275.054C710.216 275.043 710.53 275.04 710.806 275.045C711.081 275.051 711.322 275.038 711.526 275.007C711.731 274.976 711.904 274.901 712.046 274.781ZM709.813 283.014C710.208 283.014 710.547 282.915 710.831 282.716C711.118 282.517 711.339 282.237 711.492 281.876C711.645 281.513 711.722 281.085 711.722 280.594C711.722 280.116 711.644 279.71 711.488 279.375C711.334 279.04 711.114 278.784 710.827 278.608C710.54 278.432 710.197 278.344 709.796 278.344C709.503 278.344 709.241 278.393 709.008 278.493C708.775 278.592 708.576 278.739 708.411 278.932C708.246 279.125 708.118 279.361 708.028 279.639C707.939 279.918 707.893 280.236 707.887 280.594C707.887 281.327 708.059 281.913 708.403 282.354C708.746 282.794 709.216 283.014 709.813 283.014ZM717.01 283.918C716.38 283.918 715.836 283.778 715.378 283.5C714.924 283.219 714.573 282.827 714.326 282.324C714.081 281.818 713.959 281.23 713.959 280.56C713.959 279.889 714.081 279.298 714.326 278.787C714.573 278.273 714.917 277.872 715.357 277.585C715.8 277.295 716.317 277.151 716.908 277.151C717.249 277.151 717.586 277.207 717.918 277.321C718.251 277.435 718.553 277.619 718.826 277.875C719.099 278.128 719.316 278.463 719.478 278.881C719.64 279.298 719.721 279.812 719.721 280.423V280.849H714.675V279.98H718.698C718.698 279.611 718.624 279.281 718.476 278.991C718.331 278.702 718.124 278.473 717.854 278.305C717.587 278.138 717.272 278.054 716.908 278.054C716.508 278.054 716.161 278.153 715.868 278.352C715.579 278.548 715.356 278.804 715.199 279.119C715.043 279.435 714.965 279.773 714.965 280.134V280.713C714.965 281.207 715.05 281.626 715.221 281.97C715.394 282.311 715.634 282.571 715.941 282.75C716.248 282.926 716.604 283.014 717.01 283.014C717.275 283.014 717.513 282.977 717.726 282.903C717.942 282.827 718.128 282.713 718.285 282.562C718.441 282.409 718.562 282.219 718.647 281.991L719.618 282.264C719.516 282.594 719.344 282.884 719.103 283.134C718.861 283.381 718.563 283.574 718.208 283.713C717.853 283.849 717.454 283.918 717.01 283.918ZM721.251 286.236V277.236H722.222V278.276H722.341C722.415 278.162 722.518 278.017 722.648 277.841C722.782 277.662 722.972 277.503 723.219 277.364C723.469 277.222 723.807 277.151 724.233 277.151C724.785 277.151 725.27 277.288 725.691 277.564C726.111 277.839 726.439 278.23 726.675 278.736C726.911 279.241 727.029 279.838 727.029 280.526C727.029 281.219 726.911 281.82 726.675 282.328C726.439 282.834 726.113 283.226 725.695 283.504C725.278 283.78 724.796 283.918 724.251 283.918C723.83 283.918 723.493 283.848 723.241 283.709C722.988 283.567 722.793 283.406 722.657 283.227C722.52 283.045 722.415 282.895 722.341 282.776H722.256V286.236H721.251ZM722.239 280.509C722.239 281.003 722.312 281.439 722.456 281.817C722.601 282.192 722.813 282.486 723.091 282.699C723.37 282.909 723.711 283.014 724.114 283.014C724.535 283.014 724.885 282.903 725.167 282.682C725.451 282.457 725.664 282.156 725.806 281.778C725.951 281.398 726.023 280.974 726.023 280.509C726.023 280.048 725.952 279.634 725.81 279.264C725.671 278.892 725.459 278.598 725.175 278.382C724.894 278.163 724.54 278.054 724.114 278.054C723.705 278.054 723.361 278.158 723.083 278.365C722.805 278.57 722.594 278.857 722.452 279.226C722.31 279.592 722.239 280.02 722.239 280.509ZM731.307 283.918C730.677 283.918 730.133 283.778 729.675 283.5C729.221 283.219 728.87 282.827 728.623 282.324C728.378 281.818 728.256 281.23 728.256 280.56C728.256 279.889 728.378 279.298 728.623 278.787C728.87 278.273 729.214 277.872 729.654 277.585C730.097 277.295 730.614 277.151 731.205 277.151C731.546 277.151 731.883 277.207 732.215 277.321C732.547 277.435 732.85 277.619 733.123 277.875C733.395 278.128 733.613 278.463 733.775 278.881C733.937 279.298 734.018 279.812 734.018 280.423V280.849H728.972V279.98H732.995C732.995 279.611 732.921 279.281 732.773 278.991C732.628 278.702 732.421 278.473 732.151 278.305C731.884 278.138 731.569 278.054 731.205 278.054C730.805 278.054 730.458 278.153 730.165 278.352C729.876 278.548 729.653 278.804 729.496 279.119C729.34 279.435 729.262 279.773 729.262 280.134V280.713C729.262 281.207 729.347 281.626 729.518 281.97C729.691 282.311 729.931 282.571 730.238 282.75C730.545 282.926 730.901 283.014 731.307 283.014C731.572 283.014 731.81 282.977 732.023 282.903C732.239 282.827 732.425 282.713 732.581 282.562C732.738 282.409 732.858 282.219 732.944 281.991L733.915 282.264C733.813 282.594 733.641 282.884 733.4 283.134C733.158 283.381 732.86 283.574 732.505 283.713C732.15 283.849 731.751 283.918 731.307 283.918ZM739.127 282.418L741.411 277.236H742.366L739.536 283.781H738.718L735.939 277.236H736.877L739.127 282.418ZM736.553 277.236V283.781H735.547V277.236H736.553ZM741.701 283.781V277.236H742.706V283.781H741.701ZM747.922 283.781V277.236H748.928V280.082H749.593L751.945 277.236H753.241L750.599 280.389L753.275 283.781H751.979L749.831 281.02H748.928V283.781H747.922ZM755.015 286.236C754.845 286.236 754.693 286.222 754.559 286.193C754.426 286.168 754.334 286.142 754.282 286.116L754.538 285.23C754.782 285.293 754.998 285.315 755.186 285.298C755.373 285.281 755.54 285.197 755.684 285.047C755.832 284.899 755.967 284.659 756.089 284.327L756.277 283.815L753.856 277.236H754.947L756.754 282.452H756.822L758.629 277.236H759.72L756.942 284.736C756.817 285.074 756.662 285.354 756.477 285.575C756.292 285.8 756.078 285.966 755.834 286.074C755.592 286.182 755.319 286.236 755.015 286.236ZM761.047 286.236V277.236H762.019V278.276H762.138C762.212 278.162 762.314 278.017 762.445 277.841C762.579 277.662 762.769 277.503 763.016 277.364C763.266 277.222 763.604 277.151 764.03 277.151C764.581 277.151 765.067 277.288 765.488 277.564C765.908 277.839 766.236 278.23 766.472 278.736C766.708 279.241 766.826 279.838 766.826 280.526C766.826 281.219 766.708 281.82 766.472 282.328C766.236 282.834 765.91 283.226 765.492 283.504C765.074 283.78 764.593 283.918 764.047 283.918C763.627 283.918 763.29 283.848 763.037 283.709C762.785 283.567 762.59 283.406 762.454 283.227C762.317 283.045 762.212 282.895 762.138 282.776H762.053V286.236H761.047ZM762.036 280.509C762.036 281.003 762.108 281.439 762.253 281.817C762.398 282.192 762.61 282.486 762.888 282.699C763.167 282.909 763.508 283.014 763.911 283.014C764.331 283.014 764.682 282.903 764.964 282.682C765.248 282.457 765.461 282.156 765.603 281.778C765.748 281.398 765.82 280.974 765.82 280.509C765.82 280.048 765.749 279.634 765.607 279.264C765.468 278.892 765.256 278.598 764.972 278.382C764.691 278.163 764.337 278.054 763.911 278.054C763.502 278.054 763.158 278.158 762.88 278.365C762.601 278.57 762.391 278.857 762.249 279.226C762.107 279.592 762.036 280.02 762.036 280.509ZM771.019 283.918C770.405 283.918 769.877 283.773 769.434 283.483C768.991 283.193 768.65 282.794 768.411 282.286C768.172 281.777 768.053 281.196 768.053 280.543C768.053 279.878 768.175 279.291 768.42 278.783C768.667 278.271 769.01 277.872 769.451 277.585C769.894 277.295 770.411 277.151 771.002 277.151C771.462 277.151 771.877 277.236 772.246 277.406C772.616 277.577 772.918 277.815 773.154 278.122C773.39 278.429 773.536 278.787 773.593 279.196H772.587C772.51 278.898 772.34 278.634 772.076 278.403C771.814 278.17 771.462 278.054 771.019 278.054C770.627 278.054 770.283 278.156 769.988 278.361C769.695 278.562 769.466 278.848 769.302 279.217C769.14 279.584 769.059 280.014 769.059 280.509C769.059 281.014 769.138 281.455 769.297 281.83C769.459 282.205 769.687 282.496 769.979 282.703C770.275 282.911 770.621 283.014 771.019 283.014C771.28 283.014 771.518 282.969 771.731 282.878C771.944 282.787 772.124 282.656 772.272 282.486C772.42 282.315 772.525 282.111 772.587 281.872H773.593C773.536 282.259 773.395 282.607 773.171 282.916C772.949 283.223 772.655 283.467 772.289 283.649C771.925 283.828 771.502 283.918 771.019 283.918ZM775.932 279.605H777.807C778.574 279.605 779.161 279.8 779.567 280.189C779.974 280.578 780.177 281.071 780.177 281.668C780.177 282.06 780.086 282.416 779.904 282.737C779.722 283.055 779.455 283.31 779.103 283.5C778.751 283.688 778.319 283.781 777.807 283.781H775.063V277.236H776.069V282.844H777.807C778.205 282.844 778.532 282.739 778.787 282.528C779.043 282.318 779.171 282.048 779.171 281.719C779.171 281.372 779.043 281.089 778.787 280.871C778.532 280.652 778.205 280.543 777.807 280.543H775.932V279.605ZM781.216 283.781V277.236H782.222V283.781H781.216ZM697.711 296.298L700.865 291.236H702.024V297.781H701.018V292.719L697.882 297.781H696.706V291.236H697.711V296.298ZM703.286 297.781V296.844H703.525C703.721 296.844 703.884 296.805 704.015 296.729C704.146 296.649 704.251 296.511 704.33 296.315C704.413 296.116 704.475 295.841 704.518 295.489C704.563 295.134 704.596 294.682 704.616 294.134L704.735 291.236H709.099V297.781H708.093V292.173H705.69L705.587 294.509C705.565 295.045 705.516 295.518 705.442 295.928C705.371 296.334 705.262 296.675 705.114 296.95C704.969 297.226 704.776 297.433 704.535 297.572C704.293 297.712 703.991 297.781 703.627 297.781H703.286ZM711.95 296.298L715.103 291.236H716.262V297.781H715.256V292.719L712.12 297.781H710.944V291.236H711.95V296.298ZM725.059 296.418L727.343 291.236H728.297L725.468 297.781H724.65L721.871 291.236H722.809L725.059 296.418ZM722.485 291.236V297.781H721.479V291.236H722.485ZM727.632 297.781V291.236H728.638V297.781H727.632ZM733.223 297.918C732.593 297.918 732.049 297.778 731.591 297.5C731.137 297.219 730.786 296.827 730.539 296.324C730.294 295.818 730.172 295.23 730.172 294.56C730.172 293.889 730.294 293.298 730.539 292.787C730.786 292.273 731.13 291.872 731.57 291.585C732.013 291.295 732.53 291.151 733.121 291.151C733.462 291.151 733.799 291.207 734.131 291.321C734.463 291.435 734.766 291.619 735.039 291.875C735.311 292.128 735.529 292.463 735.691 292.881C735.853 293.298 735.934 293.812 735.934 294.423V294.849H730.888V293.98H734.911C734.911 293.611 734.837 293.281 734.689 292.991C734.544 292.702 734.337 292.473 734.067 292.305C733.8 292.138 733.485 292.054 733.121 292.054C732.721 292.054 732.374 292.153 732.081 292.352C731.792 292.548 731.569 292.804 731.412 293.119C731.256 293.435 731.178 293.773 731.178 294.134V294.713C731.178 295.207 731.263 295.626 731.434 295.97C731.607 296.311 731.847 296.571 732.154 296.75C732.461 296.926 732.817 297.014 733.223 297.014C733.488 297.014 733.726 296.977 733.939 296.903C734.155 296.827 734.341 296.713 734.498 296.562C734.654 296.409 734.775 296.219 734.86 295.991L735.831 296.264C735.729 296.594 735.557 296.884 735.316 297.134C735.074 297.381 734.776 297.574 734.421 297.713C734.066 297.849 733.667 297.918 733.223 297.918ZM741.844 294.048V294.986H738.23V294.048H741.844ZM738.469 291.236V297.781H737.463V291.236H738.469ZM742.611 291.236V297.781H741.605V291.236H742.611ZM743.557 292.173V291.236H748.875V292.173H746.728V297.781H745.722V292.173H743.557ZM752.662 297.918C752.071 297.918 751.552 297.777 751.106 297.496C750.663 297.214 750.316 296.821 750.066 296.315C749.819 295.81 749.696 295.219 749.696 294.543C749.696 293.861 749.819 293.266 750.066 292.757C750.316 292.249 750.663 291.854 751.106 291.572C751.552 291.291 752.071 291.151 752.662 291.151C753.252 291.151 753.77 291.291 754.213 291.572C754.659 291.854 755.005 292.249 755.252 292.757C755.502 293.266 755.627 293.861 755.627 294.543C755.627 295.219 755.502 295.81 755.252 296.315C755.005 296.821 754.659 297.214 754.213 297.496C753.77 297.777 753.252 297.918 752.662 297.918ZM752.662 297.014C753.11 297.014 753.48 296.899 753.77 296.669C754.059 296.439 754.274 296.136 754.413 295.761C754.552 295.386 754.622 294.98 754.622 294.543C754.622 294.105 754.552 293.697 754.413 293.32C754.274 292.942 754.059 292.636 753.77 292.403C753.48 292.17 753.11 292.054 752.662 292.054C752.213 292.054 751.843 292.17 751.554 292.403C751.264 292.636 751.049 292.942 750.91 293.32C750.771 293.697 750.701 294.105 750.701 294.543C750.701 294.98 750.771 295.386 750.91 295.761C751.049 296.136 751.264 296.439 751.554 296.669C751.843 296.899 752.213 297.014 752.662 297.014ZM757.163 300.236V291.236H758.134V292.276H758.254C758.327 292.162 758.43 292.017 758.56 291.841C758.694 291.662 758.884 291.503 759.131 291.364C759.381 291.222 759.719 291.151 760.146 291.151C760.697 291.151 761.183 291.288 761.603 291.564C762.023 291.839 762.352 292.23 762.587 292.736C762.823 293.241 762.941 293.838 762.941 294.526C762.941 295.219 762.823 295.82 762.587 296.328C762.352 296.834 762.025 297.226 761.607 297.504C761.19 297.78 760.708 297.918 760.163 297.918C759.742 297.918 759.406 297.848 759.153 297.709C758.9 297.567 758.705 297.406 758.569 297.227C758.433 297.045 758.327 296.895 758.254 296.776H758.168V300.236H757.163ZM758.151 294.509C758.151 295.003 758.224 295.439 758.369 295.817C758.513 296.192 758.725 296.486 759.004 296.699C759.282 296.909 759.623 297.014 760.026 297.014C760.447 297.014 760.798 296.903 761.079 296.682C761.363 296.457 761.576 296.156 761.718 295.778C761.863 295.398 761.935 294.974 761.935 294.509C761.935 294.048 761.864 293.634 761.722 293.264C761.583 292.892 761.371 292.598 761.087 292.382C760.806 292.163 760.452 292.054 760.026 292.054C759.617 292.054 759.273 292.158 758.995 292.365C758.717 292.57 758.506 292.857 758.364 293.226C758.222 293.592 758.151 294.02 758.151 294.509ZM766.401 297.935C765.987 297.935 765.61 297.857 765.272 297.7C764.934 297.541 764.665 297.312 764.467 297.014C764.268 296.713 764.168 296.349 764.168 295.923C764.168 295.548 764.242 295.244 764.39 295.011C764.538 294.776 764.735 294.591 764.982 294.457C765.229 294.324 765.502 294.224 765.8 294.159C766.102 294.091 766.404 294.037 766.708 293.997C767.106 293.946 767.428 293.908 767.675 293.882C767.925 293.854 768.107 293.807 768.221 293.741C768.337 293.676 768.396 293.562 768.396 293.401V293.366C768.396 292.946 768.281 292.619 768.05 292.386C767.823 292.153 767.478 292.037 767.015 292.037C766.535 292.037 766.158 292.142 765.886 292.352C765.613 292.562 765.421 292.787 765.31 293.026L764.356 292.685C764.526 292.287 764.754 291.977 765.038 291.756C765.325 291.531 765.637 291.375 765.975 291.287C766.316 291.196 766.651 291.151 766.981 291.151C767.191 291.151 767.433 291.176 767.705 291.227C767.981 291.276 768.246 291.376 768.502 291.53C768.761 291.683 768.975 291.915 769.146 292.224C769.316 292.534 769.401 292.949 769.401 293.469V297.781H768.396V296.895H768.344C768.276 297.037 768.163 297.189 768.004 297.351C767.844 297.513 767.633 297.651 767.369 297.764C767.104 297.878 766.782 297.935 766.401 297.935ZM766.555 297.031C766.952 297.031 767.288 296.953 767.56 296.797C767.836 296.641 768.043 296.439 768.183 296.192C768.325 295.945 768.396 295.685 768.396 295.412V294.491C768.353 294.543 768.259 294.589 768.114 294.632C767.972 294.672 767.808 294.707 767.62 294.739C767.435 294.767 767.255 294.793 767.079 294.815C766.906 294.835 766.765 294.852 766.657 294.866C766.396 294.901 766.151 294.956 765.924 295.033C765.7 295.107 765.518 295.219 765.379 295.369C765.242 295.517 765.174 295.719 765.174 295.974C765.174 296.324 765.303 296.588 765.562 296.767C765.823 296.943 766.154 297.031 766.555 297.031Z" fill="#201C28"/>
<path d="M881.051 137.969C881.051 138.521 881.498 138.969 882.051 138.969C882.603 138.969 883.051 138.521 883.051 137.969H881.051ZM883.051 142.344C883.051 141.791 882.603 141.344 882.051 141.344C881.498 141.344 881.051 141.791 881.051 142.344H883.051ZM881.051 146.719C881.051 147.271 881.498 147.719 882.051 147.719C882.603 147.719 883.051 147.271 883.051 146.719H881.051ZM883.051 151.094C883.051 150.541 882.603 150.094 882.051 150.094C881.498 150.094 881.051 150.541 881.051 151.094H883.051ZM881.051 155.469C881.051 156.021 881.498 156.469 882.051 156.469C882.603 156.469 883.051 156.021 883.051 155.469H881.051ZM883.051 159.844C883.051 159.291 882.603 158.844 882.051 158.844C881.498 158.844 881.051 159.291 881.051 159.844H883.051ZM881.051 164.219C881.051 164.771 881.498 165.219 882.051 165.219C882.603 165.219 883.051 164.771 883.051 164.219H881.051ZM883.051 168.594C883.051 168.041 882.603 167.594 882.051 167.594C881.498 167.594 881.051 168.041 881.051 168.594H883.051ZM881.051 135.781V137.969H883.051V135.781H881.051ZM881.051 142.344V146.719H883.051V142.344H881.051ZM881.051 151.094V155.469H883.051V151.094H881.051ZM881.051 159.844V164.219H883.051V159.844H881.051ZM881.051 168.594V170.781H883.051V168.594H881.051Z" fill="#F4F0FF"/>
<rect x="758.051" y="180.781" width="187" height="48" rx="24" fill="#F4F0FF"/>
<path d="M790.753 193.054V201.781H789.696V193.991H785.299V201.781H784.242V193.054H790.753ZM795.408 201.918C794.817 201.918 794.298 201.777 793.852 201.496C793.409 201.214 793.062 200.821 792.812 200.315C792.565 199.81 792.442 199.219 792.442 198.543C792.442 197.861 792.565 197.266 792.812 196.757C793.062 196.249 793.409 195.854 793.852 195.572C794.298 195.291 794.817 195.151 795.408 195.151C795.999 195.151 796.516 195.291 796.959 195.572C797.405 195.854 797.751 196.249 797.999 196.757C798.249 197.266 798.374 197.861 798.374 198.543C798.374 199.219 798.249 199.81 797.999 200.315C797.751 200.821 797.405 201.214 796.959 201.496C796.516 201.777 795.999 201.918 795.408 201.918ZM795.408 201.014C795.857 201.014 796.226 200.899 796.516 200.669C796.805 200.439 797.02 200.136 797.159 199.761C797.298 199.386 797.368 198.98 797.368 198.543C797.368 198.105 797.298 197.697 797.159 197.32C797.02 196.942 796.805 196.636 796.516 196.403C796.226 196.17 795.857 196.054 795.408 196.054C794.959 196.054 794.589 196.17 794.3 196.403C794.01 196.636 793.795 196.942 793.656 197.32C793.517 197.697 793.447 198.105 793.447 198.543C793.447 198.98 793.517 199.386 793.656 199.761C793.795 200.136 794.01 200.439 794.3 200.669C794.589 200.899 794.959 201.014 795.408 201.014ZM799.21 203.656V200.844H799.755C799.889 200.705 800.004 200.554 800.1 200.392C800.197 200.23 800.281 200.038 800.352 199.817C800.426 199.592 800.488 199.32 800.539 198.999C800.591 198.675 800.636 198.284 800.676 197.827L800.897 195.236H805.056V200.844H806.062V203.656H805.056V201.781H800.216V203.656H799.21ZM800.897 200.844H804.051V196.173H801.835L801.664 197.827C801.593 198.511 801.505 199.109 801.4 199.621C801.295 200.132 801.127 200.54 800.897 200.844ZM810.141 201.918C809.511 201.918 808.967 201.778 808.509 201.5C808.055 201.219 807.704 200.827 807.457 200.324C807.212 199.818 807.09 199.23 807.09 198.56C807.09 197.889 807.212 197.298 807.457 196.787C807.704 196.273 808.048 195.872 808.488 195.585C808.931 195.295 809.448 195.151 810.039 195.151C810.38 195.151 810.717 195.207 811.049 195.321C811.381 195.435 811.684 195.619 811.957 195.875C812.229 196.128 812.447 196.463 812.609 196.881C812.771 197.298 812.852 197.812 812.852 198.423V198.849H807.806V197.98H811.829C811.829 197.611 811.755 197.281 811.607 196.991C811.462 196.702 811.255 196.473 810.985 196.305C810.718 196.138 810.403 196.054 810.039 196.054C809.638 196.054 809.292 196.153 808.999 196.352C808.71 196.548 808.487 196.804 808.33 197.119C808.174 197.435 808.096 197.773 808.096 198.134V198.713C808.096 199.207 808.181 199.626 808.352 199.97C808.525 200.311 808.765 200.571 809.072 200.75C809.379 200.926 809.735 201.014 810.141 201.014C810.406 201.014 810.644 200.977 810.857 200.903C811.073 200.827 811.259 200.713 811.415 200.562C811.572 200.409 811.692 200.219 811.778 199.991L812.749 200.264C812.647 200.594 812.475 200.884 812.234 201.134C811.992 201.381 811.694 201.574 811.339 201.713C810.984 201.849 810.585 201.918 810.141 201.918ZM813.802 201.781V200.844H814.04C814.237 200.844 814.4 200.805 814.531 200.729C814.661 200.649 814.766 200.511 814.846 200.315C814.928 200.116 814.991 199.841 815.033 199.489C815.079 199.134 815.112 198.682 815.131 198.134L815.251 195.236H819.614V201.781H818.609V196.173H816.205L816.103 198.509C816.08 199.045 816.032 199.518 815.958 199.928C815.887 200.334 815.778 200.675 815.63 200.95C815.485 201.226 815.292 201.433 815.05 201.572C814.809 201.712 814.506 201.781 814.143 201.781H813.802ZM822.465 200.298L825.619 195.236H826.778V201.781H825.772V196.719L822.636 201.781H821.46V195.236H822.465V200.298ZM832.199 200.418L834.483 195.236H835.438L832.608 201.781H831.79L829.012 195.236H829.949L832.199 200.418ZM829.625 195.236V201.781H828.62V195.236H829.625ZM834.773 201.781V195.236H835.779V201.781H834.773ZM840.279 201.918C839.665 201.918 839.137 201.773 838.694 201.483C838.25 201.193 837.909 200.794 837.671 200.286C837.432 199.777 837.313 199.196 837.313 198.543C837.313 197.878 837.435 197.291 837.679 196.783C837.926 196.271 838.27 195.872 838.711 195.585C839.154 195.295 839.671 195.151 840.262 195.151C840.722 195.151 841.137 195.236 841.506 195.406C841.875 195.577 842.178 195.815 842.414 196.122C842.65 196.429 842.796 196.787 842.853 197.196H841.847C841.77 196.898 841.6 196.634 841.336 196.403C841.074 196.17 840.722 196.054 840.279 196.054C839.887 196.054 839.543 196.156 839.248 196.361C838.955 196.562 838.726 196.848 838.561 197.217C838.4 197.584 838.319 198.014 838.319 198.509C838.319 199.014 838.398 199.455 838.557 199.83C838.719 200.205 838.946 200.496 839.239 200.703C839.534 200.911 839.881 201.014 840.279 201.014C840.54 201.014 840.777 200.969 840.99 200.878C841.203 200.787 841.384 200.656 841.532 200.486C841.679 200.315 841.784 200.111 841.847 199.872H842.853C842.796 200.259 842.655 200.607 842.431 200.916C842.209 201.223 841.915 201.467 841.549 201.649C841.185 201.828 840.762 201.918 840.279 201.918ZM848.26 201.781V196.156H846.522C846.13 196.156 845.821 196.247 845.597 196.429C845.373 196.611 845.26 196.861 845.26 197.179C845.26 197.491 845.361 197.737 845.563 197.916C845.767 198.095 846.047 198.185 846.402 198.185H848.516V199.122H846.402C845.959 199.122 845.577 199.044 845.256 198.888C844.935 198.732 844.688 198.509 844.515 198.219C844.341 197.926 844.255 197.58 844.255 197.179C844.255 196.776 844.346 196.429 844.527 196.139C844.709 195.849 844.969 195.626 845.307 195.47C845.648 195.314 846.053 195.236 846.522 195.236H849.215V201.781H848.26ZM843.897 201.781L845.755 198.526H846.846L844.988 201.781H843.897ZM857.095 201.918C856.504 201.918 855.986 201.777 855.54 201.496C855.097 201.214 854.75 200.821 854.5 200.315C854.253 199.81 854.129 199.219 854.129 198.543C854.129 197.861 854.253 197.266 854.5 196.757C854.75 196.249 855.097 195.854 855.54 195.572C855.986 195.291 856.504 195.151 857.095 195.151C857.686 195.151 858.203 195.291 858.646 195.572C859.092 195.854 859.439 196.249 859.686 196.757C859.936 197.266 860.061 197.861 860.061 198.543C860.061 199.219 859.936 199.81 859.686 200.315C859.439 200.821 859.092 201.214 858.646 201.496C858.203 201.777 857.686 201.918 857.095 201.918ZM857.095 201.014C857.544 201.014 857.913 200.899 858.203 200.669C858.493 200.439 858.707 200.136 858.847 199.761C858.986 199.386 859.055 198.98 859.055 198.543C859.055 198.105 858.986 197.697 858.847 197.32C858.707 196.942 858.493 196.636 858.203 196.403C857.913 196.17 857.544 196.054 857.095 196.054C856.646 196.054 856.277 196.17 855.987 196.403C855.697 196.636 855.483 196.942 855.344 197.32C855.205 197.697 855.135 198.105 855.135 198.543C855.135 198.98 855.205 199.386 855.344 199.761C855.483 200.136 855.697 200.439 855.987 200.669C856.277 200.899 856.646 201.014 857.095 201.014ZM860.741 196.173V195.236H866.059V196.173H863.911V201.781H862.906V196.173H860.741ZM867.526 201.781V195.236H868.532V198.082H869.196L871.549 195.236H872.844L870.202 198.389L872.878 201.781H871.583L869.435 199.02H868.532V201.781H867.526ZM873.971 204.236V195.236H874.943V196.276H875.062C875.136 196.162 875.238 196.017 875.369 195.841C875.502 195.662 875.693 195.503 875.94 195.364C876.19 195.222 876.528 195.151 876.954 195.151C877.505 195.151 877.991 195.288 878.412 195.564C878.832 195.839 879.16 196.23 879.396 196.736C879.632 197.241 879.75 197.838 879.75 198.526C879.75 199.219 879.632 199.82 879.396 200.328C879.16 200.834 878.833 201.226 878.416 201.504C877.998 201.78 877.517 201.918 876.971 201.918C876.551 201.918 876.214 201.848 875.961 201.709C875.708 201.567 875.514 201.406 875.377 201.227C875.241 201.045 875.136 200.895 875.062 200.776H874.977V204.236H873.971ZM874.96 198.509C874.96 199.003 875.032 199.439 875.177 199.817C875.322 200.192 875.534 200.486 875.812 200.699C876.091 200.909 876.431 201.014 876.835 201.014C877.255 201.014 877.606 200.903 877.887 200.682C878.172 200.457 878.385 200.156 878.527 199.778C878.672 199.398 878.744 198.974 878.744 198.509C878.744 198.048 878.673 197.634 878.531 197.264C878.392 196.892 878.18 196.598 877.896 196.382C877.615 196.163 877.261 196.054 876.835 196.054C876.426 196.054 876.082 196.158 875.804 196.365C875.525 196.57 875.315 196.857 875.173 197.226C875.031 197.592 874.96 198.02 874.96 198.509ZM882.153 197.605H884.028C884.795 197.605 885.382 197.8 885.788 198.189C886.194 198.578 886.397 199.071 886.397 199.668C886.397 200.06 886.306 200.416 886.125 200.737C885.943 201.055 885.676 201.31 885.324 201.5C884.971 201.688 884.539 201.781 884.028 201.781H881.284V195.236H882.289V200.844H884.028C884.426 200.844 884.752 200.739 885.008 200.528C885.264 200.318 885.392 200.048 885.392 199.719C885.392 199.372 885.264 199.089 885.008 198.871C884.752 198.652 884.426 198.543 884.028 198.543H882.153V197.605ZM887.437 201.781V195.236H888.443V201.781H887.437ZM889.909 196.173V195.236H895.227V196.173H893.079V201.781H892.074V196.173H889.909ZM897.563 197.605H899.438C900.205 197.605 900.792 197.8 901.198 198.189C901.604 198.578 901.808 199.071 901.808 199.668C901.808 200.06 901.717 200.416 901.535 200.737C901.353 201.055 901.086 201.31 900.734 201.5C900.381 201.688 899.95 201.781 899.438 201.781H896.694V195.236H897.7V200.844H899.438C899.836 200.844 900.163 200.739 900.418 200.528C900.674 200.318 900.802 200.048 900.802 199.719C900.802 199.372 900.674 199.089 900.418 198.871C900.163 198.652 899.836 198.543 899.438 198.543H897.563V197.605ZM902.847 201.781V195.236H903.853V201.781H902.847ZM909.273 200.418L911.558 195.236H912.512L909.683 201.781H908.864L906.086 195.236H907.023L909.273 200.418ZM906.7 195.236V201.781H905.694V195.236H906.7ZM911.847 201.781V195.236H912.853V201.781H911.847ZM915.7 200.298L918.853 195.236H920.012V201.781H919.006V196.719L915.87 201.781H914.694V195.236H915.7V200.298ZM820.663 218.236V209.236H821.634V210.276H821.754C821.827 210.162 821.93 210.017 822.06 209.841C822.194 209.662 822.384 209.503 822.631 209.364C822.881 209.222 823.219 209.151 823.646 209.151C824.197 209.151 824.683 209.288 825.103 209.564C825.523 209.839 825.852 210.23 826.087 210.736C826.323 211.241 826.441 211.838 826.441 212.526C826.441 213.219 826.323 213.82 826.087 214.328C825.852 214.834 825.525 215.226 825.107 215.504C824.69 215.78 824.208 215.918 823.663 215.918C823.242 215.918 822.906 215.848 822.653 215.709C822.4 215.567 822.205 215.406 822.069 215.227C821.933 215.045 821.827 214.895 821.754 214.776H821.668V218.236H820.663ZM821.651 212.509C821.651 213.003 821.724 213.439 821.869 213.817C822.013 214.192 822.225 214.486 822.504 214.699C822.782 214.909 823.123 215.014 823.526 215.014C823.947 215.014 824.298 214.903 824.579 214.682C824.863 214.457 825.076 214.156 825.218 213.778C825.363 213.398 825.435 212.974 825.435 212.509C825.435 212.048 825.364 211.634 825.222 211.264C825.083 210.892 824.871 210.598 824.587 210.382C824.306 210.163 823.952 210.054 823.526 210.054C823.117 210.054 822.773 210.158 822.495 210.365C822.217 210.57 822.006 210.857 821.864 211.226C821.722 211.592 821.651 212.02 821.651 212.509ZM830.719 215.918C830.089 215.918 829.545 215.778 829.087 215.5C828.633 215.219 828.282 214.827 828.035 214.324C827.79 213.818 827.668 213.23 827.668 212.56C827.668 211.889 827.79 211.298 828.035 210.787C828.282 210.273 828.626 209.872 829.066 209.585C829.509 209.295 830.026 209.151 830.617 209.151C830.958 209.151 831.295 209.207 831.627 209.321C831.96 209.435 832.262 209.619 832.535 209.875C832.808 210.128 833.025 210.463 833.187 210.881C833.349 211.298 833.43 211.812 833.43 212.423V212.849H828.384V211.98H832.407C832.407 211.611 832.333 211.281 832.185 210.991C832.04 210.702 831.833 210.473 831.563 210.305C831.296 210.138 830.981 210.054 830.617 210.054C830.217 210.054 829.87 210.153 829.577 210.352C829.288 210.548 829.065 210.804 828.908 211.119C828.752 211.435 828.674 211.773 828.674 212.134V212.713C828.674 213.207 828.759 213.626 828.93 213.97C829.103 214.311 829.343 214.571 829.65 214.75C829.957 214.926 830.313 215.014 830.719 215.014C830.984 215.014 831.222 214.977 831.435 214.903C831.651 214.827 831.837 214.713 831.994 214.562C832.15 214.409 832.271 214.219 832.356 213.991L833.327 214.264C833.225 214.594 833.053 214.884 832.812 215.134C832.57 215.381 832.272 215.574 831.917 215.713C831.562 215.849 831.163 215.918 830.719 215.918ZM837.619 215.918C837.005 215.918 836.477 215.773 836.033 215.483C835.59 215.193 835.249 214.794 835.011 214.286C834.772 213.777 834.653 213.196 834.653 212.543C834.653 211.878 834.775 211.291 835.019 210.783C835.266 210.271 835.61 209.872 836.05 209.585C836.494 209.295 837.011 209.151 837.602 209.151C838.062 209.151 838.477 209.236 838.846 209.406C839.215 209.577 839.518 209.815 839.754 210.122C839.989 210.429 840.136 210.787 840.192 211.196H839.187C839.11 210.898 838.94 210.634 838.675 210.403C838.414 210.17 838.062 210.054 837.619 210.054C837.227 210.054 836.883 210.156 836.587 210.361C836.295 210.562 836.066 210.848 835.901 211.217C835.739 211.584 835.658 212.014 835.658 212.509C835.658 213.014 835.738 213.455 835.897 213.83C836.059 214.205 836.286 214.496 836.579 214.703C836.874 214.911 837.221 215.014 837.619 215.014C837.88 215.014 838.117 214.969 838.33 214.878C838.543 214.787 838.724 214.656 838.871 214.486C839.019 214.315 839.124 214.111 839.187 213.872H840.192C840.136 214.259 839.995 214.607 839.771 214.916C839.549 215.223 839.255 215.467 838.888 215.649C838.525 215.828 838.102 215.918 837.619 215.918ZM842.31 218.236C842.14 218.236 841.988 218.222 841.854 218.193C841.721 218.168 841.629 218.142 841.577 218.116L841.833 217.23C842.077 217.293 842.293 217.315 842.481 217.298C842.668 217.281 842.835 217.197 842.979 217.047C843.127 216.899 843.262 216.659 843.384 216.327L843.572 215.815L841.151 209.236H842.242L844.049 214.452H844.117L845.924 209.236H847.015L844.237 216.736C844.112 217.074 843.957 217.354 843.772 217.575C843.587 217.8 843.373 217.966 843.129 218.074C842.887 218.182 842.614 218.236 842.31 218.236ZM848.342 218.236V209.236H849.314V210.276H849.433C849.507 210.162 849.609 210.017 849.74 209.841C849.874 209.662 850.064 209.503 850.311 209.364C850.561 209.222 850.899 209.151 851.325 209.151C851.876 209.151 852.362 209.288 852.783 209.564C853.203 209.839 853.531 210.23 853.767 210.736C854.003 211.241 854.121 211.838 854.121 212.526C854.121 213.219 854.003 213.82 853.767 214.328C853.531 214.834 853.205 215.226 852.787 215.504C852.369 215.78 851.888 215.918 851.342 215.918C850.922 215.918 850.585 215.848 850.332 215.709C850.08 215.567 849.885 215.406 849.749 215.227C849.612 215.045 849.507 214.895 849.433 214.776H849.348V218.236H848.342ZM849.331 212.509C849.331 213.003 849.403 213.439 849.548 213.817C849.693 214.192 849.905 214.486 850.183 214.699C850.462 214.909 850.803 215.014 851.206 215.014C851.626 215.014 851.977 214.903 852.259 214.682C852.543 214.457 852.756 214.156 852.898 213.778C853.043 213.398 853.115 212.974 853.115 212.509C853.115 212.048 853.044 211.634 852.902 211.264C852.763 210.892 852.551 210.598 852.267 210.382C851.986 210.163 851.632 210.054 851.206 210.054C850.797 210.054 850.453 210.158 850.175 210.365C849.896 210.57 849.686 210.857 849.544 211.226C849.402 211.592 849.331 212.02 849.331 212.509ZM858.314 215.918C857.7 215.918 857.172 215.773 856.729 215.483C856.286 215.193 855.945 214.794 855.706 214.286C855.467 213.777 855.348 213.196 855.348 212.543C855.348 211.878 855.47 211.291 855.714 210.783C855.962 210.271 856.305 209.872 856.746 209.585C857.189 209.295 857.706 209.151 858.297 209.151C858.757 209.151 859.172 209.236 859.541 209.406C859.911 209.577 860.213 209.815 860.449 210.122C860.685 210.429 860.831 210.787 860.888 211.196H859.882C859.805 210.898 859.635 210.634 859.371 210.403C859.109 210.17 858.757 210.054 858.314 210.054C857.922 210.054 857.578 210.156 857.283 210.361C856.99 210.562 856.761 210.848 856.597 211.217C856.435 211.584 856.354 212.014 856.354 212.509C856.354 213.014 856.433 213.455 856.592 213.83C856.754 214.205 856.982 214.496 857.274 214.703C857.57 214.911 857.916 215.014 858.314 215.014C858.575 215.014 858.812 214.969 859.026 214.878C859.239 214.787 859.419 214.656 859.567 214.486C859.714 214.315 859.82 214.111 859.882 213.872H860.888C860.831 214.259 860.69 214.607 860.466 214.916C860.244 215.223 859.95 215.467 859.584 215.649C859.22 215.828 858.797 215.918 858.314 215.918ZM864.284 215.935C863.869 215.935 863.493 215.857 863.155 215.7C862.817 215.541 862.548 215.312 862.349 215.014C862.151 214.713 862.051 214.349 862.051 213.923C862.051 213.548 862.125 213.244 862.273 213.011C862.42 212.776 862.618 212.591 862.865 212.457C863.112 212.324 863.385 212.224 863.683 212.159C863.984 212.091 864.287 212.037 864.591 211.997C864.989 211.946 865.311 211.908 865.558 211.882C865.808 211.854 865.99 211.807 866.104 211.741C866.22 211.676 866.278 211.562 866.278 211.401V211.366C866.278 210.946 866.163 210.619 865.933 210.386C865.706 210.153 865.361 210.037 864.898 210.037C864.418 210.037 864.041 210.142 863.768 210.352C863.496 210.562 863.304 210.787 863.193 211.026L862.239 210.685C862.409 210.287 862.636 209.977 862.92 209.756C863.207 209.531 863.52 209.375 863.858 209.287C864.199 209.196 864.534 209.151 864.864 209.151C865.074 209.151 865.315 209.176 865.588 209.227C865.864 209.276 866.129 209.376 866.385 209.53C866.643 209.683 866.858 209.915 867.028 210.224C867.199 210.534 867.284 210.949 867.284 211.469V215.781H866.278V214.895H866.227C866.159 215.037 866.045 215.189 865.886 215.351C865.727 215.513 865.516 215.651 865.251 215.764C864.987 215.878 864.665 215.935 864.284 215.935ZM864.438 215.031C864.835 215.031 865.17 214.953 865.443 214.797C865.719 214.641 865.926 214.439 866.065 214.192C866.207 213.945 866.278 213.685 866.278 213.412V212.491C866.236 212.543 866.142 212.589 865.997 212.632C865.855 212.672 865.69 212.707 865.503 212.739C865.318 212.767 865.138 212.793 864.962 212.815C864.788 212.835 864.648 212.852 864.54 212.866C864.278 212.901 864.034 212.956 863.807 213.033C863.582 213.107 863.401 213.219 863.261 213.369C863.125 213.517 863.057 213.719 863.057 213.974C863.057 214.324 863.186 214.588 863.445 214.767C863.706 214.943 864.037 215.031 864.438 215.031ZM872.699 214.418L874.983 209.236H875.938L873.108 215.781H872.29L869.512 209.236H870.449L872.699 214.418ZM870.125 209.236V215.781H869.12V209.236H870.125ZM875.273 215.781V209.236H876.279V215.781H875.273ZM879.125 214.298L882.279 209.236H883.438V215.781H882.432V210.719L879.296 215.781H878.12V209.236H879.125V214.298Z" fill="#201C28"/>
<path d="M873.051 180.781C880.851 180.781 882.051 176.781 882.051 174.781C882.051 179.581 888.051 180.781 891.051 180.781H873.051Z" fill="#F4F0FF"/>
<path d="M-105.064 621.41C-126.343 561.53 -57.6714 569.466 -19.184 394.053C-12.0248 361.423 -5.89497 328.293 4.03386 302.495C34.4848 223.356 78.4771 197.26 139.709 191.226C189.732 186.29 254.012 201.264 338.575 229.581C347.301 232.499 356.097 235.716 364.872 238.829C409.8 254.765 456.791 270.813 492.761 264.966C529.807 258.937 552.097 236.572 576.133 219.078C605.311 197.851 636.548 177.53 672.816 162.186C711.496 145.824 755.82 135.303 801.969 134.497C835.016 133.825 867.832 137.28 897.552 136.557C902.263 136.443 907.02 136.701 911.344 135.949C1039.04 113.721 1040.98 -36.8515 1080.76 22.6455" stroke="#F4F0FF" stroke-width="16" stroke-miterlimit="10"/>
<path d="M-105.064 621.41C-126.343 561.53 -57.6714 569.466 -19.184 394.053C-12.0248 361.423 -5.89502 328.293 4.03382 302.495C34.4848 223.356 78.4771 197.26 139.709 191.226C189.732 186.29 254.012 201.264 338.575 229.581C347.301 232.499 356.097 235.716 364.872 238.829C409.8 254.765 456.791 270.813 492.761 264.966C529.807 258.937 552.097 236.572 576.133 219.078C605.311 197.851 636.548 177.53 672.816 162.186C711.496 145.824 755.82 135.303 801.969 134.497C835.016 133.825 867.832 137.28 897.552 136.557C902.263 136.443 907.02 136.701 911.344 135.949C1039.04 113.721 1040.98 -36.8515 1080.76 22.6455" stroke="#D8CBFB" stroke-width="2" stroke-miterlimit="10"/>
<g filter="url(#filter0_d_520_15112)">
<circle cx="69.0508" cy="212.781" r="5" fill="#9D7DF4"/>
<circle cx="69.0508" cy="212.781" r="8" stroke="white" stroke-width="6"/>
</g>
<g filter="url(#filter1_d_520_15112)">
<circle cx="227.051" cy="197.781" r="5" fill="#9D7DF4"/>
<circle cx="227.051" cy="197.781" r="8" stroke="white" stroke-width="6"/>
</g>
<g filter="url(#filter2_d_520_15112)">
<circle cx="709.051" cy="149.781" r="5" fill="#9D7DF4"/>
<circle cx="709.051" cy="149.781" r="8" stroke="white" stroke-width="6"/>
</g>
<g filter="url(#filter3_d_520_15112)">
<circle cx="882.051" cy="135.781" r="5" fill="#9D7DF4"/>
<circle cx="882.051" cy="135.781" r="8" stroke="white" stroke-width="6"/>
</g>
<defs>
<filter id="filter0_d_520_15112" x="39.0508" y="183.781" width="60" height="60" filterUnits="userSpaceOnUse" color-interpolation-filters="sRGB">
<feFlood flood-opacity="0" result="BackgroundImageFix"/>
<feColorMatrix in="SourceAlpha" type="matrix" values="0 0 0 0 0 0 0 0 0 0 0 0 0 0 0 0 0 0 127 0" result="hardAlpha"/>
<feOffset dy="1"/>
<feGaussianBlur stdDeviation="9.5"/>
<feComposite in2="hardAlpha" operator="out"/>
<feColorMatrix type="matrix" values="0 0 0 0 0.615686 0 0 0 0 0.490196 0 0 0 0 0.956863 0 0 0 0.6 0"/>
<feBlend mode="normal" in2="BackgroundImageFix" result="effect1_dropShadow_520_15112"/>
<feBlend mode="normal" in="SourceGraphic" in2="effect1_dropShadow_520_15112" result="shape"/>
</filter>
<filter id="filter1_d_520_15112" x="197.051" y="168.781" width="60" height="60" filterUnits="userSpaceOnUse" color-interpolation-filters="sRGB">
<feFlood flood-opacity="0" result="BackgroundImageFix"/>
<feColorMatrix in="SourceAlpha" type="matrix" values="0 0 0 0 0 0 0 0 0 0 0 0 0 0 0 0 0 0 127 0" result="hardAlpha"/>
<feOffset dy="1"/>
<feGaussianBlur stdDeviation="9.5"/>
<feComposite in2="hardAlpha" operator="out"/>
<feColorMatrix type="matrix" values="0 0 0 0 0.615686 0 0 0 0 0.490196 0 0 0 0 0.956863 0 0 0 0.6 0"/>
<feBlend mode="normal" in2="BackgroundImageFix" result="effect1_dropShadow_520_15112"/>
<feBlend mode="normal" in="SourceGraphic" in2="effect1_dropShadow_520_15112" result="shape"/>
</filter>
<filter id="filter2_d_520_15112" x="679.051" y="120.781" width="60" height="60" filterUnits="userSpaceOnUse" color-interpolation-filters="sRGB">
<feFlood flood-opacity="0" result="BackgroundImageFix"/>
<feColorMatrix in="SourceAlpha" type="matrix" values="0 0 0 0 0 0 0 0 0 0 0 0 0 0 0 0 0 0 127 0" result="hardAlpha"/>
<feOffset dy="1"/>
<feGaussianBlur stdDeviation="9.5"/>
<feComposite in2="hardAlpha" operator="out"/>
<feColorMatrix type="matrix" values="0 0 0 0 0.615686 0 0 0 0 0.490196 0 0 0 0 0.956863 0 0 0 0.6 0"/>
<feBlend mode="normal" in2="BackgroundImageFix" result="effect1_dropShadow_520_15112"/>
<feBlend mode="normal" in="SourceGraphic" in2="effect1_dropShadow_520_15112" result="shape"/>
</filter>
<filter id="filter3_d_520_15112" x="852.051" y="106.781" width="60" height="60" filterUnits="userSpaceOnUse" color-interpolation-filters="sRGB">
<feFlood flood-opacity="0" result="BackgroundImageFix"/>
<feColorMatrix in="SourceAlpha" type="matrix" values="0 0 0 0 0 0 0 0 0 0 0 0 0 0 0 0 0 0 127 0" result="hardAlpha"/>
<feOffset dy="1"/>
<feGaussianBlur stdDeviation="9.5"/>
<feComposite in2="hardAlpha" operator="out"/>
<feColorMatrix type="matrix" values="0 0 0 0 0.615686 0 0 0 0 0.490196 0 0 0 0 0.956863 0 0 0 0.6 0"/>
<feBlend mode="normal" in2="BackgroundImageFix" result="effect1_dropShadow_520_15112"/>
<feBlend mode="normal" in="SourceGraphic" in2="effect1_dropShadow_520_15112" result="shape"/>
</filter>
</defs>
</svg>
